{
.appVersion = "1359";
copyright = "Harrisson, Ludi and Antoine Begon, 2011 - enhanced glyphset Camille Wisniewski, 2023";
customParameters = (
{
name = note;
value = "";
},
{
name = license;
value = "SIL Open Font License, Version 1.1";
},
{
name = licenseURL;
value = "http://scripts.sil.org/cms/scripts/page.php?site_id=nrsi&id=OFL";
},
{
name = uniqueID;
value = "FontForge 2.0 : OSP-DIN : 2-3-2011";
},
{
name = versionString;
value = "Version 001.000";
},
{
name = codePageRanges;
value = (
1252
);
},
{
name = openTypeOS2FamilyClass;
value = (
0,
0
);
},
{
name = openTypeOS2Panose;
value = (
2,
11,
8,
6,
2,
1,
2,
5,
2,
3
);
},
{
name = strikeoutPosition;
value = 528;
},
{
name = strikeoutSize;
value = 100;
},
{
name = openTypeOS2SubscriptXOffset;
value = 0;
},
{
name = openTypeOS2SubscriptXSize;
value = 1331;
},
{
name = openTypeOS2SubscriptYOffset;
value = 287;
},
{
name = openTypeOS2SubscriptYSize;
value = 1434;
},
{
name = openTypeOS2SuperscriptXOffset;
value = 0;
},
{
name = openTypeOS2SuperscriptXSize;
value = 1331;
},
{
name = openTypeOS2SuperscriptYOffset;
value = 983;
},
{
name = openTypeOS2SuperscriptYSize;
value = 1434;
},
{
name = fsType;
value = (
0,
0,
1,
0,
0,
0,
0,
0,
0,
0,
0,
0,
0,
0,
0,
0
);
},
{
name = unicodeRanges;
value = (
0
);
},
{
name = vendorID;
value = PfEd;
}
);
date = "2023-02-25 12:21:43 +0000";
designerURL = "http://osp.constantvzw.org/foundry/";
familyName = "OSP-DIN";
featurePrefixes = (
{
automatic = 1;
code = "languagesystem DFLT dflt;\012";
name = Languagesystems;
}
);
fontMaster = (
{
ascender = 1638;
capHeight = 1434;
customParameters = (
{
name = typoAscender;
value = 1638;
},
{
name = typoDescender;
value = 410;
},
{
name = typoLineGap;
value = 184;
},
{
name = winAscent;
value = 1951;
},
{
name = winDescent;
value = -610;
},
{
name = underlineThickness;
value = 102;
},
{
name = underlinePosition;
value = -614;
}
);
descender = -410;
id = master01;
xHeight = 1024;
}
);
glyphs = (
{
glyphname = A;
lastChange = "2023-05-03 16:12:38 +0000";
layers = (
{
layerId = master01;
paths = (
{
closed = 1;
nodes = (
"514 1434 LINE",
"821 0 LINE",
"618 0 LINE",
"557 307 LINE",
"268 309 LINE",
"207 0 LINE",
"4 0 LINE",
"311 1434 LINE"
);
},
{
closed = 1;
nodes = (
"309 510 LINE",
"516 510 LINE",
"414 1024 LINE",
"412 1024 LINE"
);
}
);
userData = {
com.fontlab.hintData = {
hhints = (
{
position = 0;
width = 21;
},
{
position = 309;
width = 201;
},
{
position = 1414;
width = 20;
}
);
};
};
width = 825;
}
);
unicode = 0041;
},
{
glyphname = Aacute;
lastChange = "2023-03-27 09:35:46 +0000";
layers = (
{
components = (
{
name = acutecomb;
transform = "{1, 0, 0, 1, 235, 309}";
}
);
layerId = master01;
paths = (
{
closed = 1;
nodes = (
"514 1434 LINE",
"821 0 LINE",
"618 0 LINE",
"557 307 LINE",
"268 309 LINE",
"207 0 LINE",
"4 0 LINE",
"311 1434 LINE"
);
},
{
closed = 1;
nodes = (
"309 510 LINE",
"516 510 LINE",
"414 1024 LINE",
"412 1024 LINE"
);
}
);
userData = {
com.fontlab.hintData = {
hhints = (
{
position = 0;
width = 21;
},
{
position = 309;
width = 201;
},
{
position = 1414;
width = 20;
},
{
position = 1552;
width = 238;
}
);
vhints = (
{
position = 341;
width = 364;
}
);
};
};
width = 825;
}
);
leftMetricsKey = A;
rightMetricsKey = A;
unicode = 00C1;
},
{
glyphname = Acircumflex;
lastChange = "2023-03-27 10:47:45 +0000";
layers = (
{
components = (
{
name = asciicircum;
transform = "{1, 0, 0, 1, 50, 314}";
}
);
layerId = master01;
paths = (
{
closed = 1;
nodes = (
"514 1434 LINE",
"821 0 LINE",
"618 0 LINE",
"557 307 LINE",
"268 309 LINE",
"207 0 LINE",
"4 0 LINE",
"311 1434 LINE"
);
},
{
closed = 1;
nodes = (
"309 510 LINE",
"516 510 LINE",
"414 1024 LINE",
"412 1024 LINE"
);
}
);
userData = {
com.fontlab.hintData = {
hhints = (
{
position = 0;
width = 21;
},
{
position = 309;
width = 201;
},
{
position = 1414;
width = 20;
},
{
position = 1573;
width = 221;
}
);
vhints = (
{
position = 140;
width = 567;
}
);
};
};
width = 825;
}
);
leftMetricsKey = A;
rightMetricsKey = A;
unicode = 00C2;
},
{
glyphname = Adieresis;
lastChange = "2023-04-14 14:20:14 +0000";
layers = (
{
components = (
{
name = dieresiscomb;
transform = "{1, 0, 0, 1, 70, 309}";
}
);
layerId = master01;
paths = (
{
closed = 1;
nodes = (
"514 1434 LINE",
"821 0 LINE",
"618 0 LINE",
"557 307 LINE",
"268 309 LINE",
"207 0 LINE",
"4 0 LINE",
"311 1434 LINE"
);
},
{
closed = 1;
nodes = (
"309 510 LINE",
"516 510 LINE",
"414 1024 LINE",
"412 1024 LINE"
);
}
);
userData = {
com.fontlab.hintData = {
hhints = (
{
position = 0;
width = 21;
},
{
position = 309;
width = 201;
},
{
position = 1414;
width = 20;
},
{
position = 1641;
width = 203;
}
);
vhints = (
{
position = 109;
width = 202;
},
{
position = 518;
width = 203;
}
);
};
};
width = 825;
}
);
leftMetricsKey = A;
rightMetricsKey = A;
unicode = 00C4;
},
{
glyphname = Agrave;
lastChange = "2023-03-27 11:09:27 +0000";
layers = (
{
components = (
{
name = grave;
transform = "{1, 0, 0, 1, 146, 313}";
}
);
layerId = master01;
paths = (
{
closed = 1;
nodes = (
"514 1434 LINE",
"821 0 LINE",
"618 0 LINE",
"557 307 LINE",
"268 309 LINE",
"207 0 LINE",
"4 0 LINE",
"311 1434 LINE"
);
},
{
closed = 1;
nodes = (
"309 510 LINE",
"516 510 LINE",
"414 1024 LINE",
"412 1024 LINE"
);
}
);
userData = {
com.fontlab.hintData = {
hhints = (
{
position = 0;
width = 21;
},
{
position = 309;
width = 201;
},
{
position = 1414;
width = 20;
},
{
position = 1557;
width = 238;
}
);
vhints = (
{
position = 125;
width = 364;
}
);
};
};
width = 825;
}
);
leftMetricsKey = A;
rightMetricsKey = A;
unicode = 00C0;
},
{
glyphname = "Alpha-latin";
lastChange = "2023-05-03 14:49:07 +0000";
layers = (
{
background = {
paths = (
{
closed = 1;
nodes = (
"466 0 LINE",
"466 205 LINE SMOOTH",
"466 200 OFFCURVE",
"466 192 OFFCURVE",
"465 182 CURVE SMOOTH",
"464 173 OFFCURVE",
"460 156 OFFCURVE",
"453 133 CURVE SMOOTH",
"446 110 OFFCURVE",
"435 89 OFFCURVE",
"422 71 CURVE SMOOTH",
"409 54 OFFCURVE",
"389 37 OFFCURVE",
"361 22 CURVE SMOOTH",
"333 7 OFFCURVE",
"300 0 OFFCURVE",
"261 0 CURVE SMOOTH",
"223 0 OFFCURVE",
"190 7 OFFCURVE",
"162 21 CURVE SMOOTH",
"134 36 OFFCURVE",
"113 53 OFFCURVE",
"100 72 CURVE SMOOTH",
"87 92 OFFCURVE",
"77 112 OFFCURVE",
"70 132 CURVE SMOOTH",
"63 152 OFFCURVE",
"59 169 OFFCURVE",
"59 184 CURVE",
"57 205 LINE",
"57 305 LINE",
"57 307 LINE",
"57 1024 LINE",
"261 1024 LINE",
"261 307 LINE",
"261 305 LINE SMOOTH",
"261 300 OFFCURVE",
"262 293 OFFCURVE",
"264 285 CURVE SMOOTH",
"267 278 OFFCURVE",
"271 267 OFFCURVE",
"276 252 CURVE SMOOTH",
"281 238 OFFCURVE",
"291 227 OFFCURVE",
"306 218 CURVE SMOOTH",
"321 209 OFFCURVE",
"341 205 OFFCURVE",
"364 205 CURVE SMOOTH",
"385 205 OFFCURVE",
"402 209 OFFCURVE",
"417 217 CURVE SMOOTH",
"432 225 OFFCURVE",
"443 235 OFFCURVE",
"449 247 CURVE SMOOTH",
"455 260 OFFCURVE",
"459 270 OFFCURVE",
"462 278 CURVE SMOOTH",
"465 287 OFFCURVE",
"466 295 OFFCURVE",
"466 303 CURVE SMOOTH",
"466 1024 LINE",
"671 1024 LINE",
"671 0 LINE"
);
}
);
};
layerId = master01;
paths = (
{
closed = 1;
nodes = (
"57 1229 LINE",
"59 1250 LINE SMOOTH",
"59 1265 OFFCURVE",
"63 1282 OFFCURVE",
"70 1302 CURVE SMOOTH",
"77 1322 OFFCURVE",
"87 1342 OFFCURVE",
"100 1362 CURVE SMOOTH",
"113 1381 OFFCURVE",
"134 1398 OFFCURVE",
"162 1413 CURVE SMOOTH",
"190 1427 OFFCURVE",
"223 1434 OFFCURVE",
"261 1434 CURVE SMOOTH",
"300 1434 OFFCURVE",
"333 1427 OFFCURVE",
"361 1412 CURVE SMOOTH",
"389 1397 OFFCURVE",
"409 1380 OFFCURVE",
"422 1363 CURVE SMOOTH",
"435 1345 OFFCURVE",
"446 1324 OFFCURVE",
"453 1301 CURVE SMOOTH",
"460 1278 OFFCURVE",
"464 1261 OFFCURVE",
"465 1252 CURVE SMOOTH",
"466 1242 OFFCURVE",
"466 1224 OFFCURVE",
"466 1229 CURVE SMOOTH",
"466 1434 LINE",
"671 1434 LINE",
"671 0 LINE",
"466 0 LINE",
"466 205 LINE SMOOTH",
"466 210 OFFCURVE",
"466 192 OFFCURVE",
"465 182 CURVE SMOOTH",
"464 173 OFFCURVE",
"460 156 OFFCURVE",
"453 133 CURVE SMOOTH",
"446 110 OFFCURVE",
"435 89 OFFCURVE",
"422 71 CURVE SMOOTH",
"409 54 OFFCURVE",
"389 37 OFFCURVE",
"361 22 CURVE SMOOTH",
"333 7 OFFCURVE",
"300 0 OFFCURVE",
"261 0 CURVE SMOOTH",
"223 0 OFFCURVE",
"190 7 OFFCURVE",
"162 21 CURVE SMOOTH",
"134 36 OFFCURVE",
"113 53 OFFCURVE",
"100 72 CURVE SMOOTH",
"87 92 OFFCURVE",
"77 112 OFFCURVE",
"70 132 CURVE SMOOTH",
"63 152 OFFCURVE",
"60 169 OFFCURVE",
"59 184 CURVE SMOOTH",
"57 205 LINE"
);
},
{
closed = 1;
nodes = (
"261 300 OFFCURVE",
"262 293 OFFCURVE",
"264 285 CURVE SMOOTH",
"267 278 OFFCURVE",
"271 267 OFFCURVE",
"276 252 CURVE SMOOTH",
"281 238 OFFCURVE",
"291 227 OFFCURVE",
"306 218 CURVE SMOOTH",
"321 209 OFFCURVE",
"341 205 OFFCURVE",
"364 205 CURVE SMOOTH",
"385 205 OFFCURVE",
"402 209 OFFCURVE",
"417 217 CURVE SMOOTH",
"432 225 OFFCURVE",
"443 235 OFFCURVE",
"449 247 CURVE SMOOTH",
"455 260 OFFCURVE",
"459 270 OFFCURVE",
"462 278 CURVE SMOOTH",
"465 287 OFFCURVE",
"466 295 OFFCURVE",
"466 303 CURVE SMOOTH",
"466 1131 LINE SMOOTH",
"466 1139 OFFCURVE",
"465 1147 OFFCURVE",
"462 1156 CURVE SMOOTH",
"459 1164 OFFCURVE",
"455 1174 OFFCURVE",
"449 1187 CURVE SMOOTH",
"443 1199 OFFCURVE",
"432 1209 OFFCURVE",
"417 1217 CURVE SMOOTH",
"402 1225 OFFCURVE",
"385 1229 OFFCURVE",
"364 1229 CURVE SMOOTH",
"341 1229 OFFCURVE",
"321 1225 OFFCURVE",
"306 1216 CURVE SMOOTH",
"291 1207 OFFCURVE",
"281 1196 OFFCURVE",
"276 1182 CURVE SMOOTH",
"271 1167 OFFCURVE",
"267 1156 OFFCURVE",
"264 1149 CURVE SMOOTH",
"262 1141 OFFCURVE",
"261 1134 OFFCURVE",
"261 1129 CURVE SMOOTH",
"261 305 LINE SMOOTH"
);
}
);
width = 732;
}
);
unicode = 2C6D;
},
{
glyphname = Aogonek;
lastChange = "2023-04-14 10:31:23 +0000";
layers = (
{
components = (
{
name = A;
}
);
layerId = master01;
paths = (
{
closed = 1;
nodes = (
"821 0 LINE",
"766 -40 OFFCURVE",
"777 -135 OFFCURVE",
"878 -115 CURVE",
"878 -290 LINE",
"601 -336 OFFCURVE",
"555 -116 OFFCURVE",
"618 0 CURVE"
);
}
);
width = 882;
}
);
leftMetricsKey = A;
rightMetricsKey = A;
unicode = 0104;
},
{
glyphname = AE;
lastChange = "2023-05-03 16:12:47 +0000";
layers = (
{
layerId = master01;
paths = (
{
closed = 1;
nodes = (
"1231 1432 LINE",
"1231 1229 LINE",
"821 1229 LINE",
"821 817 LINE",
"1128 817 LINE",
"1128 614 LINE",
"821 614 LINE",
"821 203 LINE",
"1231 203 LINE",
"1231 0 LINE",
"618 0 LINE",
"618 305 LINE",
"309 307 LINE",
"207 0 LINE",
"4 0 LINE",
"516 1432 LINE"
);
},
{
closed = 1;
nodes = (
"385 510 LINE",
"618 510 LINE",
"618 1126 LINE",
"590 1126 LINE"
);
}
);
width = 1267;
}
);
unicode = 00C6;
},
{
glyphname = B;
lastChange = "2023-05-03 16:12:38 +0000";
layers = (
{
layerId = master01;
paths = (
{
closed = 1;
nodes = (
"508 1432 LINE SMOOTH",
"564 1432 OFFCURVE",
"611.834 1412.17 OFFCURVE",
"651.5 1372.5 CURVE SMOOTH",
"691.168 1332.83 OFFCURVE",
"711.001 1284.33 OFFCURVE",
"711 1227 CURVE SMOOTH",
"711 793 LINE SMOOTH",
"711 772.333 OFFCURVE",
"703.5 754.5 OFFCURVE",
"688.5 739.5 CURVE SMOOTH",
"673.5 724.5 OFFCURVE",
"655.667 717 OFFCURVE",
"635 717 CURVE",
"635 715 LINE",
"655.667 715 OFFCURVE",
"673.5 707.5 OFFCURVE",
"688.5 692.5 CURVE SMOOTH",
"703.5 677.5 OFFCURVE",
"711 659.667 OFFCURVE",
"711 639 CURVE SMOOTH",
"711 203 LINE SMOOTH",
"711 147 OFFCURVE",
"691.167 99.167 OFFCURVE",
"651.5 59.5 CURVE SMOOTH",
"611.833 19.833 OFFCURVE",
"564 0 OFFCURVE",
"508 0 CURVE SMOOTH",
"98 0 LINE",
"98 1432 LINE"
);
},
{
closed = 1;
nodes = (
"301 817 LINE",
"430 817 LINE SMOOTH",
"452 817 OFFCURVE",
"470.5 824.5 OFFCURVE",
"485.5 839.5 CURVE SMOOTH",
"500.5 854.5 OFFCURVE",
"508 873 OFFCURVE",
"508 895 CURVE SMOOTH",
"508 1151 LINE SMOOTH",
"508 1173 OFFCURVE",
"500.5 1191.5 OFFCURVE",
"485.5 1206.5 CURVE SMOOTH",
"470.5 1221.5 OFFCURVE",
"452 1229 OFFCURVE",
"430 1229 CURVE SMOOTH",
"301 1229 LINE"
);
},
{
closed = 1;
nodes = (
"301 203 LINE",
"430 203 LINE SMOOTH",
"452 203 OFFCURVE",
"470.5 210.5 OFFCURVE",
"485.5 225.5 CURVE SMOOTH",
"500.5 240.5 OFFCURVE",
"508 259 OFFCURVE",
"508 281 CURVE SMOOTH",
"508 537 LINE SMOOTH",
"508 559.001 OFFCURVE",
"500.5 577.334 OFFCURVE",
"485.5 592 CURVE SMOOTH",
"470.5 606.669 OFFCURVE",
"452 614.003 OFFCURVE",
"430 614 CURVE SMOOTH",
"301 614 LINE"
);
}
);
userData = {
com.fontlab.hintData = {
hhints = (
{
position = 0;
width = 203;
},
{
position = 614;
width = 203;
},
{
position = 1229;
width = 203;
}
);
vhints = (
{
position = 98;
width = 203;
},
{
position = 508;
width = 203;
}
);
};
};
width = 808;
}
);
unicode = 0042;
},
{
glyphname = Bhook;
lastChange = "2023-04-14 15:30:37 +0000";
layers = (
{
components = (
{
name = B;
}
);
layerId = master01;
paths = (
{
closed = 1;
nodes = (
"98 1229 LINE SMOOTH",
"69 1229 OFFCURVE",
"45 1217 OFFCURVE",
"25 1198 CURVE SMOOTH",
"6 1178 OFFCURVE",
"-4 1154 OFFCURVE",
"-4 1125 CURVE",
"-209 1125 LINE",
"-209 1210 OFFCURVE",
"-179 1282 OFFCURVE",
"-119 1342 CURVE SMOOTH",
"-59 1402 OFFCURVE",
"13 1432 OFFCURVE",
"98 1432 CURVE SMOOTH",
"322 1432 LINE",
"322 1229 LINE"
);
}
);
width = 808;
}
);
unicode = 0181;
},
{
glyphname = C;
lastChange = "2023-05-03 16:12:38 +0000";
layers = (
{
layerId = master01;
paths = (
{
closed = 1;
nodes = (
"477.667 1434 OFFCURVE",
"550 1403.83 OFFCURVE",
"610 1343.5 CURVE SMOOTH",
"670 1283.17 OFFCURVE",
"700 1210.67 OFFCURVE",
"700 1126 CURVE SMOOTH",
"700 1024 LINE",
"496 1024 LINE",
"496 1126 LINE SMOOTH",
"496 1154.67 OFFCURVE",
"486 1179 OFFCURVE",
"466 1199 CURVE SMOOTH",
"446 1219 OFFCURVE",
"421.666 1229 OFFCURVE",
"393 1229 CURVE SMOOTH",
"364.333 1229 OFFCURVE",
"340.166 1219 OFFCURVE",
"320.5 1199 CURVE SMOOTH",
"300.833 1179 OFFCURVE",
"291 1154.67 OFFCURVE",
"291 1126 CURVE SMOOTH",
"291 307 LINE SMOOTH",
"291 278.333 OFFCURVE",
"300.833 254.167 OFFCURVE",
"320.5 234.5 CURVE SMOOTH",
"340.167 214.833 OFFCURVE",
"364.333 205 OFFCURVE",
"393 205 CURVE SMOOTH",
"421.667 205 OFFCURVE",
"446 214.833 OFFCURVE",
"466 234.5 CURVE SMOOTH",
"486 254.167 OFFCURVE",
"496 278.333 OFFCURVE",
"496 307 CURVE SMOOTH",
"496 410 LINE",
"700 410 LINE",
"700 307 LINE SMOOTH",
"700 222.333 OFFCURVE",
"670 150 OFFCURVE",
"610 90 CURVE SMOOTH",
"550 30 OFFCURVE",
"477.666 0 OFFCURVE",
"393 0 CURVE SMOOTH",
"308.333 0 OFFCURVE",
"236 30 OFFCURVE",
"176 90 CURVE SMOOTH",
"116 150 OFFCURVE",
"86 222.333 OFFCURVE",
"86 307 CURVE SMOOTH",
"86 1126 LINE SMOOTH",
"86 1210.67 OFFCURVE",
"116 1283.17 OFFCURVE",
"176 1343.5 CURVE SMOOTH",
"236 1403.84 OFFCURVE",
"308.333 1434 OFFCURVE",
"393 1434 CURVE SMOOTH"
);
}
);
userData = {
com.fontlab.hintData = {
hhints = (
{
position = 0;
width = 205;
},
{
position = 1024;
width = 21;
},
{
position = 1229;
width = 205;
}
);
vhints = (
{
position = 86;
width = 205;
},
{
position = 496;
width = 204;
}
);
};
};
width = 761;
}
);
unicode = 0043;
},
{
glyphname = Chook;
lastChange = "2023-04-14 15:33:05 +0000";
layers = (
{
components = (
{
name = C;
}
);
layerId = master01;
paths = (
{
closed = 1;
nodes = (
"496 1024 LINE",
"496 1248 LINE SMOOTH",
"496 1333 OFFCURVE",
"526 1405 OFFCURVE",
"586 1465 CURVE SMOOTH",
"646 1525 OFFCURVE",
"718 1555 OFFCURVE",
"803 1555 CURVE",
"803 1350 LINE",
"774 1350 OFFCURVE",
"750 1340 OFFCURVE",
"730 1321 CURVE SMOOTH",
"711 1301 OFFCURVE",
"701 1277 OFFCURVE",
"701 1248 CURVE SMOOTH",
"701 1024 LINE"
);
}
);
width = 761;
}
);
unicode = 0187;
},
{
glyphname = D;
lastChange = "2023-05-03 16:12:38 +0000";
layers = (
{
layerId = master01;
paths = (
{
closed = 1;
nodes = (
"508 1434 LINE SMOOTH",
"564 1434 OFFCURVE",
"611.834 1414.17 OFFCURVE",
"651.5 1374.5 CURVE SMOOTH",
"691.168 1334.83 OFFCURVE",
"711.001 1286.33 OFFCURVE",
"711 1229 CURVE SMOOTH",
"711 203 LINE SMOOTH",
"711 147 OFFCURVE",
"691.167 99.167 OFFCURVE",
"651.5 59.5 CURVE SMOOTH",
"611.833 19.833 OFFCURVE",
"564 0 OFFCURVE",
"508 0 CURVE SMOOTH",
"98 0 LINE",
"98 1434 LINE"
);
},
{
closed = 1;
nodes = (
"301 203 LINE",
"430 203 LINE SMOOTH",
"452 203 OFFCURVE",
"470.5 210.5 OFFCURVE",
"485.5 225.5 CURVE SMOOTH",
"500.5 240.5 OFFCURVE",
"508 259 OFFCURVE",
"508 281 CURVE SMOOTH",
"508 1153 LINE SMOOTH",
"508 1175 OFFCURVE",
"500.5 1193.5 OFFCURVE",
"485.5 1208.5 CURVE SMOOTH",
"470.5 1223.5 OFFCURVE",
"452 1231 OFFCURVE",
"430 1231 CURVE SMOOTH",
"301 1231 LINE"
);
}
);
userData = {
com.fontlab.hintData = {
hhints = (
{
position = 0;
width = 203;
},
{
position = 1231;
width = 203;
}
);
vhints = (
{
position = 98;
width = 203;
},
{
position = 508;
width = 203;
}
);
};
};
width = 808;
}
);
unicode = 0044;
},
{
glyphname = Dhook;
lastChange = "2023-04-14 15:31:25 +0000";
layers = (
{
components = (
{
name = D;
}
);
layerId = master01;
paths = (
{
closed = 1;
nodes = (
"98 1231 LINE SMOOTH",
"69 1231 OFFCURVE",
"45 1219 OFFCURVE",
"25 1200 CURVE SMOOTH",
"6 1180 OFFCURVE",
"-4 1156 OFFCURVE",
"-4 1127 CURVE",
"-209 1127 LINE",
"-209 1212 OFFCURVE",
"-179 1284 OFFCURVE",
"-119 1344 CURVE SMOOTH",
"-59 1404 OFFCURVE",
"13 1434 OFFCURVE",
"98 1434 CURVE SMOOTH",
"322 1434 LINE",
"322 1231 LINE"
);
}
);
width = 808;
}
);
unicode = 018A;
},
{
glyphname = E;
lastChange = "2023-05-03 16:12:38 +0000";
layers = (
{
layerId = master01;
paths = (
{
closed = 1;
nodes = (
"98 1434 LINE",
"713 1434 LINE",
"713 1229 LINE",
"303 1229 LINE",
"303 819 LINE",
"610 819 LINE",
"610 614 LINE",
"303 614 LINE",
"303 205 LINE",
"713 205 LINE",
"713 0 LINE",
"98 0 LINE"
);
}
);
userData = {
com.fontlab.hintData = {
hhints = (
{
position = 0;
width = 205;
},
{
position = 614;
width = 205;
},
{
position = 1229;
width = 205;
}
);
vhints = (
{
position = 98;
width = 615;
},
{
position = 98;
width = 205;
}
);
};
};
width = 749;
}
);
unicode = 0045;
},
{
glyphname = Eacute;
lastChange = "2023-03-27 09:43:58 +0000";
layers = (
{
components = (
{
name = acutecomb;
transform = "{1, 0, 0, 1, 216, 313}";
}
);
layerId = master01;
paths = (
{
closed = 1;
nodes = (
"98 1434 LINE",
"713 1434 LINE",
"713 1229 LINE",
"303 1229 LINE",
"303 819 LINE",
"610 819 LINE",
"610 614 LINE",
"303 614 LINE",
"303 205 LINE",
"713 205 LINE",
"713 0 LINE",
"98 0 LINE"
);
}
);
userData = {
com.fontlab.hintData = {
hhints = (
{
position = 0;
width = 205;
},
{
position = 614;
width = 205;
},
{
position = 1229;
width = 205;
},
{
position = 1554;
width = 238;
}
);
vhints = (
{
position = 98;
width = 615;
},
{
position = 98;
width = 205;
},
{
position = 297;
width = 364;
}
);
};
};
width = 749;
}
);
leftMetricsKey = E;
rightMetricsKey = E;
unicode = 00C9;
},
{
glyphname = Ecircumflex;
lastChange = "2023-03-27 10:48:19 +0000";
layers = (
{
components = (
{
name = asciicircum;
transform = "{1, 0, 0, 1, 40, 314}";
}
);
layerId = master01;
paths = (
{
closed = 1;
nodes = (
"98 1434 LINE",
"713 1434 LINE",
"713 1229 LINE",
"303 1229 LINE",
"303 819 LINE",
"610 819 LINE",
"610 614 LINE",
"303 614 LINE",
"303 205 LINE",
"713 205 LINE",
"713 0 LINE",
"98 0 LINE"
);
}
);
userData = {
com.fontlab.hintData = {
hhints = (
{
position = 0;
width = 205;
},
{
position = 614;
width = 205;
},
{
position = 1229;
width = 205;
},
{
position = 1573;
width = 221;
}
);
vhints = (
{
position = 98;
width = 615;
},
{
position = 98;
width = 205;
},
{
position = 110;
width = 567;
}
);
};
};
width = 749;
}
);
leftMetricsKey = E;
rightMetricsKey = E;
unicode = 00CA;
},
{
glyphname = Edieresis;
lastChange = "2023-03-27 09:00:26 +0000";
layers = (
{
components = (
{
name = dieresiscomb;
transform = "{1, 0, 0, 1, 61, 309}";
}
);
layerId = master01;
paths = (
{
closed = 1;
nodes = (
"98 1434 LINE",
"713 1434 LINE",
"713 1229 LINE",
"303 1229 LINE",
"303 819 LINE",
"610 819 LINE",
"610 614 LINE",
"303 614 LINE",
"303 205 LINE",
"713 205 LINE",
"713 0 LINE",
"98 0 LINE"
);
}
);
userData = {
com.fontlab.hintData = {
hhints = (
{
position = 0;
width = 205;
},
{
position = 614;
width = 205;
},
{
position = 1229;
width = 205;
},
{
position = 1641;
width = 203;
}
);
vhints = (
{
position = 98;
width = 615;
},
{
position = 98;
width = 205;
},
{
position = 107;
width = 202;
},
{
position = 516;
width = 203;
}
);
};
};
width = 750;
}
);
leftMetricsKey = E;
rightMetricsKey = E;
unicode = 00CB;
},
{
glyphname = Egrave;
lastChange = "2023-03-27 11:10:08 +0000";
layers = (
{
components = (
{
name = grave;
transform = "{1, 0, 0, 1, 133, 314}";
}
);
layerId = master01;
paths = (
{
closed = 1;
nodes = (
"98 1434 LINE",
"713 1434 LINE",
"713 1229 LINE",
"303 1229 LINE",
"303 819 LINE",
"610 819 LINE",
"610 614 LINE",
"303 614 LINE",
"303 205 LINE",
"713 205 LINE",
"713 0 LINE",
"98 0 LINE"
);
}
);
userData = {
com.fontlab.hintData = {
hhints = (
{
position = 0;
width = 205;
},
{
position = 614;
width = 205;
},
{
position = 1229;
width = 205;
},
{
position = 1549;
width = 238;
}
);
vhints = (
{
position = 98;
width = 615;
},
{
position = 98;
width = 205;
},
{
position = 154;
width = 364;
}
);
};
};
width = 749;
}
);
leftMetricsKey = E;
rightMetricsKey = E;
unicode = 00C8;
},
{
glyphname = Eopen;
lastChange = "2023-05-03 11:03:42 +0000";
layers = (
{
layerId = master01;
paths = (
{
closed = 1;
nodes = (
"462 1434 OFFCURVE",
"534 1404 OFFCURVE",
"594 1344 CURVE SMOOTH",
"654 1283 OFFCURVE",
"684 1211 OFFCURVE",
"684 1126 CURVE SMOOTH",
"684 1024 LINE",
"480 1024 LINE",
"480 1126 LINE SMOOTH",
"480 1155 OFFCURVE",
"470 1179 OFFCURVE",
"450 1199 CURVE SMOOTH",
"430 1219 OFFCURVE",
"406 1229 OFFCURVE",
"377 1229 CURVE SMOOTH",
"348 1229 OFFCURVE",
"324 1219 OFFCURVE",
"305 1199 CURVE SMOOTH",
"285 1179 OFFCURVE",
"275 1155 OFFCURVE",
"275 1126 CURVE SMOOTH",
"275 922 LINE SMOOTH",
"275 893 OFFCURVE",
"285 869 OFFCURVE",
"305 849 CURVE SMOOTH",
"324 829 OFFCURVE",
"348 819 OFFCURVE",
"377 819 CURVE",
"377 614 LINE",
"348 614 OFFCURVE",
"324 604 OFFCURVE",
"305 585 CURVE SMOOTH",
"285 565 OFFCURVE",
"275 541 OFFCURVE",
"275 512 CURVE SMOOTH",
"275 307 LINE SMOOTH",
"275 278 OFFCURVE",
"285 254 OFFCURVE",
"305 235 CURVE SMOOTH",
"324 215 OFFCURVE",
"348 205 OFFCURVE",
"377 205 CURVE SMOOTH",
"406 205 OFFCURVE",
"430 215 OFFCURVE",
"450 235 CURVE SMOOTH",
"470 254 OFFCURVE",
"480 278 OFFCURVE",
"480 307 CURVE SMOOTH",
"480 410 LINE",
"684 410 LINE",
"684 307 LINE SMOOTH",
"684 222 OFFCURVE",
"654 150 OFFCURVE",
"594 90 CURVE SMOOTH",
"534 30 OFFCURVE",
"462 0 OFFCURVE",
"377 0 CURVE SMOOTH",
"292 0 OFFCURVE",
"220 30 OFFCURVE",
"160 90 CURVE SMOOTH",
"100 150 OFFCURVE",
"70 222 OFFCURVE",
"70 307 CURVE SMOOTH",
"70 512 LINE SMOOTH",
"70 590 OFFCURVE",
"96 658 OFFCURVE",
"148 717 CURVE",
"96 776 OFFCURVE",
"70 844 OFFCURVE",
"70 922 CURVE SMOOTH",
"70 1126 LINE SMOOTH",
"70 1211 OFFCURVE",
"100 1283 OFFCURVE",
"160 1344 CURVE SMOOTH",
"220 1404 OFFCURVE",
"292 1434 OFFCURVE",
"377 1434 CURVE SMOOTH"
);
}
);
width = 753;
}
);
unicode = 0190;
},
{
glyphname = Esh;
lastChange = "2023-05-03 11:06:23 +0000";
layers = (
{
layerId = master01;
paths = (
{
closed = 1;
nodes = (
"98 205 LINE",
"426 717 LINE",
"98 1229 LINE",
"98 1434 LINE",
"713 1434 LINE",
"713 1229 LINE",
"347 1229 LINE",
"610 819 LINE",
"610 614 LINE",
"347 205 LINE",
"713 205 LINE",
"713 0 LINE",
"98 0 LINE"
);
}
);
width = 749;
}
);
unicode = 01A9;
},
{
glyphname = Ezh;
lastChange = "2023-05-03 14:06:21 +0000";
layers = (
{
layerId = master01;
paths = (
{
closed = 1;
nodes = (
"683 1229 LINE",
"683 1434 LINE",
"71 1434 LINE",
"71 1229 LINE",
"480 1229 LINE",
"316 817 LINE",
"508 797 LINE"
);
},
{
closed = 1;
nodes = (
"559 771 OFFCURVE",
"585 755 OFFCURVE",
"616 719 CURVE SMOOTH",
"667 660 OFFCURVE",
"684 590 OFFCURVE",
"684 512 CURVE SMOOTH",
"684 307 LINE SMOOTH",
"684 222 OFFCURVE",
"654 150 OFFCURVE",
"594 90 CURVE SMOOTH",
"534 30 OFFCURVE",
"462 0 OFFCURVE",
"377 0 CURVE SMOOTH",
"292 0 OFFCURVE",
"220 30 OFFCURVE",
"160 90 CURVE SMOOTH",
"100 150 OFFCURVE",
"70 222 OFFCURVE",
"70 307 CURVE SMOOTH",
"70 410 LINE",
"274 410 LINE",
"274 307 LINE SMOOTH",
"274 278 OFFCURVE",
"284 254 OFFCURVE",
"304 235 CURVE SMOOTH",
"324 215 OFFCURVE",
"348 205 OFFCURVE",
"377 205 CURVE SMOOTH",
"406 205 OFFCURVE",
"430 215 OFFCURVE",
"450 235 CURVE SMOOTH",
"469 254 OFFCURVE",
"479 278 OFFCURVE",
"479 307 CURVE SMOOTH",
"479 512 LINE SMOOTH",
"479 541 OFFCURVE",
"471 567 OFFCURVE",
"450 585 CURVE SMOOTH",
"416 614 OFFCURVE",
"375 614 OFFCURVE",
"316 614 CURVE",
"316 817 LINE",
"508 797 LINE"
);
}
);
width = 753;
}
);
unicode = 01B7;
},
{
glyphname = F;
lastChange = "2023-05-03 16:12:38 +0000";
layers = (
{
layerId = master01;
paths = (
{
closed = 1;
nodes = (
"98 0 LINE",
"303 0 LINE",
"303 614 LINE",
"610 614 LINE",
"610 819 LINE",
"303 819 LINE",
"303 1229 LINE",
"713 1229 LINE",
"713 1434 LINE",
"98 1434 LINE"
);
}
);
userData = {
com.fontlab.hintData = {
vhints = (
{
position = 98;
width = 615;
}
);
};
};
width = 749;
}
);
unicode = 0046;
},
{
glyphname = Fhook;
lastChange = "2023-04-14 15:36:20 +0000";
layers = (
{
components = (
{
name = F;
}
);
layerId = master01;
paths = (
{
closed = 1;
nodes = (
"98 0 LINE SMOOTH",
"98 -29 OFFCURVE",
"88 -53 OFFCURVE",
"69 -73 CURVE SMOOTH",
"49 -92 OFFCURVE",
"25 -102 OFFCURVE",
"-4 -102 CURVE",
"-4 -307 LINE",
"81 -307 OFFCURVE",
"153 -277 OFFCURVE",
"213 -217 CURVE SMOOTH",
"273 -157 OFFCURVE",
"303 -85 OFFCURVE",
"303 0 CURVE SMOOTH",
"303 224 LINE",
"98 224 LINE"
);
}
);
width = 749;
}
);
unicode = 0191;
},
{
glyphname = G;
lastChange = "2023-05-03 16:12:38 +0000";
layers = (
{
layerId = master01;
paths = (
{
closed = 1;
nodes = (
"477.667 1434 OFFCURVE",
"550 1403.83 OFFCURVE",
"610 1343.5 CURVE SMOOTH",
"670 1283.17 OFFCURVE",
"700 1210.67 OFFCURVE",
"700 1126 CURVE",
"496 1126 LINE",
"496 1154.67 OFFCURVE",
"486 1179 OFFCURVE",
"466 1199 CURVE SMOOTH",
"446 1219 OFFCURVE",
"421.666 1229 OFFCURVE",
"393 1229 CURVE SMOOTH",
"364.333 1229 OFFCURVE",
"340.166 1219 OFFCURVE",
"320.5 1199 CURVE SMOOTH",
"300.833 1179 OFFCURVE",
"291 1154.67 OFFCURVE",
"291 1126 CURVE SMOOTH",
"291 307 LINE SMOOTH",
"291 278.333 OFFCURVE",
"300.833 254.167 OFFCURVE",
"320.5 234.5 CURVE SMOOTH",
"340.167 214.833 OFFCURVE",
"364.333 205 OFFCURVE",
"393 205 CURVE SMOOTH",
"421.667 205 OFFCURVE",
"446 214.833 OFFCURVE",
"466 234.5 CURVE SMOOTH",
"486 254.167 OFFCURVE",
"496 278.333 OFFCURVE",
"496 307 CURVE SMOOTH",
"496 614 LINE",
"393 614 LINE",
"393 819 LINE",
"700 819 LINE",
"700 307 LINE SMOOTH",
"700 222.333 OFFCURVE",
"670 150 OFFCURVE",
"610 90 CURVE SMOOTH",
"550 30 OFFCURVE",
"477.666 0 OFFCURVE",
"393 0 CURVE SMOOTH",
"308.333 0 OFFCURVE",
"236 30 OFFCURVE",
"176 90 CURVE SMOOTH",
"116 150 OFFCURVE",
"86 222.333 OFFCURVE",
"86 307 CURVE SMOOTH",
"86 1126 LINE SMOOTH",
"86 1210.67 OFFCURVE",
"116 1283.17 OFFCURVE",
"176 1343.5 CURVE SMOOTH",
"236 1403.84 OFFCURVE",
"308.333 1434 OFFCURVE",
"393 1434 CURVE SMOOTH"
);
}
);
userData = {
com.fontlab.hintData = {
hhints = (
{
position = 0;
width = 205;
},
{
position = 614;
width = 205;
},
{
position = 1229;
width = 205;
}
);
vhints = (
{
position = 86;
width = 205;
},
{
position = 393;
width = 307;
},
{
position = 496;
width = 204;
}
);
};
};
width = 786;
}
);
unicode = 0047;
},
{
glyphname = Ghook;
lastChange = "2023-04-14 15:37:46 +0000";
layers = (
{
components = (
{
name = G;
}
);
layerId = master01;
paths = (
{
closed = 1;
nodes = (
"496 1126 LINE",
"496 1350 LINE SMOOTH",
"496 1435 OFFCURVE",
"526 1507 OFFCURVE",
"586 1567 CURVE SMOOTH",
"646 1627 OFFCURVE",
"718 1657 OFFCURVE",
"803 1657 CURVE",
"803 1452 LINE",
"774 1452 OFFCURVE",
"750 1442 OFFCURVE",
"730 1423 CURVE SMOOTH",
"711 1403 OFFCURVE",
"701 1379 OFFCURVE",
"701 1350 CURVE SMOOTH",
"701 1126 LINE"
);
}
);
width = 786;
}
);
unicode = 0193;
},
{
glyphname = H;
lastChange = "2023-05-03 16:12:38 +0000";
layers = (
{
layerId = master01;
paths = (
{
closed = 1;
nodes = (
"303 1434 LINE",
"303 819 LINE",
"508 819 LINE",
"508 1434 LINE",
"713 1434 LINE",
"713 0 LINE",
"508 0 LINE",
"508 614 LINE",
"303 614 LINE",
"303 0 LINE",
"98 0 LINE",
"98 1434 LINE"
);
}
);
userData = {
com.fontlab.hintData = {
hhints = (
{
position = 0;
width = 21;
},
{
position = 614;
width = 205;
},
{
position = 1414;
width = 20;
}
);
vhints = (
{
position = 98;
width = 205;
},
{
position = 508;
width = 205;
}
);
};
};
width = 811;
}
);
unicode = 0048;
},
{
glyphname = Hbar;
lastChange = "2023-03-27 11:32:19 +0000";
layers = (
{
components = (
{
name = H;
transform = "{1, 0, 0, 1, 98, 0}";
}
);
layerId = master01;
paths = (
{
closed = 1;
nodes = (
"909 1188 LINE",
"909 1024 LINE",
"98 1024 LINE",
"98 1188 LINE"
);
}
);
width = 1007;
}
);
leftMetricsKey = H;
rightMetricsKey = H;
unicode = 0126;
},
{
glyphname = Hhook;
lastChange = "2023-04-14 15:37:14 +0000";
layers = (
{
components = (
{
name = H;
}
);
layerId = master01;
paths = (
{
closed = 1;
nodes = (
"98 1229 LINE SMOOTH",
"69 1229 OFFCURVE",
"45 1219 OFFCURVE",
"25 1200 CURVE SMOOTH",
"6 1180 OFFCURVE",
"-4 1156 OFFCURVE",
"-4 1127 CURVE",
"-209 1127 LINE",
"-209 1212 OFFCURVE",
"-179 1284 OFFCURVE",
"-119 1344 CURVE SMOOTH",
"-59 1404 OFFCURVE",
"13 1434 OFFCURVE",
"98 1434 CURVE SMOOTH",
"303 1434 LINE",
"303 1229 LINE"
);
}
);
width = 811;
}
);
unicode = A7AA;
},
{
glyphname = Hturned;
lastChange = "2023-04-14 15:38:17 +0000";
layers = (
{
layerId = master01;
paths = (
{
closed = 1;
nodes = (
"303 1434 LINE",
"303 819 LINE",
"508 819 LINE",
"508 1434 LINE",
"713 1434 LINE",
"713 0 LINE",
"508 0 LINE",
"508 614 LINE",
"98 614 LINE",
"98 1434 LINE"
);
}
);
width = 811;
}
);
unicode = A78D;
},
{
glyphname = I;
lastChange = "2023-05-03 16:12:38 +0000";
layers = (
{
layerId = master01;
paths = (
{
closed = 1;
nodes = (
"104 0 LINE",
"104 1434 LINE",
"309 1434 LINE",
"309 0 LINE"
);
}
);
userData = {
com.fontlab.hintData = {
hhints = (
{
position = 0;
width = 21;
},
{
position = 1414;
width = 20;
}
);
vhints = (
{
position = 104;
width = 205;
}
);
};
};
width = 413;
}
);
unicode = 0049;
},
{
glyphname = Iacute;
lastChange = "2023-03-27 09:45:28 +0000";
layers = (
{
components = (
{
name = acutecomb;
transform = "{1, 0, 0, 1, 64, 313}";
}
);
layerId = master01;
paths = (
{
closed = 1;
nodes = (
"118 0 LINE",
"118 1434 LINE",
"323 1434 LINE",
"323 0 LINE"
);
}
);
userData = {
com.fontlab.hintData = {
hhints = (
{
position = 0;
width = 21;
},
{
position = 1414;
width = 20;
},
{
position = 1619;
width = 238;
}
);
vhints = (
{
position = 100;
width = 364;
},
{
position = 104;
width = 205;
}
);
};
};
width = 572;
}
);
leftMetricsKey = I;
rightMetricsKey = I;
unicode = 00CD;
},
{
glyphname = Icircumflex;
lastChange = "2023-03-27 10:48:36 +0000";
layers = (
{
components = (
{
name = asciicircum;
transform = "{1, 0, 0, 1, 27, 314}";
}
);
layerId = master01;
paths = (
{
closed = 1;
nodes = (
"275 0 LINE",
"275 1434 LINE",
"480 1434 LINE",
"480 0 LINE"
);
}
);
userData = {
com.fontlab.hintData = {
hhints = (
{
position = 0;
width = 21;
},
{
position = 1414;
width = 20;
},
{
position = 1632;
width = 221;
}
);
vhints = (
{
position = -73;
width = 567;
},
{
position = 98;
width = 205;
}
);
};
};
width = 775;
}
);
leftMetricsKey = I;
rightMetricsKey = I;
unicode = 00CE;
},
{
glyphname = Idieresis;
lastChange = "2023-03-27 09:00:52 +0000";
layers = (
{
components = (
{
name = dieresiscomb;
transform = "{1, 0, 0, 1, 64, 309}";
}
);
layerId = master01;
paths = (
{
closed = 1;
nodes = (
"512 1434 LINE",
"512 0 LINE",
"307 0 LINE",
"307 1434 LINE"
);
}
);
userData = {
com.fontlab.hintData = {
hhints = (
{
position = 0;
width = 21;
},
{
position = 1414;
width = 20;
},
{
position = 1641;
width = 203;
}
);
vhints = (
{
position = -62;
width = 202;
},
{
position = 137;
width = 205;
},
{
position = 347;
width = 203;
}
);
};
};
width = 821;
}
);
leftMetricsKey = I;
rightMetricsKey = I;
unicode = 00CF;
},
{
glyphname = Igrave;
lastChange = "2023-03-27 11:10:15 +0000";
layers = (
{
components = (
{
name = grave;
transform = "{1, 0, 0, 1, 64, 314}";
}
);
layerId = master01;
paths = (
{
closed = 1;
nodes = (
"205 0 LINE",
"205 1434 LINE",
"410 1434 LINE",
"410 0 LINE"
);
}
);
userData = {
com.fontlab.hintData = {
hhints = (
{
position = 0;
width = 21;
},
{
position = 1414;
width = 20;
},
{
position = 1618;
width = 238;
}
);
vhints = (
{
position = -45;
width = 364;
},
{
position = 104;
width = 205;
}
);
};
};
width = 572;
}
);
leftMetricsKey = I;
rightMetricsKey = I;
unicode = 00CC;
},
{
glyphname = Iotaafrican;
lastChange = "2023-04-14 15:40:38 +0000";
layers = (
{
layerId = master01;
paths = (
{
closed = 1;
nodes = (
"309 307 LINE SMOOTH",
"309 278 OFFCURVE",
"319 254 OFFCURVE",
"338 234 CURVE SMOOTH",
"358 215 OFFCURVE",
"382 205 OFFCURVE",
"411 205 CURVE",
"411 0 LINE",
"326 0 OFFCURVE",
"254 30 OFFCURVE",
"194 90 CURVE SMOOTH",
"134 150 OFFCURVE",
"104 222 OFFCURVE",
"104 307 CURVE SMOOTH",
"104 531 LINE",
"309 531 LINE"
);
},
{
closed = 1;
nodes = (
"104 400 LINE",
"104 1434 LINE",
"309 1434 LINE",
"309 400 LINE"
);
}
);
width = 413;
}
);
unicode = 0196;
},
{
glyphname = J;
lastChange = "2023-05-03 16:12:38 +0000";
layers = (
{
layerId = master01;
paths = (
{
closed = 1;
nodes = (
"365 1434 LINE",
"365 205 LINE SMOOTH",
"365 149 OFFCURVE",
"344.833 100.833 OFFCURVE",
"304.5 60.5 CURVE SMOOTH",
"264.167 20.167 OFFCURVE",
"216 0 OFFCURVE",
"160 0 CURVE SMOOTH",
"-45 0 LINE",
"-45 205 LINE",
"57 205 LINE SMOOTH",
"85.667 205 OFFCURVE",
"110 214.833 OFFCURVE",
"130 234.5 CURVE SMOOTH",
"150 254.167 OFFCURVE",
"160 278.333 OFFCURVE",
"160 307 CURVE SMOOTH",
"160 1434 LINE"
);
}
);
userData = {
com.fontlab.hintData = {
hhints = (
{
position = 0;
width = 205;
},
{
position = 1414;
width = 20;
}
);
vhints = (
{
position = 160;
width = 205;
}
);
};
};
width = 462;
}
);
unicode = 004A;
},
{
glyphname = K;
lastChange = "2023-05-03 16:12:38 +0000";
layers = (
{
layerId = master01;
paths = (
{
closed = 1;
nodes = (
"303 1434 LINE",
"303 922 LINE",
"508 1434 LINE",
"713 1434 LINE",
"477 844 LINE",
"713 0 LINE",
"508 0 LINE",
"354 537 LINE",
"303 410 LINE",
"303 0 LINE",
"98 0 LINE",
"98 1434 LINE"
);
}
);
userData = {
com.fontlab.hintData = {
hhints = (
{
position = 0;
width = 21;
},
{
position = 1414;
width = 20;
}
);
vhints = (
{
position = 98;
width = 205;
}
);
};
};
width = 706;
}
);
unicode = 004B;
},
{
glyphname = Khook;
lastChange = "2023-04-14 15:39:53 +0000";
layers = (
{
layerId = master01;
paths = (
{
closed = 1;
nodes = (
"347 1032 LINE",
"431 1242 LINE SMOOTH",
"463 1321 OFFCURVE",
"518 1376 OFFCURVE",
"596 1410 CURVE SMOOTH",
"674 1443 OFFCURVE",
"752 1443 OFFCURVE",
"830 1412 CURVE",
"753 1222 LINE",
"727 1233 OFFCURVE",
"688 1237 OFFCURVE",
"662 1227 CURVE SMOOTH",
"637 1216 OFFCURVE",
"619 1197 OFFCURVE",
"608 1171 CURVE SMOOTH",
"524 963 LINE"
);
},
{
closed = 1;
nodes = (
"303 1434 LINE",
"303 922 LINE",
"347 1032 LINE",
"713 1434 LINE",
"477 844 LINE",
"713 0 LINE",
"508 0 LINE",
"354 537 LINE",
"303 410 LINE",
"303 0 LINE",
"98 0 LINE",
"98 1434 LINE"
);
}
);
width = 706;
}
);
unicode = 0198;
},
{
glyphname = L;
lastChange = "2023-05-03 16:12:38 +0000";
layers = (
{
layerId = master01;
paths = (
{
closed = 1;
nodes = (
"98 1434 LINE",
"303 1434 LINE",
"303 205 LINE",
"713 205 LINE",
"713 0 LINE",
"98 0 LINE"
);
}
);
userData = {
com.fontlab.hintData = {
hhints = (
{
position = 0;
width = 205;
},
{
position = 1414;
width = 20;
}
);
vhints = (
{
position = 98;
width = 205;
}
);
};
};
width = 749;
}
);
unicode = 004C;
},
{
glyphname = Lslash;
lastChange = "2023-03-27 12:30:29 +0000";
layers = (
{
components = (
{
name = L;
transform = "{1, 0, 0, 1, 156, 0}";
}
);
layerId = master01;
paths = (
{
closed = 1;
nodes = (
"620 924 LINE",
"620 760 LINE",
"98 560 LINE",
"98 724 LINE"
);
}
);
width = 905;
}
);
leftMetricsKey = L;
rightMetricsKey = L;
unicode = 0141;
},
{
glyphname = M;
lastChange = "2023-05-03 16:12:38 +0000";
layers = (
{
layerId = master01;
paths = (
{
closed = 1;
nodes = (
"303 768 LINE",
"303 0 LINE",
"98 0 LINE",
"98 1434 LINE",
"303 1434 LINE",
"559 666 LINE",
"815 1434 LINE",
"1020 1434 LINE",
"1020 0 LINE",
"815 0 LINE",
"815 768 LINE",
"662 307 LINE",
"457 307 LINE"
);
}
);
userData = {
com.fontlab.hintData = {
hhints = (
{
position = 0;
width = 21;
},
{
position = 1414;
width = 20;
}
);
vhints = (
{
position = 98;
width = 205;
},
{
position = 815;
width = 205;
}
);
};
};
width = 1118;
}
);
unicode = 004D;
},
{
glyphname = N;
lastChange = "2023-05-03 16:12:38 +0000";
layers = (
{
layerId = master01;
paths = (
{
closed = 1;
nodes = (
"295 1434 LINE",
"500 717 LINE",
"500 1434 LINE",
"705 1434 LINE",
"705 0 LINE",
"500 0 LINE",
"295 717 LINE",
"295 0 LINE",
"90 0 LINE",
"90 1434 LINE"
);
}
);
userData = {
com.fontlab.hintData = {
hhints = (
{
position = 0;
width = 21;
},
{
position = 1414;
width = 20;
}
);
vhints = (
{
position = 90;
width = 205;
},
{
position = 500;
width = 205;
}
);
};
};
width = 794;
}
);
unicode = 004E;
},
{
glyphname = Eng;
lastChange = "2023-03-27 12:28:10 +0000";
layers = (
{
layerId = master01;
paths = (
{
closed = 1;
nodes = (
"295 1434 LINE",
"500 717 LINE",
"500 1434 LINE",
"705 1434 LINE",
"705 0 LINE",
"500 0 LINE",
"295 717 LINE",
"295 0 LINE",
"90 0 LINE",
"90 1434 LINE"
);
},
{
closed = 1;
nodes = (
"704 1074 LINE",
"704 -155 LINE SMOOTH",
"704 -211 OFFCURVE",
"684 -259 OFFCURVE",
"644 -299 CURVE SMOOTH",
"603 -340 OFFCURVE",
"555 -360 OFFCURVE",
"499 -360 CURVE SMOOTH",
"294 -360 LINE",
"294 -155 LINE",
"396 -155 LINE SMOOTH",
"425 -155 OFFCURVE",
"449 -145 OFFCURVE",
"469 -125 CURVE SMOOTH",
"489 -106 OFFCURVE",
"499 -82 OFFCURVE",
"499 -53 CURVE SMOOTH",
"499 1074 LINE"
);
}
);
width = 802;
}
);
leftMetricsKey = N;
rightMetricsKey = J;
unicode = 014A;
},
{
glyphname = Nhookleft;
lastChange = "2023-04-14 15:40:59 +0000";
layers = (
{
components = (
{
name = N;
}
);
layerId = master01;
paths = (
{
closed = 1;
nodes = (
"295 224 LINE",
"295 0 LINE SMOOTH",
"295 -85 OFFCURVE",
"265 -157 OFFCURVE",
"205 -217 CURVE SMOOTH",
"145 -277 OFFCURVE",
"73 -307 OFFCURVE",
"-12 -307 CURVE",
"-12 -102 LINE",
"17 -102 OFFCURVE",
"41 -92 OFFCURVE",
"61 -73 CURVE SMOOTH",
"80 -53 OFFCURVE",
"90 -29 OFFCURVE",
"90 0 CURVE SMOOTH",
"90 224 LINE"
);
}
);
width = 794;
}
);
unicode = 019D;
},
{
glyphname = O;
lastChange = "2023-05-03 16:12:38 +0000";
layers = (
{
layerId = master01;
paths = (
{
closed = 1;
nodes = (
"477.667 1434 OFFCURVE",
"550 1403.83 OFFCURVE",
"610 1343.5 CURVE SMOOTH",
"670 1283.17 OFFCURVE",
"700 1210.67 OFFCURVE",
"700 1126 CURVE SMOOTH",
"700 307 LINE SMOOTH",
"700 222.333 OFFCURVE",
"670 150 OFFCURVE",
"610 90 CURVE SMOOTH",
"550 30 OFFCURVE",
"477.666 0 OFFCURVE",
"393 0 CURVE SMOOTH",
"308.333 0 OFFCURVE",
"236 30 OFFCURVE",
"176 90 CURVE SMOOTH",
"116 150 OFFCURVE",
"86 222.333 OFFCURVE",
"86 307 CURVE SMOOTH",
"86 1126 LINE SMOOTH",
"86 1210.67 OFFCURVE",
"116 1283.17 OFFCURVE",
"176 1343.5 CURVE SMOOTH",
"236 1403.84 OFFCURVE",
"308.333 1434 OFFCURVE",
"393 1434 CURVE SMOOTH"
);
},
{
closed = 1;
nodes = (
"364.333 1229 OFFCURVE",
"340.166 1219 OFFCURVE",
"320.5 1199 CURVE SMOOTH",
"300.833 1179 OFFCURVE",
"291 1154.67 OFFCURVE",
"291 1126 CURVE SMOOTH",
"291 836 LINE",
"291 596 LINE",
"291 307 LINE SMOOTH",
"291 278.333 OFFCURVE",
"300.833 254.167 OFFCURVE",
"320.5 234.5 CURVE SMOOTH",
"340.167 214.833 OFFCURVE",
"364.333 205 OFFCURVE",
"393 205 CURVE SMOOTH",
"421.667 205 OFFCURVE",
"446 214.833 OFFCURVE",
"466 234.5 CURVE SMOOTH",
"486 254.167 OFFCURVE",
"496 278.333 OFFCURVE",
"496 307 CURVE SMOOTH",
"496 596 LINE",
"496 836 LINE",
"496 1126 LINE SMOOTH",
"496 1154.67 OFFCURVE",
"486 1179 OFFCURVE",
"466 1199 CURVE SMOOTH",
"446 1219 OFFCURVE",
"421.666 1229 OFFCURVE",
"393 1229 CURVE SMOOTH"
);
}
);
userData = {
com.fontlab.hintData = {
hhints = (
{
position = 0;
width = 205;
},
{
position = 1229;
width = 205;
}
);
vhints = (
{
position = 86;
width = 205;
},
{
position = 496;
width = 204;
}
);
};
};
width = 786;
}
);
unicode = 004F;
},
{
glyphname = Oacute;
lastChange = "2023-03-27 12:11:41 +0000";
layers = (
{
components = (
{
name = acutecomb;
transform = "{1, 0, 0, 1, 220, 313}";
}
);
layerId = master01;
paths = (
{
closed = 1;
nodes = (
"478 1434 OFFCURVE",
"550 1404 OFFCURVE",
"610 1344 CURVE SMOOTH",
"670 1283 OFFCURVE",
"700 1211 OFFCURVE",
"700 1126 CURVE SMOOTH",
"700 307 LINE SMOOTH",
"700 222 OFFCURVE",
"670 150 OFFCURVE",
"610 90 CURVE SMOOTH",
"550 30 OFFCURVE",
"478 0 OFFCURVE",
"393 0 CURVE SMOOTH",
"308 0 OFFCURVE",
"236 30 OFFCURVE",
"176 90 CURVE SMOOTH",
"116 150 OFFCURVE",
"86 222 OFFCURVE",
"86 307 CURVE SMOOTH",
"86 1126 LINE SMOOTH",
"86 1211 OFFCURVE",
"116 1283 OFFCURVE",
"176 1344 CURVE SMOOTH",
"236 1404 OFFCURVE",
"308 1434 OFFCURVE",
"393 1434 CURVE SMOOTH"
);
},
{
closed = 1;
nodes = (
"364 1229 OFFCURVE",
"340 1219 OFFCURVE",
"321 1199 CURVE SMOOTH",
"301 1179 OFFCURVE",
"291 1155 OFFCURVE",
"291 1126 CURVE SMOOTH",
"291 836 LINE",
"291 596 LINE",
"291 307 LINE SMOOTH",
"291 278 OFFCURVE",
"301 254 OFFCURVE",
"321 235 CURVE SMOOTH",
"340 215 OFFCURVE",
"364 205 OFFCURVE",
"393 205 CURVE SMOOTH",
"422 205 OFFCURVE",
"446 215 OFFCURVE",
"466 235 CURVE SMOOTH",
"486 254 OFFCURVE",
"496 278 OFFCURVE",
"496 307 CURVE SMOOTH",
"496 596 LINE",
"496 836 LINE",
"496 1126 LINE SMOOTH",
"496 1155 OFFCURVE",
"486 1179 OFFCURVE",
"466 1199 CURVE SMOOTH",
"446 1219 OFFCURVE",
"422 1229 OFFCURVE",
"393 1229 CURVE SMOOTH"
);
}
);
userData = {
com.fontlab.hintData = {
hhints = (
{
position = 0;
width = 205;
},
{
position = 1229;
width = 205;
},
{
position = 1557;
width = 238;
}
);
vhints = (
{
position = 86;
width = 205;
},
{
position = 282;
width = 364;
},
{
position = 496;
width = 204;
}
);
};
};
width = 786;
}
);
leftMetricsKey = O;
rightMetricsKey = O;
unicode = 00D3;
},
{
glyphname = Ocircumflex;
lastChange = "2023-03-27 10:49:11 +0000";
layers = (
{
components = (
{
name = asciicircum;
transform = "{1, 0, 0, 1, 38, 314}";
}
);
layerId = master01;
paths = (
{
closed = 1;
nodes = (
"477.667 1434 OFFCURVE",
"550 1403.83 OFFCURVE",
"610 1343.5 CURVE SMOOTH",
"670 1283.17 OFFCURVE",
"700 1210.67 OFFCURVE",
"700 1126 CURVE SMOOTH",
"700 307 LINE SMOOTH",
"700 222.333 OFFCURVE",
"670 150 OFFCURVE",
"610 90 CURVE SMOOTH",
"550 30 OFFCURVE",
"477.666 0 OFFCURVE",
"393 0 CURVE SMOOTH",
"308.333 0 OFFCURVE",
"236 30 OFFCURVE",
"176 90 CURVE SMOOTH",
"116 150 OFFCURVE",
"86 222.333 OFFCURVE",
"86 307 CURVE SMOOTH",
"86 1126 LINE SMOOTH",
"86 1210.67 OFFCURVE",
"116 1283.17 OFFCURVE",
"176 1343.5 CURVE SMOOTH",
"236 1403.84 OFFCURVE",
"308.333 1434 OFFCURVE",
"393 1434 CURVE SMOOTH"
);
},
{
closed = 1;
nodes = (
"364.333 1229 OFFCURVE",
"340.166 1219 OFFCURVE",
"320.5 1199 CURVE SMOOTH",
"300.833 1179 OFFCURVE",
"291 1154.67 OFFCURVE",
"291 1126 CURVE SMOOTH",
"291 836 LINE",
"291 596 LINE",
"291 307 LINE SMOOTH",
"291 278.333 OFFCURVE",
"300.833 254.167 OFFCURVE",
"320.5 234.5 CURVE SMOOTH",
"340.167 214.833 OFFCURVE",
"364.333 205 OFFCURVE",
"393 205 CURVE SMOOTH",
"421.667 205 OFFCURVE",
"446 214.833 OFFCURVE",
"466 234.5 CURVE SMOOTH",
"486 254.167 OFFCURVE",
"496 278.333 OFFCURVE",
"496 307 CURVE SMOOTH",
"496 596 LINE",
"496 836 LINE",
"496 1126 LINE SMOOTH",
"496 1154.67 OFFCURVE",
"486 1179 OFFCURVE",
"466 1199 CURVE SMOOTH",
"446 1219 OFFCURVE",
"421.666 1229 OFFCURVE",
"393 1229 CURVE SMOOTH"
);
}
);
userData = {
com.fontlab.hintData = {
hhints = (
{
position = 0;
width = 205;
},
{
position = 1229;
width = 205;
},
{
position = 1572;
width = 221;
}
);
vhints = (
{
position = 86;
width = 205;
},
{
position = 125;
width = 567;
},
{
position = 496;
width = 204;
}
);
};
};
width = 786;
}
);
leftMetricsKey = O;
rightMetricsKey = O;
unicode = 00D4;
},
{
glyphname = Ograve;
lastChange = "2023-03-27 11:10:22 +0000";
layers = (
{
components = (
{
name = grave;
transform = "{1, 0, 0, 1, 127, 314}";
}
);
layerId = master01;
paths = (
{
closed = 1;
nodes = (
"477.667 1434 OFFCURVE",
"550 1403.83 OFFCURVE",
"610 1343.5 CURVE SMOOTH",
"670 1283.17 OFFCURVE",
"700 1210.67 OFFCURVE",
"700 1126 CURVE SMOOTH",
"700 307 LINE SMOOTH",
"700 222.333 OFFCURVE",
"670 150 OFFCURVE",
"610 90 CURVE SMOOTH",
"550 30 OFFCURVE",
"477.666 0 OFFCURVE",
"393 0 CURVE SMOOTH",
"308.333 0 OFFCURVE",
"236 30 OFFCURVE",
"176 90 CURVE SMOOTH",
"116 150 OFFCURVE",
"86 222.333 OFFCURVE",
"86 307 CURVE SMOOTH",
"86 1126 LINE SMOOTH",
"86 1210.67 OFFCURVE",
"116 1283.17 OFFCURVE",
"176 1343.5 CURVE SMOOTH",
"236 1403.84 OFFCURVE",
"308.333 1434 OFFCURVE",
"393 1434 CURVE SMOOTH"
);
},
{
closed = 1;
nodes = (
"364.333 1229 OFFCURVE",
"340.166 1219 OFFCURVE",
"320.5 1199 CURVE SMOOTH",
"300.833 1179 OFFCURVE",
"291 1154.67 OFFCURVE",
"291 1126 CURVE SMOOTH",
"291 836 LINE",
"291 596 LINE",
"291 307 LINE SMOOTH",
"291 278.333 OFFCURVE",
"300.833 254.167 OFFCURVE",
"320.5 234.5 CURVE SMOOTH",
"340.167 214.833 OFFCURVE",
"364.333 205 OFFCURVE",
"393 205 CURVE SMOOTH",
"421.667 205 OFFCURVE",
"446 214.833 OFFCURVE",
"466 234.5 CURVE SMOOTH",
"486 254.167 OFFCURVE",
"496 278.333 OFFCURVE",
"496 307 CURVE SMOOTH",
"496 596 LINE",
"496 836 LINE",
"496 1126 LINE SMOOTH",
"496 1154.67 OFFCURVE",
"486 1179 OFFCURVE",
"466 1199 CURVE SMOOTH",
"446 1219 OFFCURVE",
"421.666 1229 OFFCURVE",
"393 1229 CURVE SMOOTH"
);
}
);
userData = {
com.fontlab.hintData = {
hhints = (
{
position = 0;
width = 205;
},
{
position = 1229;
width = 205;
},
{
position = 1557;
width = 238;
}
);
vhints = (
{
position = 86;
width = 205;
},
{
position = 129;
width = 364;
},
{
position = 496;
width = 204;
}
);
};
};
width = 786;
}
);
leftMetricsKey = O;
rightMetricsKey = O;
unicode = 00D2;
},
{
glyphname = Oopen;
lastChange = "2023-04-14 14:49:15 +0000";
layers = (
{
layerId = master01;
paths = (
{
closed = 1;
nodes = (
"478 1434 OFFCURVE",
"550 1404 OFFCURVE",
"610 1344 CURVE SMOOTH",
"670 1283 OFFCURVE",
"700 1211 OFFCURVE",
"700 1126 CURVE SMOOTH",
"700 307 LINE SMOOTH",
"700 222 OFFCURVE",
"670 150 OFFCURVE",
"610 90 CURVE SMOOTH",
"550 30 OFFCURVE",
"478 0 OFFCURVE",
"393 0 CURVE SMOOTH",
"308 0 OFFCURVE",
"236 30 OFFCURVE",
"176 90 CURVE SMOOTH",
"116 150 OFFCURVE",
"86 222 OFFCURVE",
"86 307 CURVE SMOOTH",
"86 410 LINE",
"290 410 LINE",
"290 307 LINE SMOOTH",
"290 278 OFFCURVE",
"300 254 OFFCURVE",
"320 235 CURVE SMOOTH",
"340 215 OFFCURVE",
"364 205 OFFCURVE",
"393 205 CURVE SMOOTH",
"422 205 OFFCURVE",
"446 215 OFFCURVE",
"465 235 CURVE SMOOTH",
"485 254 OFFCURVE",
"495 278 OFFCURVE",
"495 307 CURVE SMOOTH",
"495 1126 LINE SMOOTH",
"495 1155 OFFCURVE",
"485 1179 OFFCURVE",
"465 1199 CURVE SMOOTH",
"446 1219 OFFCURVE",
"422 1229 OFFCURVE",
"393 1229 CURVE SMOOTH",
"364 1229 OFFCURVE",
"340 1219 OFFCURVE",
"320 1199 CURVE SMOOTH",
"300 1179 OFFCURVE",
"290 1155 OFFCURVE",
"290 1126 CURVE SMOOTH",
"290 1024 LINE",
"86 1024 LINE",
"86 1126 LINE SMOOTH",
"86 1211 OFFCURVE",
"116 1283 OFFCURVE",
"176 1344 CURVE SMOOTH",
"236 1404 OFFCURVE",
"308 1434 OFFCURVE",
"393 1434 CURVE SMOOTH"
);
}
);
width = 786;
}
);
leftMetricsKey = O;
rightMetricsKey = O;
unicode = 0186;
},
{
glyphname = Oslash;
lastChange = "2023-03-27 11:43:15 +0000";
layers = (
{
components = (
{
alignment = -1;
name = O;
}
);
layerId = master01;
paths = (
{
closed = 1;
nodes = (
"700 1534 LINE",
"256 -100 LINE",
"86 -100 LINE",
"530 1534 LINE"
);
}
);
width = 786;
}
);
leftMetricsKey = O;
rightMetricsKey = O;
unicode = 00D8;
},
{
glyphname = OE;
lastChange = "2023-05-03 16:12:51 +0000";
layers = (
{
layerId = master01;
paths = (
{
closed = 1;
nodes = (
"559 0 LINE",
"559 78 LINE",
"538.333 56 OFFCURVE",
"522.667 40.833 OFFCURVE",
"512 32.5 CURVE SMOOTH",
"501.333 24.167 OFFCURVE",
"485 16.667 OFFCURVE",
"463 10 CURVE SMOOTH",
"441 3.333 OFFCURVE",
"413.666 0 OFFCURVE",
"381 0 CURVE SMOOTH",
"297.667 0 OFFCURVE",
"229.667 29.667 OFFCURVE",
"177 89 CURVE SMOOTH",
"124.333 148.333 OFFCURVE",
"98 221 OFFCURVE",
"98 307 CURVE SMOOTH",
"98 1126 LINE SMOOTH",
"98 1212 OFFCURVE",
"124.333 1284.83 OFFCURVE",
"177 1344.5 CURVE SMOOTH",
"229.667 1404.17 OFFCURVE",
"297.667 1434 OFFCURVE",
"381 1434 CURVE SMOOTH",
"449 1434 OFFCURVE",
"508.333 1408 OFFCURVE",
"559 1356 CURVE",
"559 1434 LINE",
"1174 1434 LINE",
"1174 1229 LINE",
"764 1229 LINE",
"764 819 LINE",
"1071 819 LINE",
"1071 614 LINE",
"764 614 LINE",
"764 205 LINE",
"1174 205 LINE",
"1174 0 LINE"
);
},
{
closed = 1;
nodes = (
"376.5 1229 OFFCURVE",
"352.166 1219 OFFCURVE",
"332.5 1199 CURVE SMOOTH",
"312.833 1179 OFFCURVE",
"303 1154.67 OFFCURVE",
"303 1126 CURVE SMOOTH",
"303 838 LINE",
"303 596 LINE",
"303 307 LINE SMOOTH",
"303 278.333 OFFCURVE",
"312.833 254.167 OFFCURVE",
"332.5 234.5 CURVE SMOOTH",
"352.167 214.833 OFFCURVE",
"376.5 205 OFFCURVE",
"405.5 205 CURVE SMOOTH",
"434.5 205 OFFCURVE",
"458.833 214.833 OFFCURVE",
"478.5 234.5 CURVE SMOOTH",
"498.167 254.167 OFFCURVE",
"508 278.333 OFFCURVE",
"508 307 CURVE SMOOTH",
"508 596 LINE",
"508 838 LINE",
"508 1126 LINE SMOOTH",
"508 1154.67 OFFCURVE",
"498.166 1179 OFFCURVE",
"478.5 1199 CURVE SMOOTH",
"458.833 1219 OFFCURVE",
"434.5 1229 OFFCURVE",
"405.5 1229 CURVE SMOOTH"
);
}
);
userData = {
com.fontlab.hintData = {
hhints = (
{
position = 0;
width = 205;
},
{
position = 614;
width = 205;
},
{
position = 1229;
width = 205;
}
);
vhints = (
{
position = 98;
width = 205;
},
{
position = 508;
width = 256;
}
);
};
};
width = 1210;
}
);
unicode = 0152;
},
{
glyphname = P;
lastChange = "2023-05-03 16:12:38 +0000";
layers = (
{
layerId = master01;
paths = (
{
closed = 1;
nodes = (
"508 1432 LINE SMOOTH",
"564 1432 OFFCURVE",
"611.834 1412.17 OFFCURVE",
"651.5 1372.5 CURVE SMOOTH",
"691.168 1332.83 OFFCURVE",
"711.001 1284.33 OFFCURVE",
"711 1227 CURVE SMOOTH",
"711 817 LINE SMOOTH",
"711 761 OFFCURVE",
"691.167 713.167 OFFCURVE",
"651.5 673.5 CURVE SMOOTH",
"611.833 633.833 OFFCURVE",
"564 614 OFFCURVE",
"508 614 CURVE SMOOTH",
"301 614 LINE",
"301 0 LINE",
"98 0 LINE",
"98 1432 LINE"
);
},
{
closed = 1;
nodes = (
"301 817 LINE",
"430 817 LINE SMOOTH",
"452 817 OFFCURVE",
"470.5 824.5 OFFCURVE",
"485.5 839.5 CURVE SMOOTH",
"500.5 854.5 OFFCURVE",
"508 873 OFFCURVE",
"508 895 CURVE SMOOTH",
"508 1151 LINE SMOOTH",
"508 1173 OFFCURVE",
"500.5 1191.5 OFFCURVE",
"485.5 1206.5 CURVE SMOOTH",
"470.5 1221.5 OFFCURVE",
"452 1229 OFFCURVE",
"430 1229 CURVE SMOOTH",
"301 1229 LINE"
);
}
);
userData = {
com.fontlab.hintData = {
hhints = (
{
position = 0;
width = 21;
},
{
position = 614;
width = 203;
},
{
position = 1229;
width = 203;
}
);
vhints = (
{
position = 98;
width = 203;
},
{
position = 508;
width = 203;
}
);
};
};
width = 768;
}
);
unicode = 0050;
},
{
glyphname = Phook;
lastChange = "2023-04-14 15:42:08 +0000";
layers = (
{
components = (
{
name = P;
}
);
layerId = master01;
paths = (
{
closed = 1;
nodes = (
"98 1229 LINE SMOOTH",
"69 1229 OFFCURVE",
"45 1217 OFFCURVE",
"25 1198 CURVE SMOOTH",
"6 1178 OFFCURVE",
"-4 1154 OFFCURVE",
"-4 1125 CURVE",
"-209 1125 LINE",
"-209 1210 OFFCURVE",
"-179 1282 OFFCURVE",
"-119 1342 CURVE SMOOTH",
"-59 1402 OFFCURVE",
"13 1432 OFFCURVE",
"98 1432 CURVE SMOOTH",
"322 1432 LINE",
"322 1229 LINE"
);
}
);
width = 768;
}
);
unicode = 01A4;
},
{
glyphname = Thorn;
lastChange = "2023-03-27 09:15:15 +0000";
layers = (
{
layerId = master01;
paths = (
{
closed = 1;
nodes = (
"301 1434 LINE",
"301 1126 LINE",
"508 1126 LINE SMOOTH",
"564 1126 OFFCURVE",
"612 1106 OFFCURVE",
"652 1067 CURVE SMOOTH",
"691 1027 OFFCURVE",
"711 978 OFFCURVE",
"711 921 CURVE SMOOTH",
"711 511 LINE SMOOTH",
"711 455 OFFCURVE",
"691 407 OFFCURVE",
"652 368 CURVE SMOOTH",
"612 328 OFFCURVE",
"564 308 OFFCURVE",
"508 308 CURVE SMOOTH",
"301 308 LINE",
"301 0 LINE",
"98 0 LINE",
"98 1434 LINE"
);
},
{
closed = 1;
nodes = (
"301 511 LINE",
"430 511 LINE SMOOTH",
"452 511 OFFCURVE",
"471 519 OFFCURVE",
"486 534 CURVE SMOOTH",
"501 549 OFFCURVE",
"508 567 OFFCURVE",
"508 589 CURVE SMOOTH",
"508 845 LINE SMOOTH",
"508 867 OFFCURVE",
"501 886 OFFCURVE",
"486 901 CURVE SMOOTH",
"471 916 OFFCURVE",
"452 923 OFFCURVE",
"430 923 CURVE SMOOTH",
"301 923 LINE"
);
}
);
width = 768;
}
);
leftMetricsKey = P;
rightMetricsKey = P;
unicode = 00DE;
},
{
glyphname = Q;
lastChange = "2023-05-03 16:12:38 +0000";
layers = (
{
layerId = master01;
paths = (
{
closed = 1;
nodes = (
"477.667 1434 OFFCURVE",
"550 1403.83 OFFCURVE",
"610 1343.5 CURVE SMOOTH",
"670 1283.17 OFFCURVE",
"700 1210.67 OFFCURVE",
"700 1126 CURVE SMOOTH",
"700 299 LINE SMOOTH",
"700 270.333 OFFCURVE",
"710 246.167 OFFCURVE",
"730 226.5 CURVE SMOOTH",
"750.001 206.833 OFFCURVE",
"774.335 197 OFFCURVE",
"803 197 CURVE",
"803 -8 LINE",
"722.333 -8 OFFCURVE",
"652.667 19.333 OFFCURVE",
"594 74 CURVE",
"536.666 24.667 OFFCURVE",
"469.666 0 OFFCURVE",
"393 0 CURVE SMOOTH",
"308.333 0 OFFCURVE",
"236 30 OFFCURVE",
"176 90 CURVE SMOOTH",
"116 150 OFFCURVE",
"86 222.333 OFFCURVE",
"86 307 CURVE SMOOTH",
"86 1126 LINE SMOOTH",
"86 1210.67 OFFCURVE",
"116 1283.17 OFFCURVE",
"176 1343.5 CURVE SMOOTH",
"236 1403.84 OFFCURVE",
"308.333 1434 OFFCURVE",
"393 1434 CURVE SMOOTH"
);
},
{
closed = 1;
nodes = (
"364.333 1229 OFFCURVE",
"340.166 1219 OFFCURVE",
"320.5 1199 CURVE SMOOTH",
"300.833 1179 OFFCURVE",
"291 1154.67 OFFCURVE",
"291 1126 CURVE SMOOTH",
"291 307 LINE SMOOTH",
"291 278.333 OFFCURVE",
"300.833 254.167 OFFCURVE",
"320.5 234.5 CURVE SMOOTH",
"340.167 214.833 OFFCURVE",
"364.333 205 OFFCURVE",
"393 205 CURVE SMOOTH",
"421.667 205 OFFCURVE",
"446 214.833 OFFCURVE",
"466 234.5 CURVE SMOOTH",
"486 254.167 OFFCURVE",
"496 278.333 OFFCURVE",
"496 307 CURVE SMOOTH",
"496 1126 LINE SMOOTH",
"496 1154.67 OFFCURVE",
"486 1179 OFFCURVE",
"466 1199 CURVE SMOOTH",
"446 1219 OFFCURVE",
"421.666 1229 OFFCURVE",
"393 1229 CURVE SMOOTH"
);
}
);
userData = {
com.fontlab.hintData = {
hhints = (
{
position = 0;
width = 205;
},
{
position = 1229;
width = 205;
}
);
vhints = (
{
position = 86;
width = 205;
},
{
position = 496;
width = 204;
}
);
};
};
width = 790;
}
);
unicode = 0051;
},
{
glyphname = R;
lastChange = "2023-05-03 16:12:38 +0000";
layers = (
{
layerId = master01;
paths = (
{
closed = 1;
nodes = (
"508 1430 LINE SMOOTH",
"564 1430 OFFCURVE",
"611.834 1410.17 OFFCURVE",
"651.5 1370.5 CURVE SMOOTH",
"691.168 1330.83 OFFCURVE",
"711.001 1283 OFFCURVE",
"711 1227 CURVE SMOOTH",
"711 817 LINE SMOOTH",
"710.999 739 OFFCURVE",
"677.332 680.333 OFFCURVE",
"610 641 CURVE",
"711 0 LINE",
"508 0 LINE",
"406 614 LINE",
"301 614 LINE",
"301 0 LINE",
"98 0 LINE",
"98 1432 LINE"
);
},
{
closed = 1;
nodes = (
"301 815 LINE",
"430 815 LINE SMOOTH",
"452 815.002 OFFCURVE",
"470.5 822.835 OFFCURVE",
"485.5 838.5 CURVE SMOOTH",
"500.5 854.169 OFFCURVE",
"508 872.336 OFFCURVE",
"508 893 CURVE SMOOTH",
"508 1149 LINE SMOOTH",
"508 1171 OFFCURVE",
"500.5 1189.83 OFFCURVE",
"485.5 1205.5 CURVE SMOOTH",
"470.5 1221.17 OFFCURVE",
"452 1229 OFFCURVE",
"430 1229 CURVE SMOOTH",
"301 1229 LINE"
);
}
);
userData = {
com.fontlab.hintData = {
hhints = (
{
position = 0;
width = 21;
},
{
position = 614;
width = 201;
},
{
position = 1229;
width = 203;
}
);
vhints = (
{
position = 98;
width = 203;
},
{
position = 508;
width = 203;
}
);
};
};
width = 788;
}
);
unicode = 0052;
},
{
glyphname = Rtail;
lastChange = "2023-04-14 15:41:28 +0000";
layers = (
{
components = (
{
name = R;
}
);
layerId = master01;
paths = (
{
closed = 1;
nodes = (
"301 0 LINE SMOOTH",
"301 -29 OFFCURVE",
"311 -53 OFFCURVE",
"330 -73 CURVE SMOOTH",
"350 -92 OFFCURVE",
"374 -102 OFFCURVE",
"403 -102 CURVE",
"403 -307 LINE",
"318 -307 OFFCURVE",
"246 -277 OFFCURVE",
"186 -217 CURVE SMOOTH",
"126 -157 OFFCURVE",
"98 -85 OFFCURVE",
"98 0 CURVE SMOOTH",
"98 224 LINE",
"301 224 LINE"
);
}
);
width = 788;
}
);
unicode = 2C64;
},
{
glyphname = S;
lastChange = "2023-05-03 16:12:38 +0000";
layers = (
{
layerId = master01;
paths = (
{
closed = 1;
nodes = (
"262 410 LINE",
"262 307 LINE SMOOTH",
"262 278.333 OFFCURVE",
"272 254.167 OFFCURVE",
"292 234.5 CURVE SMOOTH",
"312 214.833 OFFCURVE",
"336.333 205 OFFCURVE",
"365 205 CURVE SMOOTH",
"393.666 205 OFFCURVE",
"417.833 214.833 OFFCURVE",
"437.5 234.5 CURVE SMOOTH",
"457.166 254.167 OFFCURVE",
"466.999 278.333 OFFCURVE",
"467 307 CURVE SMOOTH",
"467 512 LINE SMOOTH",
"467 540.667 OFFCURVE",
"457.167 564.833 OFFCURVE",
"437.5 584.5 CURVE SMOOTH",
"417.833 604.167 OFFCURVE",
"393.667 614 OFFCURVE",
"365 614 CURVE SMOOTH",
"273 614.667 OFFCURVE",
"196.333 649 OFFCURVE",
"135 717 CURVE",
"83 775.667 OFFCURVE",
"57 844 OFFCURVE",
"57 922 CURVE SMOOTH",
"57 1126 LINE SMOOTH",
"57 1210.67 OFFCURVE",
"87.167 1283.17 OFFCURVE",
"147.5 1343.5 CURVE SMOOTH",
"207.833 1403.83 OFFCURVE",
"280.333 1434 OFFCURVE",
"365 1434 CURVE SMOOTH",
"449.666 1434 OFFCURVE",
"522 1403.84 OFFCURVE",
"582 1343.5 CURVE SMOOTH",
"642 1283.17 OFFCURVE",
"672 1210.67 OFFCURVE",
"672 1126 CURVE SMOOTH",
"672 1024 LINE",
"653 1024 LINE",
"467 1024 LINE",
"467 1126 LINE SMOOTH",
"467 1154.67 OFFCURVE",
"457.167 1179 OFFCURVE",
"437.5 1199 CURVE SMOOTH",
"417.833 1219 OFFCURVE",
"393.667 1229 OFFCURVE",
"365 1229 CURVE SMOOTH",
"336.333 1229 OFFCURVE",
"312 1219 OFFCURVE",
"292 1199 CURVE SMOOTH",
"272 1179 OFFCURVE",
"262 1154.67 OFFCURVE",
"262 1126 CURVE SMOOTH",
"262 922 LINE SMOOTH",
"262 893.334 OFFCURVE",
"272 869.001 OFFCURVE",
"292 849 CURVE SMOOTH",
"312 829 OFFCURVE",
"336.333 819 OFFCURVE",
"365 819 CURVE SMOOTH",
"456.333 819 OFFCURVE",
"532.667 785 OFFCURVE",
"594 717 CURVE",
"646 658.334 OFFCURVE",
"672 590 OFFCURVE",
"672 512 CURVE SMOOTH",
"672 307 LINE SMOOTH",
"672 222.333 OFFCURVE",
"642 150 OFFCURVE",
"582 90 CURVE SMOOTH",
"522 30 OFFCURVE",
"449.667 0 OFFCURVE",
"365 0 CURVE SMOOTH",
"280.333 0 OFFCURVE",
"207.833 30 OFFCURVE",
"147.5 90 CURVE SMOOTH",
"87.167 150 OFFCURVE",
"57 222.333 OFFCURVE",
"57 307 CURVE SMOOTH",
"57 410 LINE"
);
}
);
userData = {
com.fontlab.hintData = {
hhints = (
{
position = 0;
width = 205;
},
{
position = 614;
width = 205;
},
{
position = 1229;
width = 205;
}
);
vhints = (
{
position = 57;
width = 205;
},
{
position = 467;
width = 205;
}
);
};
};
width = 729;
}
);
unicode = 0053;
},
{
glyphname = Saltillo;
lastChange = "2023-05-03 16:08:46 +0000";
layers = (
{
layerId = master01;
paths = (
{
closed = 1;
nodes = (
"272 1434 LINE",
"272 820 LINE",
"109 820 LINE",
"109 1434 LINE"
);
}
);
width = 380;
}
);
unicode = A78B;
},
{
glyphname = Germandbls;
lastChange = "2023-05-03 16:03:02 +0000";
layers = (
{
layerId = master01;
paths = (
{
closed = 1;
nodes = (
"808 1229 LINE",
"808 1434 LINE",
"327 1434 LINE",
"327 1229 LINE",
"605 1229 LINE",
"441 817 LINE",
"633 797 LINE"
);
},
{
closed = 1;
nodes = (
"684 771 OFFCURVE",
"710 755 OFFCURVE",
"741 719 CURVE SMOOTH",
"792 660 OFFCURVE",
"809 590 OFFCURVE",
"809 512 CURVE SMOOTH",
"809 307 LINE SMOOTH",
"809 222 OFFCURVE",
"779 150 OFFCURVE",
"719 90 CURVE SMOOTH",
"659 30 OFFCURVE",
"587 0 OFFCURVE",
"502 0 CURVE SMOOTH",
"417 0 OFFCURVE",
"345 30 OFFCURVE",
"285 90 CURVE",
"429 235 LINE",
"449 215 OFFCURVE",
"473 205 OFFCURVE",
"502 205 CURVE SMOOTH",
"531 205 OFFCURVE",
"555 215 OFFCURVE",
"575 235 CURVE SMOOTH",
"594 254 OFFCURVE",
"604 278 OFFCURVE",
"604 307 CURVE SMOOTH",
"604 512 LINE SMOOTH",
"604 541 OFFCURVE",
"596 567 OFFCURVE",
"575 585 CURVE SMOOTH",
"541 614 OFFCURVE",
"500 614 OFFCURVE",
"441 614 CURVE",
"441 817 LINE",
"633 797 LINE"
);
},
{
closed = 1;
nodes = (
"242 1434 OFFCURVE",
"170 1404 OFFCURVE",
"111 1345 CURVE SMOOTH",
"52 1285 OFFCURVE",
"21 1213 OFFCURVE",
"20 1130 CURVE",
"20 0 LINE",
"225 0 LINE",
"225 1126 LINE",
"225 1155 OFFCURVE",
"235 1179 OFFCURVE",
"255 1199 CURVE SMOOTH",
"274 1219 OFFCURVE",
"298 1229 OFFCURVE",
"327 1229 CURVE",
"327 1434 LINE"
);
}
);
width = 863;
}
);
unicode = 1E9E;
},
{
glyphname = Schwa;
lastChange = "2023-04-14 18:13:20 +0000";
layers = (
{
layerId = master01;
paths = (
{
closed = 1;
nodes = (
"339 0 OFFCURVE",
"256 22 OFFCURVE",
"172 103 CURVE SMOOTH",
"82 190 OFFCURVE",
"68 310 OFFCURVE",
"68 429 CURVE SMOOTH",
"68 575 LINE",
"68 820 LINE",
"275 820 LINE",
"562 820 LINE",
"562 1005 LINE SMOOTH",
"562 1085 OFFCURVE",
"542 1149 OFFCURVE",
"520 1177 CURVE SMOOTH",
"496 1208 OFFCURVE",
"463 1227 OFFCURVE",
"417 1227 CURVE SMOOTH",
"372 1227 OFFCURVE",
"338 1207 OFFCURVE",
"315 1177 CURVE SMOOTH",
"293 1149 OFFCURVE",
"275 1075 OFFCURVE",
"275 1005 CURVE",
"68 1005 LINE",
"68 1123 OFFCURVE",
"93 1241 OFFCURVE",
"174 1328 CURVE SMOOTH",
"253 1412 OFFCURVE",
"340 1434 OFFCURVE",
"417 1434 CURVE SMOOTH",
"495 1434 OFFCURVE",
"582 1412 OFFCURVE",
"661 1328 CURVE SMOOTH",
"742 1241 OFFCURVE",
"767 1123 OFFCURVE",
"767 1005 CURVE SMOOTH",
"767 429 LINE SMOOTH",
"767 310 OFFCURVE",
"745 199 OFFCURVE",
"662 105 CURVE SMOOTH",
"591 25 OFFCURVE",
"495 0 OFFCURVE",
"417 0 CURVE SMOOTH"
);
},
{
closed = 1;
nodes = (
"275 615 LINE",
"275 351 LINE SMOOTH",
"275 310 OFFCURVE",
"289 274 OFFCURVE",
"315 247 CURVE SMOOTH",
"343 219 OFFCURVE",
"377 205 OFFCURVE",
"417 205 CURVE SMOOTH",
"458 205 OFFCURVE",
"492 219 OFFCURVE",
"520 247 CURVE SMOOTH",
"548 274 OFFCURVE",
"562 310 OFFCURVE",
"562 351 CURVE SMOOTH",
"562 615 LINE"
);
}
);
width = 834;
}
);
unicode = 018F;
},
{
glyphname = T;
lastChange = "2023-05-03 16:12:38 +0000";
layers = (
{
layerId = master01;
paths = (
{
closed = 1;
nodes = (
"608 1434 LINE",
"608 1229 LINE",
"403 1229 LINE",
"403 0 LINE",
"199 0 LINE",
"199 1229 LINE",
"-6 1229 LINE",
"-6 1434 LINE"
);
}
);
userData = {
com.fontlab.hintData = {
hhints = (
{
position = 0;
width = 21;
},
{
position = 1229;
width = 205;
}
);
vhints = (
{
position = 199;
width = 204;
}
);
};
};
width = 602;
}
);
unicode = 0054;
},
{
glyphname = Tcedilla;
lastChange = "2023-03-27 13:32:56 +0000";
layers = (
{
components = (
{
name = T;
}
);
layerId = master01;
paths = (
{
closed = 1;
nodes = (
"190 -238 LINE",
"29 -238 LINE",
"199 0 LINE",
"403 0 LINE"
);
}
);
width = 602;
}
);
leftMetricsKey = T;
rightMetricsKey = T;
unicode = 0162;
},
{
glyphname = Thook;
lastChange = "2023-04-14 15:45:27 +0000";
layers = (
{
layerId = master01;
paths = (
{
closed = 1;
nodes = (
"96 1229 LINE SMOOTH",
"67 1229 OFFCURVE",
"43 1219 OFFCURVE",
"23 1200 CURVE SMOOTH",
"4 1180 OFFCURVE",
"-6 1156 OFFCURVE",
"-6 1127 CURVE",
"-211 1127 LINE",
"-211 1212 OFFCURVE",
"-181 1284 OFFCURVE",
"-121 1344 CURVE SMOOTH",
"-61 1404 OFFCURVE",
"11 1434 OFFCURVE",
"96 1434 CURVE SMOOTH",
"320 1434 LINE",
"320 1229 LINE"
);
},
{
closed = 1;
nodes = (
"608 1434 LINE",
"608 1229 LINE",
"403 1229 LINE",
"403 0 LINE",
"199 0 LINE",
"199 1229 LINE",
"164 1229 LINE",
"164 1434 LINE"
);
}
);
width = 602;
}
);
unicode = 01AC;
},
{
glyphname = Tretroflexhook;
lastChange = "2023-05-03 11:07:42 +0000";
layers = (
{
layerId = master01;
paths = (
{
closed = 1;
nodes = (
"608 1434 LINE",
"608 1229 LINE",
"403 1229 LINE",
"403 0 LINE",
"199 0 LINE",
"199 1229 LINE",
"-6 1229 LINE",
"-6 1434 LINE"
);
},
{
closed = 1;
nodes = (
"403 0 LINE",
"404 -103 LINE SMOOTH",
"405 -188 OFFCURVE",
"374 -260 OFFCURVE",
"314 -320 CURVE SMOOTH",
"254 -380 OFFCURVE",
"182 -410 OFFCURVE",
"97 -410 CURVE",
"97 -205 LINE",
"126 -205 OFFCURVE",
"150 -195 OFFCURVE",
"170 -176 CURVE SMOOTH",
"189 -156 OFFCURVE",
"199 -132 OFFCURVE",
"199 -103 CURVE SMOOTH",
"199 121 LINE"
);
}
);
width = 602;
}
);
unicode = 01AE;
},
{
glyphname = U;
lastChange = "2023-05-03 16:12:38 +0000";
layers = (
{
layerId = master01;
paths = (
{
closed = 1;
nodes = (
"303 1434 LINE",
"303 307 LINE SMOOTH",
"303 278.333 OFFCURVE",
"312.833 254.167 OFFCURVE",
"332.5 234.5 CURVE SMOOTH",
"352.167 214.833 OFFCURVE",
"376.5 205 OFFCURVE",
"405.5 205 CURVE SMOOTH",
"434.5 205 OFFCURVE",
"458.833 214.833 OFFCURVE",
"478.5 234.5 CURVE SMOOTH",
"498.167 254.167 OFFCURVE",
"508 278.333 OFFCURVE",
"508 307 CURVE SMOOTH",
"508 1434 LINE",
"713 1434 LINE",
"713 307 LINE SMOOTH",
"712.999 222.333 OFFCURVE",
"682.832 150 OFFCURVE",
"622.5 90 CURVE SMOOTH",
"562.166 30 OFFCURVE",
"489.833 0 OFFCURVE",
"405.5 0 CURVE SMOOTH",
"321.167 0 OFFCURVE",
"248.833 30 OFFCURVE",
"188.5 90 CURVE SMOOTH",
"128.167 150 OFFCURVE",
"98 222.333 OFFCURVE",
"98 307 CURVE SMOOTH",
"98 1434 LINE"
);
}
);
userData = {
com.fontlab.hintData = {
hhints = (
{
position = 0;
width = 205;
},
{
position = 1414;
width = 20;
}
);
vhints = (
{
position = 98;
width = 205;
},
{
position = 508;
width = 205;
}
);
};
};
width = 811;
}
);
unicode = 0055;
},
{
glyphname = Uacute;
lastChange = "2023-03-27 12:12:40 +0000";
layers = (
{
components = (
{
name = acutecomb;
transform = "{1, 0, 0, 1, 226, 313}";
}
);
layerId = master01;
paths = (
{
closed = 1;
nodes = (
"303 1434 LINE",
"303 307 LINE SMOOTH",
"303 278.333 OFFCURVE",
"312.833 254.167 OFFCURVE",
"332.5 234.5 CURVE SMOOTH",
"352.167 214.833 OFFCURVE",
"376.5 205 OFFCURVE",
"405.5 205 CURVE SMOOTH",
"434.5 205 OFFCURVE",
"458.833 214.833 OFFCURVE",
"478.5 234.5 CURVE SMOOTH",
"498.167 254.167 OFFCURVE",
"508 278.333 OFFCURVE",
"508 307 CURVE SMOOTH",
"508 1434 LINE",
"713 1434 LINE",
"713 307 LINE SMOOTH",
"712.999 222.333 OFFCURVE",
"682.832 150 OFFCURVE",
"622.5 90 CURVE SMOOTH",
"562.166 30 OFFCURVE",
"489.833 0 OFFCURVE",
"405.5 0 CURVE SMOOTH",
"321.167 0 OFFCURVE",
"248.833 30 OFFCURVE",
"188.5 90 CURVE SMOOTH",
"128.167 150 OFFCURVE",
"98 222.333 OFFCURVE",
"98 307 CURVE SMOOTH",
"98 1434 LINE"
);
}
);
userData = {
com.fontlab.hintData = {
hhints = (
{
position = 0;
width = 205;
},
{
position = 1414;
width = 20;
},
{
position = 1554;
width = 238;
}
);
vhints = (
{
position = 98;
width = 205;
},
{
position = 303;
width = 364;
},
{
position = 508;
width = 205;
}
);
};
};
width = 811;
}
);
leftMetricsKey = U;
rightMetricsKey = U;
unicode = 00DA;
},
{
glyphname = Ubar;
lastChange = "2023-03-27 13:14:42 +0000";
layers = (
{
components = (
{
name = U;
transform = "{1, 0, 0, 1, 98, 0}";
}
);
layerId = master01;
paths = (
{
closed = 1;
nodes = (
"909 944 LINE",
"909 780 LINE",
"98 780 LINE",
"98 944 LINE"
);
}
);
width = 1007;
}
);
leftMetricsKey = U;
rightMetricsKey = U;
unicode = 0244;
},
{
glyphname = Ucircumflex;
lastChange = "2023-03-27 10:49:31 +0000";
layers = (
{
components = (
{
name = asciicircum;
transform = "{1, 0, 0, 1, 45, 314}";
}
);
layerId = master01;
paths = (
{
closed = 1;
nodes = (
"303 1434 LINE",
"303 307 LINE SMOOTH",
"303 278.333 OFFCURVE",
"312.833 254.167 OFFCURVE",
"332.5 234.5 CURVE SMOOTH",
"352.167 214.833 OFFCURVE",
"376.5 205 OFFCURVE",
"405.5 205 CURVE SMOOTH",
"434.5 205 OFFCURVE",
"458.833 214.833 OFFCURVE",
"478.5 234.5 CURVE SMOOTH",
"498.167 254.167 OFFCURVE",
"508 278.333 OFFCURVE",
"508 307 CURVE SMOOTH",
"508 1434 LINE",
"713 1434 LINE",
"713 307 LINE SMOOTH",
"712.999 222.333 OFFCURVE",
"682.832 150 OFFCURVE",
"622.5 90 CURVE SMOOTH",
"562.166 30 OFFCURVE",
"489.833 0 OFFCURVE",
"405.5 0 CURVE SMOOTH",
"321.167 0 OFFCURVE",
"248.833 30 OFFCURVE",
"188.5 90 CURVE SMOOTH",
"128.167 150 OFFCURVE",
"98 222.333 OFFCURVE",
"98 307 CURVE SMOOTH",
"98 1434 LINE"
);
}
);
userData = {
com.fontlab.hintData = {
hhints = (
{
position = 0;
width = 205;
},
{
position = 1414;
width = 20;
},
{
position = 1636;
width = 221;
}
);
vhints = (
{
position = 98;
width = 205;
},
{
position = 131;
width = 567;
},
{
position = 508;
width = 205;
}
);
};
};
width = 811;
}
);
leftMetricsKey = U;
rightMetricsKey = U;
unicode = 00DB;
},
{
glyphname = Udieresis;
lastChange = "2023-03-27 10:58:53 +0000";
layers = (
{
components = (
{
name = dieresiscomb;
transform = "{1, 0, 0, 1, 59, 309}";
}
);
layerId = master01;
paths = (
{
closed = 1;
nodes = (
"303 1434 LINE",
"303 307 LINE SMOOTH",
"303 278.333 OFFCURVE",
"312.833 254.167 OFFCURVE",
"332.5 234.5 CURVE SMOOTH",
"352.167 214.833 OFFCURVE",
"376.5 205 OFFCURVE",
"405.5 205 CURVE SMOOTH",
"434.5 205 OFFCURVE",
"458.833 214.833 OFFCURVE",
"478.5 234.5 CURVE SMOOTH",
"498.167 254.167 OFFCURVE",
"508 278.333 OFFCURVE",
"508 307 CURVE SMOOTH",
"508 1434 LINE",
"713 1434 LINE",
"713 307 LINE SMOOTH",
"712.999 222.333 OFFCURVE",
"682.832 150 OFFCURVE",
"622.5 90 CURVE SMOOTH",
"562.166 30 OFFCURVE",
"489.833 0 OFFCURVE",
"405.5 0 CURVE SMOOTH",
"321.167 0 OFFCURVE",
"248.833 30 OFFCURVE",
"188.5 90 CURVE SMOOTH",
"128.167 150 OFFCURVE",
"98 222.333 OFFCURVE",
"98 307 CURVE SMOOTH",
"98 1434 LINE"
);
}
);
userData = {
com.fontlab.hintData = {
hhints = (
{
position = 0;
width = 205;
},
{
position = 1414;
width = 20;
},
{
position = 1641;
width = 203;
}
);
vhints = (
{
position = 98;
width = 205;
},
{
position = 102;
width = 202;
},
{
position = 508;
width = 205;
},
{
position = 511;
width = 203;
}
);
};
};
width = 811;
}
);
leftMetricsKey = U;
rightMetricsKey = U;
unicode = 00DC;
},
{
glyphname = Ugrave;
lastChange = "2023-03-27 11:10:33 +0000";
layers = (
{
components = (
{
name = grave;
transform = "{1, 0, 0, 1, 132, 314}";
}
);
layerId = master01;
paths = (
{
closed = 1;
nodes = (
"303 1434 LINE",
"303 307 LINE SMOOTH",
"303 278.333 OFFCURVE",
"312.833 254.167 OFFCURVE",
"332.5 234.5 CURVE SMOOTH",
"352.167 214.833 OFFCURVE",
"376.5 205 OFFCURVE",
"405.5 205 CURVE SMOOTH",
"434.5 205 OFFCURVE",
"458.833 214.833 OFFCURVE",
"478.5 234.5 CURVE SMOOTH",
"498.167 254.167 OFFCURVE",
"508 278.333 OFFCURVE",
"508 307 CURVE SMOOTH",
"508 1434 LINE",
"713 1434 LINE",
"713 307 LINE SMOOTH",
"712.999 222.333 OFFCURVE",
"682.832 150 OFFCURVE",
"622.5 90 CURVE SMOOTH",
"562.166 30 OFFCURVE",
"489.833 0 OFFCURVE",
"405.5 0 CURVE SMOOTH",
"321.167 0 OFFCURVE",
"248.833 30 OFFCURVE",
"188.5 90 CURVE SMOOTH",
"128.167 150 OFFCURVE",
"98 222.333 OFFCURVE",
"98 307 CURVE SMOOTH",
"98 1434 LINE"
);
}
);
userData = {
com.fontlab.hintData = {
hhints = (
{
position = 0;
width = 205;
},
{
position = 1414;
width = 20;
},
{
position = 1550;
width = 238;
}
);
vhints = (
{
position = 98;
width = 205;
},
{
position = 152;
width = 364;
},
{
position = 508;
width = 205;
}
);
};
};
width = 811;
}
);
leftMetricsKey = U;
rightMetricsKey = U;
unicode = 00D9;
},
{
glyphname = Upsilonafrican;
lastChange = "2023-05-03 14:35:45 +0000";
layers = (
{
background = {
paths = (
{
closed = 1;
nodes = (
"323 1024 LINE",
"323 820 LINE",
"283 654 OFFCURVE",
"259 487 OFFCURVE",
"286 353 CURVE SMOOTH",
"305 257 OFFCURVE",
"355 205 OFFCURVE",
"425 205 CURVE SMOOTH",
"495 205 OFFCURVE",
"545 259 OFFCURVE",
"564 353 CURVE SMOOTH",
"591 487 OFFCURVE",
"568 654 OFFCURVE",
"528 820 CURVE",
"528 1024 LINE",
"732 1024 LINE",
"732 820 LINE",
"648 820 LINE",
"683 694 OFFCURVE",
"732 487 OFFCURVE",
"732 353 CURVE SMOOTH",
"733 73 OFFCURVE",
"563 0 OFFCURVE",
"425 0 CURVE SMOOTH",
"286 0 OFFCURVE",
"118 83 OFFCURVE",
"118 353 CURVE SMOOTH",
"118 506 OFFCURVE",
"168 694 OFFCURVE",
"203 820 CURVE",
"118 820 LINE",
"118 1024 LINE"
);
}
);
};
layerId = master01;
paths = (
{
closed = 1;
nodes = (
"323 1434 LINE",
"323 1230 LINE",
"258 687 OFFCURVE",
"261 487 OFFCURVE",
"288 353 CURVE SMOOTH",
"308 255 OFFCURVE",
"357 205 OFFCURVE",
"428 205 CURVE SMOOTH",
"497 205 OFFCURVE",
"547 258 OFFCURVE",
"566 353 CURVE SMOOTH",
"593 487 OFFCURVE",
"593 687 OFFCURVE",
"528 1230 CURVE",
"528 1434 LINE",
"753 1434 LINE",
"752 1230 LINE",
"658 1230 LINE",
"678 1015 OFFCURVE",
"732 587 OFFCURVE",
"732 453 CURVE SMOOTH",
"732 173 OFFCURVE",
"635 0 OFFCURVE",
"427 0 CURVE SMOOTH",
"208 0 OFFCURVE",
"118 183 OFFCURVE",
"118 453 CURVE SMOOTH",
"118 606 OFFCURVE",
"173 1015 OFFCURVE",
"193 1230 CURVE",
"98 1230 LINE",
"98 1434 LINE"
);
}
);
width = 851;
}
);
unicode = 01B1;
},
{
glyphname = V;
lastChange = "2023-05-03 16:12:38 +0000";
layers = (
{
layerId = master01;
paths = (
{
closed = 1;
nodes = (
"283 -2 LINE",
"489 -2 LINE",
"745 1434 LINE",
"539 1434 LINE",
"539 1432 LINE",
"385 594 LINE",
"233 1432 LINE",
"233 1434 LINE",
"27 1434 LINE"
);
}
);
userData = {
com.fontlab.hintData = {
vhints = (
{
position = 27;
width = 206;
},
{
position = 539;
width = 206;
}
);
};
};
width = 770;
}
);
unicode = 0056;
},
{
glyphname = Gammaafrican;
lastChange = "2023-05-03 15:46:34 +0000";
layers = (
{
background = {
paths = (
{
closed = 1;
nodes = (
"262 -2 LINE",
"294 -138 OFFCURVE",
"222 -410 OFFCURVE",
"358 -410 CURVE",
"508 -410 OFFCURVE",
"648 -277 OFFCURVE",
"685 -141 CURVE",
"549 451 LINE",
"724 1434 LINE",
"518 1434 LINE",
"518 1432 LINE",
"364 594 LINE",
"212 1432 LINE",
"212 1434 LINE",
"6 1434 LINE"
);
}
);
};
layerId = master01;
paths = (
{
closed = 1;
nodes = (
"214 316 LINE",
"193 210 OFFCURVE",
"136 28 OFFCURVE",
"134 -90 CURVE SMOOTH",
"132 -219 OFFCURVE",
"174 -410 OFFCURVE",
"364 -410 CURVE SMOOTH",
"554 -410 OFFCURVE",
"594 -216 OFFCURVE",
"594 -80 CURVE SMOOTH",
"594 17 OFFCURVE",
"549 183 OFFCURVE",
"516 289 CURVE",
"724 1434 LINE",
"518 1434 LINE",
"365 594 LINE",
"212 1432 LINE",
"212 1434 LINE",
"6 1434 LINE"
);
},
{
closed = 1;
nodes = (
"393 17 OFFCURVE",
"404 -59 OFFCURVE",
"404 -110 CURVE SMOOTH",
"404 -153 OFFCURVE",
"393 -205 OFFCURVE",
"363 -205 CURVE SMOOTH",
"333 -205 OFFCURVE",
"324 -153 OFFCURVE",
"324 -110 CURVE SMOOTH",
"324 -50 OFFCURVE",
"333 17 OFFCURVE",
"365 120 CURVE"
);
}
);
width = 736;
}
);
unicode = 0194;
},
{
glyphname = Vhook;
lastChange = "2023-05-03 14:50:53 +0000";
layers = (
{
layerId = master01;
paths = (
{
closed = 1;
nodes = (
"291 1434 LINE",
"291 353 LINE SMOOTH",
"291 255 OFFCURVE",
"343 205 OFFCURVE",
"413 205 CURVE SMOOTH",
"483 205 OFFCURVE",
"539 259 OFFCURVE",
"548 463 CURVE SMOOTH",
"568 897 OFFCURVE",
"568 1089 OFFCURVE",
"496 1195 CURVE",
"496 1434 LINE",
"588 1404 OFFCURVE",
"655 1350 OFFCURVE",
"705 1246 CURVE SMOOTH",
"758 1136 OFFCURVE",
"775 898 OFFCURVE",
"755 463 CURVE SMOOTH",
"737 79 OFFCURVE",
"531 0 OFFCURVE",
"393 0 CURVE SMOOTH",
"254 0 OFFCURVE",
"86 83 OFFCURVE",
"86 353 CURVE",
"86 1230 LINE",
"86 1434 LINE"
);
}
);
width = 855;
}
);
unicode = 01B2;
},
{
glyphname = W;
lastChange = "2023-05-03 16:12:38 +0000";
layers = (
{
layerId = master01;
paths = (
{
closed = 1;
nodes = (
"289 0 LINE",
"496 0 LINE",
"649 856 LINE",
"801 0 LINE",
"1008 0 LINE",
"1264 1434 LINE",
"1057 1434 LINE",
"905 596 LINE",
"752 1436 LINE",
"545 1436 LINE",
"391 596 LINE",
"240 1436 LINE",
"33 1436 LINE"
);
}
);
userData = {
com.fontlab.hintData = {
vhints = (
{
position = 545;
width = 207;
}
);
};
};
width = 1296;
}
);
unicode = 0057;
},
{
glyphname = Whook;
lastChange = "2023-04-14 15:48:05 +0000";
layers = (
{
layerId = master01;
paths = (
{
closed = 1;
nodes = (
"1212 1149 LINE SMOOTH",
"1217 1178 OFFCURVE",
"1231 1199 OFFCURVE",
"1254 1216 CURVE SMOOTH",
"1277 1231 OFFCURVE",
"1302 1237 OFFCURVE",
"1331 1232 CURVE",
"1366 1434 LINE",
"1282 1448 OFFCURVE",
"1206 1431 OFFCURVE",
"1137 1383 CURVE SMOOTH",
"1067 1334 OFFCURVE",
"1026 1268 OFFCURVE",
"1011 1185 CURVE SMOOTH",
"972 964 LINE",
"1174 928 LINE"
);
},
{
closed = 1;
nodes = (
"289 0 LINE",
"496 0 LINE",
"649 856 LINE",
"801 0 LINE",
"1008 0 LINE",
"1264 1434 LINE",
"972 964 LINE",
"905 596 LINE",
"752 1436 LINE",
"545 1436 LINE",
"391 596 LINE",
"240 1436 LINE",
"33 1436 LINE"
);
}
);
width = 1296;
}
);
unicode = 2C72;
},
{
glyphname = X;
lastChange = "2023-05-03 16:12:38 +0000";
layers = (
{
layerId = master01;
paths = (
{
closed = 1;
nodes = (
"-4 0 LINE",
"203 0 LINE",
"356 432 LINE",
"508 0 LINE",
"715 0 LINE",
"459 717 LINE",
"715 1436 LINE",
"508 1436 LINE",
"356 1004 LINE",
"203 1436 LINE",
"-4 1436 LINE",
"252 717 LINE"
);
}
);
width = 712;
}
);
unicode = 0058;
},
{
glyphname = Y;
lastChange = "2023-05-03 16:12:38 +0000";
layers = (
{
layerId = master01;
paths = (
{
closed = 1;
nodes = (
"262 -2 LINE",
"469 -2 LINE",
"469 408 LINE",
"725 1434 LINE",
"518 1434 LINE",
"367 821 LINE",
"213 1434 LINE",
"6 1434 LINE",
"262 408 LINE"
);
}
);
width = 737;
}
);
unicode = 0059;
},
{
glyphname = Yhook;
lastChange = "2023-04-14 16:12:10 +0000";
layers = (
{
layerId = master01;
paths = (
{
closed = 1;
nodes = (
"668 1163 LINE SMOOTH",
"675 1192 OFFCURVE",
"691 1213 OFFCURVE",
"715 1227 CURVE SMOOTH",
"738 1241 OFFCURVE",
"763 1245 OFFCURVE",
"792 1238 CURVE",
"841 1437 LINE",
"759 1457 OFFCURVE",
"682 1445 OFFCURVE",
"609 1402 CURVE SMOOTH",
"535 1358 OFFCURVE",
"489 1295 OFFCURVE",
"469 1213 CURVE SMOOTH",
"415 996 LINE",
"614 946 LINE"
);
},
{
closed = 1;
nodes = (
"262 -2 LINE",
"469 -2 LINE",
"469 408 LINE",
"614 946 LINE",
"415 996 LINE",
"367 821 LINE",
"213 1434 LINE",
"6 1434 LINE",
"262 408 LINE"
);
}
);
width = 737;
}
);
unicode = 01B3;
},
{
glyphname = Z;
lastChange = "2023-05-03 16:12:38 +0000";
layers = (
{
layerId = master01;
paths = (
{
closed = 1;
nodes = (
"31 1229 LINE",
"440 1229 LINE",
"31 203 LINE",
"31 0 LINE",
"643 0 LINE",
"643 203 LINE",
"233 203 LINE",
"643 1229 LINE",
"643 1432 LINE",
"31 1434 LINE"
);
}
);
userData = {
com.fontlab.hintData = {
vhints = (
{
position = 31;
width = 612;
}
);
};
};
width = 673;
}
);
unicode = 005A;
},
{
glyphname = a;
lastChange = "2023-05-03 16:12:38 +0000";
layers = (
{
layerId = master01;
paths = (
{
closed = 1;
nodes = (
"442.667 1024 OFFCURVE",
"515.167 994 OFFCURVE",
"575.5 934 CURVE SMOOTH",
"635.833 874 OFFCURVE",
"666 801.667 OFFCURVE",
"666 717 CURVE SMOOTH",
"666 0 LINE",
"459 0 LINE",
"460 182 LINE SMOOTH",
"459.999 174.667 OFFCURVE",
"455.666 158.333 OFFCURVE",
"447 133 CURVE SMOOTH",
"439.667 109.667 OFFCURVE",
"429.5 89.167 OFFCURVE",
"416.5 71.5 CURVE SMOOTH",
"403.5 53.833 OFFCURVE",
"383 37.5 OFFCURVE",
"355 22.5 CURVE SMOOTH",
"327 7.5 OFFCURVE",
"294 0 OFFCURVE",
"256 0 CURVE SMOOTH",
"218 0 OFFCURVE",
"185 7.167 OFFCURVE",
"157 21.5 CURVE SMOOTH",
"129 35.833 OFFCURVE",
"108.5 52.833 OFFCURVE",
"95.5 72.5 CURVE SMOOTH",
"82.5 92.167 OFFCURVE",
"72.167 112 OFFCURVE",
"64.5 132 CURVE SMOOTH",
"56.833 152 OFFCURVE",
"53 169.333 OFFCURVE",
"53 184 CURVE",
"51 205 LINE",
"51 307 LINE SMOOTH",
"51 391.667 OFFCURVE",
"81 464 OFFCURVE",
"141 524 CURVE SMOOTH",
"201 584 OFFCURVE",
"273.333 614 OFFCURVE",
"358 614 CURVE SMOOTH",
"386.667 614 OFFCURVE",
"411 624 OFFCURVE",
"431 644 CURVE SMOOTH",
"451 664.001 OFFCURVE",
"461 688.334 OFFCURVE",
"461 717 CURVE SMOOTH",
"461 745.668 OFFCURVE",
"451 769.835 OFFCURVE",
"431 789.5 CURVE SMOOTH",
"411 809.169 OFFCURVE",
"386.667 819.002 OFFCURVE",
"358 819 CURVE SMOOTH",
"329.333 819 OFFCURVE",
"305.166 809.167 OFFCURVE",
"285.5 789.5 CURVE SMOOTH",
"265.833 769.833 OFFCURVE",
"256 745.667 OFFCURVE",
"256 717 CURVE",
"51 717 LINE",
"51 801.667 OFFCURVE",
"81 874 OFFCURVE",
"141 934 CURVE SMOOTH",
"201 994 OFFCURVE",
"273.333 1024 OFFCURVE",
"358 1024 CURVE SMOOTH"
);
},
{
closed = 1;
nodes = (
"388 205 OFFCURVE",
"411.667 213.5 OFFCURVE",
"429 230.5 CURVE SMOOTH",
"446.333 247.5 OFFCURVE",
"456.333 264.333 OFFCURVE",
"459 281 CURVE",
"461 307 LINE",
"461 428 LINE",
"428.333 416 OFFCURVE",
"394 410 OFFCURVE",
"358 410 CURVE SMOOTH",
"329.333 410 OFFCURVE",
"305.166 400 OFFCURVE",
"285.5 380 CURVE SMOOTH",
"265.833 360 OFFCURVE",
"256 335.666 OFFCURVE",
"256 307 CURVE SMOOTH",
"256 304.331 OFFCURVE",
"256.333 300.664 OFFCURVE",
"257 296 CURVE SMOOTH",
"257.667 291.332 OFFCURVE",
"259.667 283.166 OFFCURVE",
"263 271.5 CURVE SMOOTH",
"266.334 259.833 OFFCURVE",
"271.168 249.5 OFFCURVE",
"277.5 240.5 CURVE SMOOTH",
"283.834 231.5 OFFCURVE",
"294.001 223.333 OFFCURVE",
"308 216 CURVE SMOOTH",
"322 208.666 OFFCURVE",
"338.667 205 OFFCURVE",
"358 205 CURVE SMOOTH"
);
}
);
userData = {
com.fontlab.hintData = {
hhints = (
{
position = 0;
width = 205;
},
{
position = 410;
width = 204;
},
{
position = 819;
width = 205;
}
);
vhints = (
{
position = 51;
width = 205;
},
{
position = 461;
width = 205;
}
);
};
};
width = 733;
}
);
unicode = 0061;
},
{
glyphname = aacute;
lastChange = "2023-03-27 12:14:05 +0000";
layers = (
{
components = (
{
name = acutecomb;
transform = "{1, 0, 0, 1, 191, -127}";
}
);
layerId = master01;
paths = (
{
closed = 1;
nodes = (
"442.667 1024 OFFCURVE",
"515.167 994 OFFCURVE",
"575.5 934 CURVE SMOOTH",
"635.833 874 OFFCURVE",
"666 801.667 OFFCURVE",
"666 717 CURVE SMOOTH",
"666 0 LINE",
"459 0 LINE",
"460 182 LINE SMOOTH",
"460 189 OFFCURVE",
"455.666 158.333 OFFCURVE",
"447 133 CURVE SMOOTH",
"439.667 109.667 OFFCURVE",
"429.5 89.167 OFFCURVE",
"416.5 71.5 CURVE SMOOTH",
"403.5 53.833 OFFCURVE",
"383 37.5 OFFCURVE",
"355 22.5 CURVE SMOOTH",
"327 7.5 OFFCURVE",
"294 0 OFFCURVE",
"256 0 CURVE SMOOTH",
"218 0 OFFCURVE",
"185 7.167 OFFCURVE",
"157 21.5 CURVE SMOOTH",
"129 35.833 OFFCURVE",
"108.5 52.833 OFFCURVE",
"95.5 72.5 CURVE SMOOTH",
"82.5 92.167 OFFCURVE",
"72.167 112 OFFCURVE",
"64.5 132 CURVE SMOOTH",
"56.833 152 OFFCURVE",
"53 169.333 OFFCURVE",
"53 184 CURVE",
"51 205 LINE",
"51 307 LINE SMOOTH",
"51 391.667 OFFCURVE",
"81 464 OFFCURVE",
"141 524 CURVE SMOOTH",
"201 584 OFFCURVE",
"273.333 614 OFFCURVE",
"358 614 CURVE SMOOTH",
"386.667 614 OFFCURVE",
"411 624 OFFCURVE",
"431 644 CURVE SMOOTH",
"451 664.001 OFFCURVE",
"461 688.334 OFFCURVE",
"461 717 CURVE SMOOTH",
"461 745.668 OFFCURVE",
"451 769.835 OFFCURVE",
"431 789.5 CURVE SMOOTH",
"411 809.169 OFFCURVE",
"386.667 819.002 OFFCURVE",
"358 819 CURVE SMOOTH",
"329.333 819 OFFCURVE",
"305.166 809.167 OFFCURVE",
"285.5 789.5 CURVE SMOOTH",
"265.833 769.833 OFFCURVE",
"256 745.667 OFFCURVE",
"256 717 CURVE",
"51 717 LINE",
"51 801.667 OFFCURVE",
"81 874 OFFCURVE",
"141 934 CURVE SMOOTH",
"201 994 OFFCURVE",
"273.333 1024 OFFCURVE",
"358 1024 CURVE SMOOTH"
);
},
{
closed = 1;
nodes = (
"388 205 OFFCURVE",
"411.667 213.5 OFFCURVE",
"429 230.5 CURVE SMOOTH",
"446.333 247.5 OFFCURVE",
"456.333 264.333 OFFCURVE",
"459 281 CURVE",
"461 307 LINE",
"461 428 LINE",
"428.333 416 OFFCURVE",
"394 410 OFFCURVE",
"358 410 CURVE SMOOTH",
"329.333 410 OFFCURVE",
"305.166 400 OFFCURVE",
"285.5 380 CURVE SMOOTH",
"265.833 360 OFFCURVE",
"256 335.666 OFFCURVE",
"256 307 CURVE SMOOTH",
"256 304.331 OFFCURVE",
"256.333 300.664 OFFCURVE",
"257 296 CURVE SMOOTH",
"257.667 291.332 OFFCURVE",
"259.667 283.166 OFFCURVE",
"263 271.5 CURVE SMOOTH",
"266.334 259.833 OFFCURVE",
"271.168 249.5 OFFCURVE",
"277.5 240.5 CURVE SMOOTH",
"283.834 231.5 OFFCURVE",
"294.001 223.333 OFFCURVE",
"308 216 CURVE SMOOTH",
"322 208.666 OFFCURVE",
"338.667 205 OFFCURVE",
"358 205 CURVE SMOOTH"
);
}
);
userData = {
com.fontlab.hintData = {
hhints = (
{
position = 0;
width = 205;
},
{
position = 410;
width = 204;
},
{
position = 819;
width = 205;
},
{
position = 1137;
width = 236;
}
);
vhints = (
{
position = 51;
width = 205;
},
{
position = 269;
width = 364;
},
{
position = 461;
width = 205;
}
);
};
};
width = 733;
}
);
leftMetricsKey = a;
rightMetricsKey = a;
unicode = 00E1;
},
{
glyphname = adieresis;
lastChange = "2023-03-27 11:01:28 +0000";
layers = (
{
components = (
{
name = dieresiscomb;
transform = "{1, 0, 0, 1, 24, -98}";
}
);
layerId = master01;
paths = (
{
closed = 1;
nodes = (
"442.667 1024 OFFCURVE",
"515.167 994 OFFCURVE",
"575.5 934 CURVE SMOOTH",
"635.833 874 OFFCURVE",
"666 801.667 OFFCURVE",
"666 717 CURVE SMOOTH",
"666 0 LINE",
"459 0 LINE",
"460 182 LINE SMOOTH",
"460 189 OFFCURVE",
"455.666 158.333 OFFCURVE",
"447 133 CURVE SMOOTH",
"439.667 109.667 OFFCURVE",
"429.5 89.167 OFFCURVE",
"416.5 71.5 CURVE SMOOTH",
"403.5 53.833 OFFCURVE",
"383 37.5 OFFCURVE",
"355 22.5 CURVE SMOOTH",
"327 7.5 OFFCURVE",
"294 0 OFFCURVE",
"256 0 CURVE SMOOTH",
"218 0 OFFCURVE",
"185 7.167 OFFCURVE",
"157 21.5 CURVE SMOOTH",
"129 35.833 OFFCURVE",
"108.5 52.833 OFFCURVE",
"95.5 72.5 CURVE SMOOTH",
"82.5 92.167 OFFCURVE",
"72.167 112 OFFCURVE",
"64.5 132 CURVE SMOOTH",
"56.833 152 OFFCURVE",
"53 169.333 OFFCURVE",
"53 184 CURVE",
"51 205 LINE",
"51 307 LINE SMOOTH",
"51 391.667 OFFCURVE",
"81 464 OFFCURVE",
"141 524 CURVE SMOOTH",
"201 584 OFFCURVE",
"273.333 614 OFFCURVE",
"358 614 CURVE SMOOTH",
"386.667 614 OFFCURVE",
"411 624 OFFCURVE",
"431 644 CURVE SMOOTH",
"451 664.001 OFFCURVE",
"461 688.334 OFFCURVE",
"461 717 CURVE SMOOTH",
"461 745.668 OFFCURVE",
"451 769.835 OFFCURVE",
"431 789.5 CURVE SMOOTH",
"411 809.169 OFFCURVE",
"386.667 819.002 OFFCURVE",
"358 819 CURVE SMOOTH",
"329.333 819 OFFCURVE",
"305.166 809.167 OFFCURVE",
"285.5 789.5 CURVE SMOOTH",
"265.833 769.833 OFFCURVE",
"256 745.667 OFFCURVE",
"256 717 CURVE",
"51 717 LINE",
"51 801.667 OFFCURVE",
"81 874 OFFCURVE",
"141 934 CURVE SMOOTH",
"201 994 OFFCURVE",
"273.333 1024 OFFCURVE",
"358 1024 CURVE SMOOTH"
);
},
{
closed = 1;
nodes = (
"388 205 OFFCURVE",
"411.667 213.5 OFFCURVE",
"429 230.5 CURVE SMOOTH",
"446.333 247.5 OFFCURVE",
"456.333 264.333 OFFCURVE",
"459 281 CURVE",
"461 307 LINE",
"461 428 LINE",
"428.333 416 OFFCURVE",
"394 410 OFFCURVE",
"358 410 CURVE SMOOTH",
"329.333 410 OFFCURVE",
"305.166 400 OFFCURVE",
"285.5 380 CURVE SMOOTH",
"265.833 360 OFFCURVE",
"256 335.666 OFFCURVE",
"256 307 CURVE SMOOTH",
"256 304.331 OFFCURVE",
"256.333 300.664 OFFCURVE",
"257 296 CURVE SMOOTH",
"257.667 291.332 OFFCURVE",
"259.667 283.166 OFFCURVE",
"263 271.5 CURVE SMOOTH",
"266.334 259.833 OFFCURVE",
"271.168 249.5 OFFCURVE",
"277.5 240.5 CURVE SMOOTH",
"283.834 231.5 OFFCURVE",
"294.001 223.333 OFFCURVE",
"308 216 CURVE SMOOTH",
"322 208.666 OFFCURVE",
"338.667 205 OFFCURVE",
"358 205 CURVE SMOOTH"
);
}
);
userData = {
com.fontlab.hintData = {
hhints = (
{
position = 0;
width = 205;
},
{
position = 410;
width = 204;
},
{
position = 819;
width = 205;
},
{
position = 1229;
width = 203;
}
);
vhints = (
{
position = 51;
width = 205;
},
{
position = 60;
width = 202;
},
{
position = 461;
width = 205;
},
{
position = 469;
width = 203;
}
);
};
};
width = 744;
}
);
leftMetricsKey = a;
rightMetricsKey = a;
unicode = 00E4;
},
{
glyphname = agrave;
lastChange = "2023-03-27 11:11:34 +0000";
layers = (
{
components = (
{
name = grave;
transform = "{1, 0, 0, 1, 109, -128}";
}
);
layerId = master01;
paths = (
{
closed = 1;
nodes = (
"443 1024 OFFCURVE",
"515 994 OFFCURVE",
"576 934 CURVE SMOOTH",
"636 874 OFFCURVE",
"666 802 OFFCURVE",
"666 717 CURVE SMOOTH",
"666 0 LINE",
"459 0 LINE",
"460 182 LINE SMOOTH",
"460 189 OFFCURVE",
"456 158 OFFCURVE",
"447 133 CURVE SMOOTH",
"440 110 OFFCURVE",
"430 89 OFFCURVE",
"417 72 CURVE SMOOTH",
"404 54 OFFCURVE",
"383 38 OFFCURVE",
"355 23 CURVE SMOOTH",
"327 8 OFFCURVE",
"294 0 OFFCURVE",
"256 0 CURVE SMOOTH",
"218 0 OFFCURVE",
"185 7 OFFCURVE",
"157 22 CURVE SMOOTH",
"129 36 OFFCURVE",
"109 53 OFFCURVE",
"96 73 CURVE SMOOTH",
"83 92 OFFCURVE",
"72 112 OFFCURVE",
"65 132 CURVE SMOOTH",
"57 152 OFFCURVE",
"53 169 OFFCURVE",
"53 184 CURVE",
"51 205 LINE",
"51 307 LINE SMOOTH",
"51 392 OFFCURVE",
"81 464 OFFCURVE",
"141 524 CURVE SMOOTH",
"201 584 OFFCURVE",
"273 614 OFFCURVE",
"358 614 CURVE SMOOTH",
"387 614 OFFCURVE",
"411 624 OFFCURVE",
"431 644 CURVE SMOOTH",
"451 664 OFFCURVE",
"461 688 OFFCURVE",
"461 717 CURVE SMOOTH",
"461 746 OFFCURVE",
"451 770 OFFCURVE",
"431 790 CURVE SMOOTH",
"411 809 OFFCURVE",
"387 819 OFFCURVE",
"358 819 CURVE SMOOTH",
"329 819 OFFCURVE",
"305 809 OFFCURVE",
"286 790 CURVE SMOOTH",
"266 770 OFFCURVE",
"256 746 OFFCURVE",
"256 717 CURVE",
"51 717 LINE",
"51 802 OFFCURVE",
"81 874 OFFCURVE",
"141 934 CURVE SMOOTH",
"201 994 OFFCURVE",
"273 1024 OFFCURVE",
"358 1024 CURVE SMOOTH"
);
},
{
closed = 1;
nodes = (
"388 205 OFFCURVE",
"412 214 OFFCURVE",
"429 231 CURVE SMOOTH",
"446 248 OFFCURVE",
"456 264 OFFCURVE",
"459 281 CURVE",
"461 307 LINE",
"461 428 LINE",
"428 416 OFFCURVE",
"394 410 OFFCURVE",
"358 410 CURVE SMOOTH",
"329 410 OFFCURVE",
"305 400 OFFCURVE",
"286 380 CURVE SMOOTH",
"266 360 OFFCURVE",
"256 336 OFFCURVE",
"256 307 CURVE SMOOTH",
"256 304 OFFCURVE",
"256 301 OFFCURVE",
"257 296 CURVE SMOOTH",
"258 291 OFFCURVE",
"260 283 OFFCURVE",
"263 272 CURVE SMOOTH",
"266 260 OFFCURVE",
"271 250 OFFCURVE",
"278 241 CURVE SMOOTH",
"284 232 OFFCURVE",
"294 223 OFFCURVE",
"308 216 CURVE SMOOTH",
"322 209 OFFCURVE",
"339 205 OFFCURVE",
"358 205 CURVE SMOOTH"
);
}
);
userData = {
com.fontlab.hintData = {
hhints = (
{
position = 0;
width = 205;
},
{
position = 410;
width = 204;
},
{
position = 819;
width = 205;
},
{
position = 1146;
width = 238;
}
);
vhints = (
{
position = 51;
width = 205;
},
{
position = 101;
width = 364;
},
{
position = 461;
width = 205;
}
);
};
};
width = 733;
}
);
leftMetricsKey = a;
rightMetricsKey = a;
unicode = 00E0;
},
{
glyphname = "alpha-latin";
lastChange = "2023-05-03 14:48:53 +0000";
layers = (
{
layerId = master01;
paths = (
{
closed = 1;
nodes = (
"57 819 LINE",
"59 840 LINE SMOOTH",
"59 855 OFFCURVE",
"63 872 OFFCURVE",
"70 892 CURVE SMOOTH",
"77 912 OFFCURVE",
"87 932 OFFCURVE",
"100 952 CURVE SMOOTH",
"113 971 OFFCURVE",
"134 988 OFFCURVE",
"162 1003 CURVE SMOOTH",
"190 1017 OFFCURVE",
"223 1024 OFFCURVE",
"261 1024 CURVE SMOOTH",
"300 1024 OFFCURVE",
"333 1017 OFFCURVE",
"361 1002 CURVE SMOOTH",
"389 987 OFFCURVE",
"409 970 OFFCURVE",
"422 953 CURVE SMOOTH",
"435 935 OFFCURVE",
"446 914 OFFCURVE",
"453 891 CURVE SMOOTH",
"460 868 OFFCURVE",
"464 851 OFFCURVE",
"465 842 CURVE SMOOTH",
"466 832 OFFCURVE",
"466 814 OFFCURVE",
"466 819 CURVE SMOOTH",
"466 1024 LINE",
"671 1024 LINE",
"671 0 LINE",
"466 0 LINE",
"466 205 LINE SMOOTH",
"466 210 OFFCURVE",
"466 192 OFFCURVE",
"465 182 CURVE SMOOTH",
"464 173 OFFCURVE",
"460 156 OFFCURVE",
"453 133 CURVE SMOOTH",
"446 110 OFFCURVE",
"435 89 OFFCURVE",
"422 71 CURVE SMOOTH",
"409 54 OFFCURVE",
"389 37 OFFCURVE",
"361 22 CURVE SMOOTH",
"333 7 OFFCURVE",
"300 0 OFFCURVE",
"261 0 CURVE SMOOTH",
"223 0 OFFCURVE",
"190 7 OFFCURVE",
"162 21 CURVE SMOOTH",
"134 36 OFFCURVE",
"113 53 OFFCURVE",
"100 72 CURVE SMOOTH",
"87 92 OFFCURVE",
"77 112 OFFCURVE",
"70 132 CURVE SMOOTH",
"63 152 OFFCURVE",
"59 169 OFFCURVE",
"59 184 CURVE SMOOTH",
"57 205 LINE"
);
},
{
closed = 1;
nodes = (
"261 300 OFFCURVE",
"262 293 OFFCURVE",
"264 285 CURVE SMOOTH",
"267 278 OFFCURVE",
"271 267 OFFCURVE",
"276 252 CURVE SMOOTH",
"281 238 OFFCURVE",
"291 227 OFFCURVE",
"306 218 CURVE SMOOTH",
"321 209 OFFCURVE",
"341 205 OFFCURVE",
"364 205 CURVE SMOOTH",
"385 205 OFFCURVE",
"402 209 OFFCURVE",
"417 217 CURVE SMOOTH",
"432 225 OFFCURVE",
"443 235 OFFCURVE",
"449 247 CURVE SMOOTH",
"455 260 OFFCURVE",
"459 270 OFFCURVE",
"462 278 CURVE SMOOTH",
"465 287 OFFCURVE",
"466 295 OFFCURVE",
"466 303 CURVE SMOOTH",
"466 721 LINE SMOOTH",
"466 729 OFFCURVE",
"465 737 OFFCURVE",
"462 746 CURVE SMOOTH",
"459 754 OFFCURVE",
"455 764 OFFCURVE",
"449 777 CURVE SMOOTH",
"443 789 OFFCURVE",
"432 799 OFFCURVE",
"417 807 CURVE SMOOTH",
"402 815 OFFCURVE",
"385 819 OFFCURVE",
"364 819 CURVE SMOOTH",
"341 819 OFFCURVE",
"321 815 OFFCURVE",
"306 806 CURVE SMOOTH",
"291 797 OFFCURVE",
"281 786 OFFCURVE",
"276 772 CURVE SMOOTH",
"271 757 OFFCURVE",
"267 746 OFFCURVE",
"264 739 CURVE SMOOTH",
"262 731 OFFCURVE",
"261 724 OFFCURVE",
"261 719 CURVE SMOOTH",
"261 305 LINE SMOOTH"
);
}
);
width = 738;
}
);
unicode = 0251;
},
{
glyphname = ae;
lastChange = "2023-05-03 16:12:55 +0000";
layers = (
{
layerId = master01;
paths = (
{
closed = 1;
nodes = (
"854.667 1028 OFFCURVE",
"926.667 998 OFFCURVE",
"986 938 CURVE SMOOTH",
"1045.34 878 OFFCURVE",
"1075 805.667 OFFCURVE",
"1075 721 CURVE SMOOTH",
"1075 618 LINE",
"1075 416 LINE",
"870 416 LINE",
"668 416 LINE",
"668 313 LINE SMOOTH",
"668.004 284.333 OFFCURVE",
"677.837 260.167 OFFCURVE",
"697.5 240.5 CURVE SMOOTH",
"717.168 220.833 OFFCURVE",
"741.001 211 OFFCURVE",
"769 211 CURVE SMOOTH",
"797.001 211 OFFCURVE",
"820.834 220.833 OFFCURVE",
"840.5 240.5 CURVE SMOOTH",
"860.172 260.167 OFFCURVE",
"870.005 284.333 OFFCURVE",
"870 313 CURVE",
"1075 313 LINE",
"1075 228.333 OFFCURVE",
"1045.33 156 OFFCURVE",
"986 96 CURVE SMOOTH",
"926.667 36 OFFCURVE",
"854.667 6 OFFCURVE",
"770 6 CURVE SMOOTH",
"685.333 6 OFFCURVE",
"613 36 OFFCURVE",
"553 96 CURVE SMOOTH",
"493 156 OFFCURVE",
"463 228.333 OFFCURVE",
"463 313 CURVE SMOOTH",
"463 721 LINE SMOOTH",
"463 805.667 OFFCURVE",
"493 878 OFFCURVE",
"553 938 CURVE SMOOTH",
"613 998 OFFCURVE",
"685.333 1028 OFFCURVE",
"770 1028 CURVE SMOOTH"
);
},
{
closed = 1;
nodes = (
"874 618 LINE",
"874 721 LINE SMOOTH",
"874 749.668 OFFCURVE",
"864.167 773.835 OFFCURVE",
"844.5 793.5 CURVE SMOOTH",
"824.833 813.169 OFFCURVE",
"801 823.002 OFFCURVE",
"773 823 CURVE SMOOTH",
"745 823 OFFCURVE",
"721.167 813.167 OFFCURVE",
"701.5 793.5 CURVE SMOOTH",
"681.833 773.833 OFFCURVE",
"672 749.667 OFFCURVE",
"672 721 CURVE SMOOTH",
"672 618 LINE"
);
},
{
closed = 1;
nodes = (
"449.667 1028 OFFCURVE",
"521.667 998 OFFCURVE",
"581 938 CURVE SMOOTH",
"640.333 878 OFFCURVE",
"670 805.667 OFFCURVE",
"670 721 CURVE SMOOTH",
"670 227 LINE",
"506 227 LINE",
"532 215 LINE SMOOTH",
"524 219 OFFCURVE",
"512.333 210.667 OFFCURVE",
"497 190 CURVE SMOOTH",
"489.667 180.666 OFFCURVE",
"482.5 164.333 OFFCURVE",
"475.5 141 CURVE SMOOTH",
"468.5 117.667 OFFCURVE",
"458.5 97.167 OFFCURVE",
"445.5 79.5 CURVE SMOOTH",
"432.5 61.833 OFFCURVE",
"412 45.5 OFFCURVE",
"384 30.5 CURVE SMOOTH",
"356 15.5 OFFCURVE",
"322.833 8 OFFCURVE",
"284.5 8 CURVE SMOOTH",
"246.167 8 OFFCURVE",
"209.333 14.833 OFFCURVE",
"174 28.5 CURVE SMOOTH",
"138.667 42.167 OFFCURVE",
"114.5 59 OFFCURVE",
"101.5 79 CURVE SMOOTH",
"88.5 99 OFFCURVE",
"78.167 118.833 OFFCURVE",
"70.5 138.5 CURVE SMOOTH",
"62.833 158.167 OFFCURVE",
"59 175.333 OFFCURVE",
"59 190 CURVE",
"57 211 LINE",
"57 313 LINE SMOOTH",
"57 397.667 OFFCURVE",
"87.167 469.667 OFFCURVE",
"147.5 529 CURVE SMOOTH",
"207.833 588.333 OFFCURVE",
"280.333 618 OFFCURVE",
"365 618 CURVE SMOOTH",
"392.334 618.002 OFFCURVE",
"416.167 628.335 OFFCURVE",
"436.5 649 CURVE SMOOTH",
"456.834 669.668 OFFCURVE",
"467 694.001 OFFCURVE",
"467 722 CURVE SMOOTH",
"467 750.001 OFFCURVE",
"456.833 773.835 OFFCURVE",
"436.5 793.5 CURVE SMOOTH",
"416.167 813.169 OFFCURVE",
"392 823.002 OFFCURVE",
"364 823 CURVE SMOOTH",
"336 823 OFFCURVE",
"312 813.167 OFFCURVE",
"292 793.5 CURVE SMOOTH",
"272 773.833 OFFCURVE",
"262 749.667 OFFCURVE",
"262 721 CURVE",
"57 721 LINE",
"57 805.667 OFFCURVE",
"87.167 878 OFFCURVE",
"147.5 938 CURVE SMOOTH",
"207.833 998 OFFCURVE",
"280.333 1028 OFFCURVE",
"365 1028 CURVE SMOOTH"
);
},
{
closed = 1;
nodes = (
"415.333 211 OFFCURVE",
"449 239.667 OFFCURVE",
"459 297 CURVE SMOOTH",
"460.339 303.667 OFFCURVE",
"461.005 309 OFFCURVE",
"461 313 CURVE SMOOTH",
"461 432 LINE",
"427 421.333 OFFCURVE",
"392.667 416 OFFCURVE",
"358 416 CURVE SMOOTH",
"329.333 415.999 OFFCURVE",
"305.166 405.666 OFFCURVE",
"285.5 385 CURVE SMOOTH",
"265.833 364.333 OFFCURVE",
"256 340.333 OFFCURVE",
"256 313 CURVE SMOOTH",
"256 302 LINE SMOOTH",
"256 297.332 OFFCURVE",
"258 289.166 OFFCURVE",
"262 277.5 CURVE SMOOTH",
"266.001 265.833 OFFCURVE",
"271.167 255.5 OFFCURVE",
"277.5 246.5 CURVE SMOOTH",
"283.834 237.5 OFFCURVE",
"294.001 229.333 OFFCURVE",
"308 222 CURVE SMOOTH",
"322 214.666 OFFCURVE",
"338.667 211 OFFCURVE",
"358 211 CURVE SMOOTH"
);
}
);
userData = {
com.fontlab.hintData = {
hhints = (
{
position = 8;
width = 203;
},
{
position = 215;
width = 12;
},
{
position = 416;
width = 202;
},
{
position = 823;
width = 205;
}
);
vhints = (
{
position = 57;
width = 199;
},
{
position = 463;
width = 207;
},
{
position = 874;
width = 201;
}
);
};
};
width = 1146;
}
);
unicode = 00E6;
},
{
glyphname = b;
lastChange = "2023-05-03 16:12:38 +0000";
layers = (
{
layerId = master01;
paths = (
{
closed = 1;
nodes = (
"86 1434 LINE",
"86 0 LINE",
"291 0 LINE",
"291 205 LINE SMOOTH",
"291 199.667 OFFCURVE",
"291.333 192.167 OFFCURVE",
"292 182.5 CURVE SMOOTH",
"292.667 172.833 OFFCURVE",
"296.667 156.333 OFFCURVE",
"304 133 CURVE SMOOTH",
"311.334 109.667 OFFCURVE",
"321.5 89.167 OFFCURVE",
"334.5 71.5 CURVE SMOOTH",
"347.5 53.833 OFFCURVE",
"368 37.5 OFFCURVE",
"396 22.5 CURVE SMOOTH",
"424 7.5 OFFCURVE",
"457.167 0 OFFCURVE",
"495.5 0 CURVE SMOOTH",
"533.833 0 OFFCURVE",
"567 7.167 OFFCURVE",
"595 21.5 CURVE SMOOTH",
"623 35.833 OFFCURVE",
"643.5 52.833 OFFCURVE",
"656.5 72.5 CURVE SMOOTH",
"669.5 92.167 OFFCURVE",
"679.667 112 OFFCURVE",
"687 132 CURVE SMOOTH",
"694.333 152 OFFCURVE",
"698 169.333 OFFCURVE",
"698 184 CURVE",
"700 205 LINE",
"700 307 LINE",
"700 717 LINE",
"700 819 LINE SMOOTH",
"700 824.333 OFFCURVE",
"699.667 831.833 OFFCURVE",
"699 841.5 CURVE SMOOTH",
"698.333 851.167 OFFCURVE",
"694.333 867.667 OFFCURVE",
"687 891 CURVE SMOOTH",
"679.664 914.333 OFFCURVE",
"669.498 934.833 OFFCURVE",
"656.5 952.5 CURVE SMOOTH",
"643.5 970.166 OFFCURVE",
"623 986.5 OFFCURVE",
"595 1001.5 CURVE SMOOTH",
"567 1016.5 OFFCURVE",
"533.833 1024 OFFCURVE",
"495.5 1024 CURVE SMOOTH",
"457.167 1023.99 OFFCURVE",
"424 1016.83 OFFCURVE",
"396 1002.5 CURVE SMOOTH",
"368 988.167 OFFCURVE",
"347.5 971.167 OFFCURVE",
"334.5 951.5 CURVE SMOOTH",
"321.5 931.833 OFFCURVE",
"311.333 912 OFFCURVE",
"304 892 CURVE SMOOTH",
"296.667 872 OFFCURVE",
"293 854.667 OFFCURVE",
"293 840 CURVE",
"291 819 LINE",
"291 1434 LINE"
);
},
{
closed = 1;
nodes = (
"291 717 LINE SMOOTH",
"291 719.672 OFFCURVE",
"291.333 723.338 OFFCURVE",
"292 728 CURVE SMOOTH",
"292.667 732.672 OFFCURVE",
"294.667 740.838 OFFCURVE",
"298 752.5 CURVE SMOOTH",
"301.335 764.171 OFFCURVE",
"306.168 774.504 OFFCURVE",
"312.5 783.5 CURVE SMOOTH",
"318.834 792.5 OFFCURVE",
"329.167 800.667 OFFCURVE",
"343.5 808 CURVE SMOOTH",
"357.833 815.333 OFFCURVE",
"374.333 819 OFFCURVE",
"393 819 CURVE SMOOTH",
"423 819 OFFCURVE",
"446.5 810.5 OFFCURVE",
"463.5 793.5 CURVE SMOOTH",
"480.5 776.5 OFFCURVE",
"490.666 759 OFFCURVE",
"494 741 CURVE",
"496 717 LINE",
"496 307 LINE SMOOTH",
"495.985 304.331 OFFCURVE",
"495.652 300.664 OFFCURVE",
"495 296 CURVE SMOOTH",
"494.325 291.332 OFFCURVE",
"492.159 283.166 OFFCURVE",
"488.5 271.5 CURVE SMOOTH",
"484.833 259.833 OFFCURVE",
"480 249.5 OFFCURVE",
"474 240.5 CURVE SMOOTH",
"468 231.5 OFFCURVE",
"457.833 223.333 OFFCURVE",
"443.5 216 CURVE SMOOTH",
"429.167 208.666 OFFCURVE",
"412.5 205 OFFCURVE",
"393.5 205 CURVE SMOOTH",
"374.5 205 OFFCURVE",
"357.833 208.334 OFFCURVE",
"343.5 215 CURVE SMOOTH",
"329.167 221.667 OFFCURVE",
"318.833 230.167 OFFCURVE",
"312.5 240.5 CURVE SMOOTH",
"306.167 250.834 OFFCURVE",
"301.333 261.167 OFFCURVE",
"298 271.5 CURVE SMOOTH",
"294.667 281.833 OFFCURVE",
"292.333 290.333 OFFCURVE",
"291 297 CURVE",
"291 307 LINE"
);
}
);
userData = {
com.fontlab.hintData = {
hhints = (
{
position = 0;
width = 205;
},
{
position = 819;
width = 205;
}
);
vhints = (
{
position = 86;
width = 205;
},
{
position = 496;
width = 204;
}
);
};
};
width = 786;
}
);
unicode = 0062;
},
{
glyphname = bhook;
lastChange = "2023-04-14 15:50:25 +0000";
layers = (
{
layerId = master01;
paths = (
{
closed = 1;
nodes = (
"291 1127 LINE SMOOTH",
"291 1156 OFFCURVE",
"301 1180 OFFCURVE",
"321 1200 CURVE SMOOTH",
"340 1219 OFFCURVE",
"364 1229 OFFCURVE",
"393 1229 CURVE",
"393 1434 LINE",
"308 1434 OFFCURVE",
"236 1404 OFFCURVE",
"176 1344 CURVE SMOOTH",
"116 1284 OFFCURVE",
"86 1212 OFFCURVE",
"86 1127 CURVE SMOOTH",
"86 903 LINE",
"291 903 LINE"
);
},
{
closed = 1;
nodes = (
"86 1034 LINE",
"86 0 LINE",
"291 0 LINE",
"291 205 LINE SMOOTH",
"291 210 OFFCURVE",
"291 192 OFFCURVE",
"292 183 CURVE SMOOTH",
"293 173 OFFCURVE",
"297 156 OFFCURVE",
"304 133 CURVE SMOOTH",
"311 110 OFFCURVE",
"322 89 OFFCURVE",
"335 72 CURVE SMOOTH",
"348 54 OFFCURVE",
"368 38 OFFCURVE",
"396 23 CURVE SMOOTH",
"424 8 OFFCURVE",
"457 0 OFFCURVE",
"496 0 CURVE SMOOTH",
"534 0 OFFCURVE",
"567 7 OFFCURVE",
"595 22 CURVE SMOOTH",
"623 36 OFFCURVE",
"644 53 OFFCURVE",
"657 73 CURVE SMOOTH",
"670 92 OFFCURVE",
"680 112 OFFCURVE",
"687 132 CURVE SMOOTH",
"694 152 OFFCURVE",
"698 169 OFFCURVE",
"698 184 CURVE",
"700 205 LINE",
"700 307 LINE",
"700 717 LINE",
"700 819 LINE SMOOTH",
"700 824 OFFCURVE",
"700 832 OFFCURVE",
"699 842 CURVE SMOOTH",
"698 851 OFFCURVE",
"694 868 OFFCURVE",
"687 891 CURVE SMOOTH",
"680 914 OFFCURVE",
"669 935 OFFCURVE",
"657 953 CURVE SMOOTH",
"644 970 OFFCURVE",
"623 987 OFFCURVE",
"595 1002 CURVE SMOOTH",
"567 1017 OFFCURVE",
"534 1024 OFFCURVE",
"496 1024 CURVE SMOOTH",
"457 1024 OFFCURVE",
"424 1017 OFFCURVE",
"396 1003 CURVE SMOOTH",
"368 988 OFFCURVE",
"348 971 OFFCURVE",
"335 952 CURVE SMOOTH",
"322 932 OFFCURVE",
"311 912 OFFCURVE",
"304 892 CURVE SMOOTH",
"297 872 OFFCURVE",
"293 855 OFFCURVE",
"293 840 CURVE",
"291 819 LINE",
"291 1034 LINE"
);
},
{
closed = 1;
nodes = (
"291 717 LINE SMOOTH",
"291 720 OFFCURVE",
"291 723 OFFCURVE",
"292 728 CURVE SMOOTH",
"293 733 OFFCURVE",
"295 741 OFFCURVE",
"298 753 CURVE SMOOTH",
"301 764 OFFCURVE",
"306 775 OFFCURVE",
"313 784 CURVE SMOOTH",
"319 793 OFFCURVE",
"329 801 OFFCURVE",
"344 808 CURVE SMOOTH",
"358 815 OFFCURVE",
"374 819 OFFCURVE",
"393 819 CURVE SMOOTH",
"423 819 OFFCURVE",
"447 811 OFFCURVE",
"464 794 CURVE SMOOTH",
"481 777 OFFCURVE",
"491 759 OFFCURVE",
"494 741 CURVE",
"496 717 LINE",
"496 307 LINE SMOOTH",
"496 304 OFFCURVE",
"496 301 OFFCURVE",
"495 296 CURVE SMOOTH",
"494 291 OFFCURVE",
"492 283 OFFCURVE",
"489 272 CURVE SMOOTH",
"485 260 OFFCURVE",
"480 250 OFFCURVE",
"474 241 CURVE SMOOTH",
"468 232 OFFCURVE",
"458 223 OFFCURVE",
"444 216 CURVE SMOOTH",
"429 209 OFFCURVE",
"413 205 OFFCURVE",
"394 205 CURVE SMOOTH",
"375 205 OFFCURVE",
"358 208 OFFCURVE",
"344 215 CURVE SMOOTH",
"329 222 OFFCURVE",
"319 230 OFFCURVE",
"313 241 CURVE SMOOTH",
"306 251 OFFCURVE",
"301 261 OFFCURVE",
"298 272 CURVE SMOOTH",
"295 282 OFFCURVE",
"292 290 OFFCURVE",
"291 297 CURVE",
"291 307 LINE"
);
}
);
width = 786;
}
);
unicode = 0253;
},
{
glyphname = c;
lastChange = "2023-05-03 16:12:38 +0000";
layers = (
{
layerId = master01;
paths = (
{
closed = 1;
nodes = (
"417.667 205 OFFCURVE",
"442 214.833 OFFCURVE",
"462 234.5 CURVE SMOOTH",
"482 254.167 OFFCURVE",
"492 278.333 OFFCURVE",
"492 307 CURVE",
"696 307 LINE",
"696 222.333 OFFCURVE",
"666 150 OFFCURVE",
"606 90 CURVE SMOOTH",
"546 30 OFFCURVE",
"473.666 0 OFFCURVE",
"389 0 CURVE SMOOTH",
"304.333 0 OFFCURVE",
"232 30 OFFCURVE",
"172 90 CURVE SMOOTH",
"112 150 OFFCURVE",
"82 222.333 OFFCURVE",
"82 307 CURVE SMOOTH",
"82 717 LINE SMOOTH",
"82 801.667 OFFCURVE",
"112 874 OFFCURVE",
"172 934 CURVE SMOOTH",
"232 994 OFFCURVE",
"304.333 1024 OFFCURVE",
"389 1024 CURVE SMOOTH",
"473.667 1024 OFFCURVE",
"546 994 OFFCURVE",
"606 934 CURVE SMOOTH",
"666 874 OFFCURVE",
"696 801.667 OFFCURVE",
"696 717 CURVE",
"492 717 LINE",
"492 745.668 OFFCURVE",
"482 769.835 OFFCURVE",
"462 789.5 CURVE SMOOTH",
"442 809.169 OFFCURVE",
"417.666 819.002 OFFCURVE",
"389 819 CURVE SMOOTH",
"360.333 819 OFFCURVE",
"336.166 809.167 OFFCURVE",
"316.5 789.5 CURVE SMOOTH",
"296.833 769.833 OFFCURVE",
"287 745.667 OFFCURVE",
"287 717 CURVE SMOOTH",
"287 307 LINE SMOOTH",
"287 278.333 OFFCURVE",
"296.833 254.167 OFFCURVE",
"316.5 234.5 CURVE SMOOTH",
"336.167 214.833 OFFCURVE",
"360.333 205 OFFCURVE",
"389 205 CURVE SMOOTH"
);
}
);
userData = {
com.fontlab.hintData = {
hhints = (
{
position = 0;
width = 205;
},
{
position = 819;
width = 205;
}
);
vhints = (
{
position = 82;
width = 205;
},
{
position = 492;
width = 204;
}
);
};
};
width = 733;
}
);
unicode = 0063;
},
{
glyphname = chook;
lastChange = "2023-04-14 16:11:06 +0000";
layers = (
{
components = (
{
name = c;
}
);
layerId = master01;
paths = (
{
closed = 1;
nodes = (
"492 717 LINE",
"492 941 LINE SMOOTH",
"492 1026 OFFCURVE",
"522 1098 OFFCURVE",
"582 1158 CURVE SMOOTH",
"642 1218 OFFCURVE",
"714 1248 OFFCURVE",
"799 1248 CURVE",
"799 1043 LINE",
"770 1043 OFFCURVE",
"746 1033 OFFCURVE",
"727 1014 CURVE SMOOTH",
"707 994 OFFCURVE",
"697 970 OFFCURVE",
"697 941 CURVE SMOOTH",
"697 717 LINE"
);
}
);
width = 733;
}
);
unicode = 0188;
},
{
glyphname = d;
lastChange = "2023-05-03 16:12:38 +0000";
layers = (
{
layerId = master01;
paths = (
{
closed = 1;
nodes = (
"700 1434 LINE",
"700 0 LINE",
"496 0 LINE",
"496 205 LINE SMOOTH",
"495.985 199.667 OFFCURVE",
"495.652 192.167 OFFCURVE",
"495 182.5 CURVE SMOOTH",
"494.331 172.833 OFFCURVE",
"490.164 156.333 OFFCURVE",
"482.5 133 CURVE SMOOTH",
"474.833 109.667 OFFCURVE",
"464.499 89.167 OFFCURVE",
"451.5 71.5 CURVE SMOOTH",
"438.5 53.833 OFFCURVE",
"418 37.5 OFFCURVE",
"390 22.5 CURVE SMOOTH",
"362 7.5 OFFCURVE",
"328.833 0 OFFCURVE",
"290.5 0 CURVE SMOOTH",
"252.167 0 OFFCURVE",
"219.167 7.167 OFFCURVE",
"191.5 21.5 CURVE SMOOTH",
"163.833 35.833 OFFCURVE",
"143.5 52.833 OFFCURVE",
"130.5 72.5 CURVE SMOOTH",
"117.5 92.167 OFFCURVE",
"107.167 112 OFFCURVE",
"99.5 132 CURVE SMOOTH",
"91.833 152 OFFCURVE",
"88 169.333 OFFCURVE",
"88 184 CURVE",
"86 205 LINE",
"86 307 LINE",
"86 717 LINE",
"86 819 LINE SMOOTH",
"86 824.333 OFFCURVE",
"86.333 831.833 OFFCURVE",
"87 841.5 CURVE SMOOTH",
"87.667 851.167 OFFCURVE",
"91.833 867.667 OFFCURVE",
"99.5 891 CURVE SMOOTH",
"107.167 914.333 OFFCURVE",
"117.5 934.833 OFFCURVE",
"130.5 952.5 CURVE SMOOTH",
"143.5 970.166 OFFCURVE",
"163.833 986.5 OFFCURVE",
"191.5 1001.5 CURVE SMOOTH",
"219.167 1016.5 OFFCURVE",
"252.167 1024 OFFCURVE",
"290.5 1024 CURVE SMOOTH",
"328.833 1023.99 OFFCURVE",
"362 1016.83 OFFCURVE",
"390 1002.5 CURVE SMOOTH",
"418 988.167 OFFCURVE",
"438.5 971.167 OFFCURVE",
"451.5 951.5 CURVE SMOOTH",
"464.5 931.833 OFFCURVE",
"474.833 912 OFFCURVE",
"482.5 892 CURVE SMOOTH",
"490.167 872 OFFCURVE",
"494 854.667 OFFCURVE",
"494 840 CURVE",
"496 819 LINE",
"496 1434 LINE"
);
},
{
closed = 1;
nodes = (
"496 717 LINE SMOOTH",
"495.985 719.672 OFFCURVE",
"495.652 723.338 OFFCURVE",
"495 728 CURVE SMOOTH",
"494.325 732.672 OFFCURVE",
"492.159 740.838 OFFCURVE",
"488.5 752.5 CURVE SMOOTH",
"484.833 764.171 OFFCURVE",
"480 774.504 OFFCURVE",
"474 783.5 CURVE SMOOTH",
"468 792.5 OFFCURVE",
"457.833 800.667 OFFCURVE",
"443.5 808 CURVE SMOOTH",
"429.167 815.333 OFFCURVE",
"412.333 819 OFFCURVE",
"393 819 CURVE SMOOTH",
"363 819 OFFCURVE",
"339.5 810.5 OFFCURVE",
"322.5 793.5 CURVE SMOOTH",
"305.5 776.5 OFFCURVE",
"295.666 759 OFFCURVE",
"293 741 CURVE",
"291 717 LINE",
"291 307 LINE SMOOTH",
"291 304.331 OFFCURVE",
"291.333 300.664 OFFCURVE",
"292 296 CURVE SMOOTH",
"292.667 291.332 OFFCURVE",
"294.667 283.166 OFFCURVE",
"298 271.5 CURVE SMOOTH",
"301.335 259.833 OFFCURVE",
"306.168 249.5 OFFCURVE",
"312.5 240.5 CURVE SMOOTH",
"318.834 231.5 OFFCURVE",
"329.167 223.333 OFFCURVE",
"343.5 216 CURVE SMOOTH",
"357.833 208.666 OFFCURVE",
"374.333 205 OFFCURVE",
"393 205 CURVE SMOOTH",
"423 205 OFFCURVE",
"446.5 213.5 OFFCURVE",
"463.5 230.5 CURVE SMOOTH",
"480.5 247.5 OFFCURVE",
"490.666 265 OFFCURVE",
"494 283 CURVE",
"496 307 LINE"
);
}
);
userData = {
com.fontlab.hintData = {
hhints = (
{
position = 0;
width = 205;
},
{
position = 819;
width = 205;
},
{
position = 1414;
width = 20;
}
);
vhints = (
{
position = 86;
width = 205;
},
{
position = 496;
width = 204;
}
);
};
};
width = 786;
}
);
unicode = 0064;
},
{
glyphname = eth;
lastChange = "2023-05-03 16:07:37 +0000";
layers = (
{
layerId = master01;
paths = (
{
closed = 1;
nodes = (
"461.667 1020 OFFCURVE",
"534 990.667 OFFCURVE",
"594 932 CURVE SMOOTH",
"654 873.333 OFFCURVE",
"684.667 801.667 OFFCURVE",
"686 717 CURVE",
"686 305 LINE SMOOTH",
"686 219 OFFCURVE",
"655.667 146 OFFCURVE",
"595 86 CURVE SMOOTH",
"534.333 26 OFFCURVE",
"461.667 -4 OFFCURVE",
"377 -4 CURVE SMOOTH",
"292.333 -4 OFFCURVE",
"220.333 25.333 OFFCURVE",
"161 84 CURVE SMOOTH",
"101.667 142.667 OFFCURVE",
"70.667 213.667 OFFCURVE",
"68 297 CURVE",
"68 305 LINE",
"68 711 LINE SMOOTH",
"68 797 OFFCURVE",
"98 870 OFFCURVE",
"158 930 CURVE SMOOTH",
"218 990 OFFCURVE",
"291 1020 OFFCURVE",
"377 1020 CURVE SMOOTH"
);
},
{
closed = 1;
nodes = (
"348.333 813 OFFCURVE",
"324 803.167 OFFCURVE",
"304 783.5 CURVE SMOOTH",
"284 763.833 OFFCURVE",
"274 740.333 OFFCURVE",
"274 713 CURVE SMOOTH",
"274 305 LINE SMOOTH",
"274 276.333 OFFCURVE",
"284 252.167 OFFCURVE",
"304 232.5 CURVE SMOOTH",
"324 212.833 OFFCURVE",
"348.333 203 OFFCURVE",
"377 203 CURVE SMOOTH",
"404.334 203 OFFCURVE",
"428.167 212.5 OFFCURVE",
"448.5 231.5 CURVE SMOOTH",
"468.834 250.5 OFFCURVE",
"479 273.667 OFFCURVE",
"479 301 CURVE SMOOTH",
"479 711 LINE SMOOTH",
"478.999 739.668 OFFCURVE",
"469.166 763.835 OFFCURVE",
"449.5 783.5 CURVE SMOOTH",
"429.833 803.166 OFFCURVE",
"405.666 812.999 OFFCURVE",
"377 813 CURVE SMOOTH"
);
},
{
closed = 1;
nodes = (
"422 1434 LINE",
"671 811 LINE",
"466 811 LINE",
"364 1067 LINE",
"216 1434 LINE"
);
},
{
closed = 1;
nodes = (
"289 1061 LINE",
"112 1164 LINE",
"539 1406 LINE",
"717 1303 LINE"
);
}
);
width = 784;
}
);
unicode = 00F0;
},
{
glyphname = dhook;
lastChange = "2023-04-14 15:21:54 +0000";
layers = (
{
layerId = master01;
paths = (
{
closed = 1;
nodes = (
"496 903 LINE",
"496 1127 LINE SMOOTH",
"496 1212 OFFCURVE",
"525 1284 OFFCURVE",
"585 1344 CURVE SMOOTH",
"645 1404 OFFCURVE",
"717 1434 OFFCURVE",
"802 1434 CURVE",
"802 1229 LINE",
"773 1229 OFFCURVE",
"749 1219 OFFCURVE",
"729 1200 CURVE SMOOTH",
"710 1180 OFFCURVE",
"700 1156 OFFCURVE",
"700 1127 CURVE SMOOTH",
"700 903 LINE"
);
},
{
closed = 1;
nodes = (
"700 1034 LINE",
"700 0 LINE",
"496 0 LINE",
"496 205 LINE SMOOTH",
"496 210 OFFCURVE",
"496 192 OFFCURVE",
"495 183 CURVE SMOOTH",
"494 173 OFFCURVE",
"490 156 OFFCURVE",
"483 133 CURVE SMOOTH",
"475 110 OFFCURVE",
"464 89 OFFCURVE",
"452 72 CURVE SMOOTH",
"439 54 OFFCURVE",
"418 38 OFFCURVE",
"390 23 CURVE SMOOTH",
"362 8 OFFCURVE",
"329 0 OFFCURVE",
"291 0 CURVE SMOOTH",
"252 0 OFFCURVE",
"219 7 OFFCURVE",
"192 22 CURVE SMOOTH",
"164 36 OFFCURVE",
"144 53 OFFCURVE",
"131 73 CURVE SMOOTH",
"118 92 OFFCURVE",
"107 112 OFFCURVE",
"100 132 CURVE SMOOTH",
"92 152 OFFCURVE",
"88 169 OFFCURVE",
"88 184 CURVE",
"86 205 LINE",
"86 307 LINE",
"86 717 LINE",
"86 819 LINE SMOOTH",
"86 824 OFFCURVE",
"86 832 OFFCURVE",
"87 842 CURVE SMOOTH",
"88 851 OFFCURVE",
"92 868 OFFCURVE",
"100 891 CURVE SMOOTH",
"107 914 OFFCURVE",
"118 935 OFFCURVE",
"131 953 CURVE SMOOTH",
"144 970 OFFCURVE",
"164 987 OFFCURVE",
"192 1002 CURVE SMOOTH",
"219 1017 OFFCURVE",
"252 1024 OFFCURVE",
"291 1024 CURVE SMOOTH",
"329 1024 OFFCURVE",
"362 1017 OFFCURVE",
"390 1003 CURVE SMOOTH",
"418 988 OFFCURVE",
"439 971 OFFCURVE",
"452 952 CURVE SMOOTH",
"465 932 OFFCURVE",
"475 912 OFFCURVE",
"483 892 CURVE SMOOTH",
"490 872 OFFCURVE",
"494 855 OFFCURVE",
"494 840 CURVE",
"496 819 LINE",
"496 1034 LINE"
);
},
{
closed = 1;
nodes = (
"496 717 LINE SMOOTH",
"496 720 OFFCURVE",
"496 723 OFFCURVE",
"495 728 CURVE SMOOTH",
"494 733 OFFCURVE",
"492 741 OFFCURVE",
"489 753 CURVE SMOOTH",
"485 764 OFFCURVE",
"480 775 OFFCURVE",
"474 784 CURVE SMOOTH",
"468 793 OFFCURVE",
"458 801 OFFCURVE",
"444 808 CURVE SMOOTH",
"429 815 OFFCURVE",
"412 819 OFFCURVE",
"393 819 CURVE SMOOTH",
"363 819 OFFCURVE",
"340 811 OFFCURVE",
"323 794 CURVE SMOOTH",
"306 777 OFFCURVE",
"296 759 OFFCURVE",
"293 741 CURVE",
"291 717 LINE",
"291 307 LINE SMOOTH",
"291 304 OFFCURVE",
"291 301 OFFCURVE",
"292 296 CURVE SMOOTH",
"293 291 OFFCURVE",
"295 283 OFFCURVE",
"298 272 CURVE SMOOTH",
"301 260 OFFCURVE",
"306 250 OFFCURVE",
"313 241 CURVE SMOOTH",
"319 232 OFFCURVE",
"329 223 OFFCURVE",
"344 216 CURVE SMOOTH",
"358 209 OFFCURVE",
"374 205 OFFCURVE",
"393 205 CURVE SMOOTH",
"423 205 OFFCURVE",
"447 214 OFFCURVE",
"464 231 CURVE SMOOTH",
"481 248 OFFCURVE",
"491 265 OFFCURVE",
"494 283 CURVE",
"496 307 LINE"
);
}
);
width = 786;
}
);
unicode = 0257;
},
{
glyphname = dtail;
lastChange = "2023-04-14 15:20:48 +0000";
layers = (
{
components = (
{
name = d;
}
);
layerId = master01;
paths = (
{
closed = 1;
nodes = (
"700 0 LINE SMOOTH",
"700 -29 OFFCURVE",
"710 -53 OFFCURVE",
"729 -73 CURVE SMOOTH",
"749 -92 OFFCURVE",
"773 -102 OFFCURVE",
"802 -102 CURVE",
"802 -307 LINE",
"717 -307 OFFCURVE",
"645 -277 OFFCURVE",
"585 -217 CURVE SMOOTH",
"525 -157 OFFCURVE",
"495 -85 OFFCURVE",
"495 0 CURVE SMOOTH",
"495 224 LINE",
"700 224 LINE"
);
}
);
width = 786;
}
);
unicode = 0256;
},
{
glyphname = e;
lastChange = "2023-05-03 16:12:38 +0000";
layers = (
{
anchors = (
{
name = bottom;
position = "{375, 0}";
},
{
name = ogonek;
position = "{674, 10}";
},
{
name = top;
position = "{375, 1024}";
}
);
layerId = master01;
paths = (
{
closed = 1;
nodes = (
"459.667 1024 OFFCURVE",
"532 994 OFFCURVE",
"592 934 CURVE SMOOTH",
"652 874 OFFCURVE",
"682 801.667 OFFCURVE",
"682 717 CURVE SMOOTH",
"682 614 LINE",
"682 410 LINE",
"477 410 LINE",
"272 410 LINE",
"272 307 LINE SMOOTH",
"272 278.333 OFFCURVE",
"282 254.167 OFFCURVE",
"302 234.5 CURVE SMOOTH",
"322 214.833 OFFCURVE",
"346.333 205 OFFCURVE",
"375 205 CURVE SMOOTH",
"403.667 205 OFFCURVE",
"427.833 214.833 OFFCURVE",
"447.5 234.5 CURVE SMOOTH",
"467.167 254.167 OFFCURVE",
"477 278.333 OFFCURVE",
"477 307 CURVE",
"682 307 LINE",
"682 222.333 OFFCURVE",
"652 150 OFFCURVE",
"592 90 CURVE SMOOTH",
"532 30 OFFCURVE",
"459.667 0 OFFCURVE",
"375 0 CURVE SMOOTH",
"290.333 0 OFFCURVE",
"218 30 OFFCURVE",
"158 90 CURVE SMOOTH",
"98 150 OFFCURVE",
"68 222.333 OFFCURVE",
"68 307 CURVE SMOOTH",
"68 717 LINE SMOOTH",
"68 801.667 OFFCURVE",
"98 874 OFFCURVE",
"158 934 CURVE SMOOTH",
"218 994 OFFCURVE",
"290.333 1024 OFFCURVE",
"375 1024 CURVE SMOOTH"
);
},
{
closed = 1;
nodes = (
"477 614 LINE",
"477 717 LINE SMOOTH",
"476.999 745.668 OFFCURVE",
"467.166 769.835 OFFCURVE",
"447.5 789.5 CURVE SMOOTH",
"427.833 809.169 OFFCURVE",
"403.666 819.002 OFFCURVE",
"375 819 CURVE SMOOTH",
"346.333 819 OFFCURVE",
"322 809.167 OFFCURVE",
"302 789.5 CURVE SMOOTH",
"282 769.833 OFFCURVE",
"272 745.667 OFFCURVE",
"272 717 CURVE SMOOTH",
"272 614 LINE"
);
}
);
userData = {
com.fontlab.hintData = {
hhints = (
{
position = 0;
width = 205;
},
{
position = 410;
width = 204;
},
{
position = 819;
width = 205;
}
);
vhints = (
{
position = 68;
width = 204;
},
{
position = 477;
width = 205;
}
);
};
};
width = 749;
}
);
unicode = 0065;
},
{
glyphname = ecircumflex;
lastChange = "2023-03-27 10:51:08 +0000";
layers = (
{
components = (
{
name = asciicircum;
transform = "{1, 0, 0, 1, 17, -111}";
}
);
layerId = master01;
paths = (
{
closed = 1;
nodes = (
"460 1024 OFFCURVE",
"532 994 OFFCURVE",
"592 934 CURVE SMOOTH",
"652 874 OFFCURVE",
"682 802 OFFCURVE",
"682 717 CURVE SMOOTH",
"682 614 LINE",
"682 410 LINE",
"477 410 LINE",
"272 410 LINE",
"272 307 LINE SMOOTH",
"272 278 OFFCURVE",
"282 254 OFFCURVE",
"302 235 CURVE SMOOTH",
"322 215 OFFCURVE",
"346 205 OFFCURVE",
"375 205 CURVE SMOOTH",
"404 205 OFFCURVE",
"428 215 OFFCURVE",
"448 235 CURVE SMOOTH",
"467 254 OFFCURVE",
"477 278 OFFCURVE",
"477 307 CURVE",
"682 307 LINE",
"682 222 OFFCURVE",
"652 150 OFFCURVE",
"592 90 CURVE SMOOTH",
"532 30 OFFCURVE",
"460 0 OFFCURVE",
"375 0 CURVE SMOOTH",
"290 0 OFFCURVE",
"218 30 OFFCURVE",
"158 90 CURVE SMOOTH",
"98 150 OFFCURVE",
"68 222 OFFCURVE",
"68 307 CURVE SMOOTH",
"68 717 LINE SMOOTH",
"68 802 OFFCURVE",
"98 874 OFFCURVE",
"158 934 CURVE SMOOTH",
"218 994 OFFCURVE",
"290 1024 OFFCURVE",
"375 1024 CURVE SMOOTH"
);
},
{
closed = 1;
nodes = (
"477 614 LINE",
"477 717 LINE SMOOTH",
"477 746 OFFCURVE",
"467 770 OFFCURVE",
"448 790 CURVE SMOOTH",
"428 809 OFFCURVE",
"404 819 OFFCURVE",
"375 819 CURVE SMOOTH",
"346 819 OFFCURVE",
"322 809 OFFCURVE",
"302 790 CURVE SMOOTH",
"282 770 OFFCURVE",
"272 746 OFFCURVE",
"272 717 CURVE SMOOTH",
"272 614 LINE"
);
}
);
userData = {
com.fontlab.hintData = {
hhints = (
{
position = 0;
width = 205;
},
{
position = 410;
width = 204;
},
{
position = 819;
width = 205;
},
{
position = 1160;
width = 221;
}
);
vhints = (
{
position = 67;
width = 204;
},
{
position = 97;
width = 567;
},
{
position = 476;
width = 205;
}
);
};
};
width = 749;
}
);
leftMetricsKey = e;
rightMetricsKey = e;
unicode = 00EA;
},
{
glyphname = edieresis;
lastChange = "2023-03-27 11:01:52 +0000";
layers = (
{
components = (
{
name = dieresiscomb;
transform = "{1, 0, 0, 1, 28, -98}";
}
);
layerId = master01;
paths = (
{
closed = 1;
nodes = (
"466 1024 OFFCURVE",
"538 994 OFFCURVE",
"598 934 CURVE SMOOTH",
"658 874 OFFCURVE",
"688 802 OFFCURVE",
"688 717 CURVE SMOOTH",
"688 614 LINE",
"688 410 LINE",
"483 410 LINE",
"278 410 LINE",
"278 307 LINE SMOOTH",
"278 278 OFFCURVE",
"288 254 OFFCURVE",
"308 235 CURVE SMOOTH",
"328 215 OFFCURVE",
"352 205 OFFCURVE",
"381 205 CURVE SMOOTH",
"410 205 OFFCURVE",
"434 215 OFFCURVE",
"454 235 CURVE SMOOTH",
"473 254 OFFCURVE",
"483 278 OFFCURVE",
"483 307 CURVE",
"688 307 LINE",
"688 222 OFFCURVE",
"658 150 OFFCURVE",
"598 90 CURVE SMOOTH",
"538 30 OFFCURVE",
"466 0 OFFCURVE",
"381 0 CURVE SMOOTH",
"296 0 OFFCURVE",
"224 30 OFFCURVE",
"164 90 CURVE SMOOTH",
"104 150 OFFCURVE",
"74 222 OFFCURVE",
"74 307 CURVE SMOOTH",
"74 717 LINE SMOOTH",
"74 802 OFFCURVE",
"104 874 OFFCURVE",
"164 934 CURVE SMOOTH",
"224 994 OFFCURVE",
"296 1024 OFFCURVE",
"381 1024 CURVE SMOOTH"
);
},
{
closed = 1;
nodes = (
"483 614 LINE",
"483 717 LINE SMOOTH",
"483 746 OFFCURVE",
"473 770 OFFCURVE",
"454 790 CURVE SMOOTH",
"434 809 OFFCURVE",
"410 819 OFFCURVE",
"381 819 CURVE SMOOTH",
"352 819 OFFCURVE",
"328 809 OFFCURVE",
"308 790 CURVE SMOOTH",
"288 770 OFFCURVE",
"278 746 OFFCURVE",
"278 717 CURVE SMOOTH",
"278 614 LINE"
);
}
);
userData = {
com.fontlab.hintData = {
hhints = (
{
position = 0;
width = 205;
},
{
position = 410;
width = 204;
},
{
position = 819;
width = 205;
},
{
position = 1229;
width = 203;
}
);
vhints = (
{
position = 63;
width = 202;
},
{
position = 68;
width = 204;
},
{
position = 472;
width = 203;
},
{
position = 477;
width = 205;
}
);
};
};
width = 755;
}
);
leftMetricsKey = e;
rightMetricsKey = e;
unicode = 00EB;
},
{
glyphname = eopen;
lastChange = "2023-05-03 15:55:07 +0000";
layers = (
{
layerId = master01;
paths = (
{
closed = 1;
nodes = (
"417.667 205 OFFCURVE",
"442 214.833 OFFCURVE",
"462 234.5 CURVE SMOOTH",
"482 254.167 OFFCURVE",
"492 278.333 OFFCURVE",
"492 307 CURVE",
"696 307 LINE",
"696 222.333 OFFCURVE",
"666 150 OFFCURVE",
"606 90 CURVE SMOOTH",
"546 30 OFFCURVE",
"473.666 0 OFFCURVE",
"389 0 CURVE SMOOTH",
"304.333 0 OFFCURVE",
"230 25 OFFCURVE",
"170 85 CURVE SMOOTH",
"110 145 OFFCURVE",
"82 214 OFFCURVE",
"82 287 CURVE SMOOTH",
"82 412 OFFCURVE",
"155 480 OFFCURVE",
"222 510 CURVE",
"155 540 OFFCURVE",
"82 612 OFFCURVE",
"82 737 CURVE SMOOTH",
"82 812 OFFCURVE",
"109 878 OFFCURVE",
"170 939 CURVE SMOOTH",
"230 999 OFFCURVE",
"304.333 1024 OFFCURVE",
"389 1024 CURVE SMOOTH",
"473.667 1024 OFFCURVE",
"546 994 OFFCURVE",
"606 934 CURVE SMOOTH",
"666 874 OFFCURVE",
"696 801.667 OFFCURVE",
"696 717 CURVE",
"492 717 LINE",
"492 745.668 OFFCURVE",
"482 769.835 OFFCURVE",
"462 789.5 CURVE SMOOTH",
"442 809.169 OFFCURVE",
"417.666 819.002 OFFCURVE",
"389 819 CURVE SMOOTH",
"360.333 819 OFFCURVE",
"336.166 809.167 OFFCURVE",
"316.5 789.5 CURVE SMOOTH",
"296.833 769.833 OFFCURVE",
"287 747 OFFCURVE",
"287 717 CURVE SMOOTH",
"287 657 OFFCURVE",
"344 610 OFFCURVE",
"457 610 CURVE",
"457 410 LINE",
"344 410 OFFCURVE",
"287 367 OFFCURVE",
"287 307 CURVE SMOOTH",
"287 278 OFFCURVE",
"296.833 254.167 OFFCURVE",
"316.5 234.5 CURVE SMOOTH",
"336.167 214.833 OFFCURVE",
"360.333 205 OFFCURVE",
"389 205 CURVE SMOOTH"
);
}
);
width = 733;
}
);
unicode = 025B;
},
{
glyphname = esh;
lastChange = "2023-04-14 16:13:56 +0000";
layers = (
{
layerId = master01;
paths = (
{
closed = 1;
nodes = (
"105 -410 OFFCURVE",
"177 -380 OFFCURVE",
"237 -320 CURVE SMOOTH",
"297 -260 OFFCURVE",
"327 -188 OFFCURVE",
"327 -103 CURVE SMOOTH",
"327 1127 LINE SMOOTH",
"327 1156 OFFCURVE",
"337 1180 OFFCURVE",
"357 1200 CURVE SMOOTH",
"376 1219 OFFCURVE",
"400 1229 OFFCURVE",
"429 1229 CURVE",
"429 1434 LINE",
"344 1434 OFFCURVE",
"272 1404 OFFCURVE",
"212 1344 CURVE SMOOTH",
"152 1284 OFFCURVE",
"122 1212 OFFCURVE",
"122 1127 CURVE SMOOTH",
"122 -103 LINE SMOOTH",
"122 -132 OFFCURVE",
"112 -156 OFFCURVE",
"92 -176 CURVE SMOOTH",
"73 -195 OFFCURVE",
"49 -205 OFFCURVE",
"20 -205 CURVE",
"20 -410 LINE"
);
}
);
width = 449;
}
);
unicode = 0283;
},
{
glyphname = ezh;
lastChange = "2023-05-03 15:55:49 +0000";
layers = (
{
layerId = master01;
paths = (
{
closed = 1;
nodes = (
"683 819 LINE",
"683 1024 LINE",
"71 1024 LINE",
"71 819 LINE",
"480 819 LINE",
"316 407 LINE",
"508 387 LINE"
);
},
{
closed = 1;
nodes = (
"559 361 OFFCURVE",
"585 345 OFFCURVE",
"616 309 CURVE SMOOTH",
"667 250 OFFCURVE",
"684 180 OFFCURVE",
"684 102 CURVE SMOOTH",
"684 -103 LINE SMOOTH",
"684 -188 OFFCURVE",
"654 -260 OFFCURVE",
"594 -320 CURVE SMOOTH",
"534 -380 OFFCURVE",
"462 -410 OFFCURVE",
"377 -410 CURVE SMOOTH",
"292 -410 OFFCURVE",
"220 -380 OFFCURVE",
"160 -320 CURVE SMOOTH",
"100 -260 OFFCURVE",
"70 -188 OFFCURVE",
"70 -103 CURVE SMOOTH",
"70 0 LINE",
"274 0 LINE",
"274 -103 LINE SMOOTH",
"274 -132 OFFCURVE",
"284 -156 OFFCURVE",
"304 -175 CURVE SMOOTH",
"324 -195 OFFCURVE",
"348 -205 OFFCURVE",
"377 -205 CURVE SMOOTH",
"406 -205 OFFCURVE",
"430 -195 OFFCURVE",
"450 -175 CURVE SMOOTH",
"469 -156 OFFCURVE",
"479 -132 OFFCURVE",
"479 -103 CURVE SMOOTH",
"479 102 LINE SMOOTH",
"479 131 OFFCURVE",
"471 157 OFFCURVE",
"450 175 CURVE SMOOTH",
"416 204 OFFCURVE",
"375 204 OFFCURVE",
"316 204 CURVE",
"316 407 LINE",
"508 387 LINE"
);
}
);
width = 753;
}
);
unicode = 0292;
},
{
glyphname = f;
lastChange = "2023-05-03 16:12:38 +0000";
layers = (
{
layerId = master01;
paths = (
{
closed = 1;
nodes = (
"430 1229 LINE",
"401.333 1229 OFFCURVE",
"377.166 1219 OFFCURVE",
"357.5 1199 CURVE SMOOTH",
"337.833 1179 OFFCURVE",
"328 1154.67 OFFCURVE",
"328 1126 CURVE SMOOTH",
"328 1024 LINE",
"430 1024 LINE",
"430 819 LINE",
"328 819 LINE",
"328 0 LINE",
"123 0 LINE",
"123 819 LINE",
"20 819 LINE",
"20 1024 LINE",
"123 1024 LINE",
"123 1130 LINE",
"124.333 1213.33 OFFCURVE",
"154.667 1284.83 OFFCURVE",
"214 1344.5 CURVE SMOOTH",
"273.333 1404.17 OFFCURVE",
"345.333 1434 OFFCURVE",
"430 1434 CURVE"
);
}
);
userData = {
com.fontlab.hintData = {
hhints = (
{
position = 0;
width = 21;
},
{
position = 819;
width = 205;
},
{
position = 1414;
width = 20;
}
);
vhints = (
{
position = 123;
width = 205;
}
);
};
};
width = 450;
}
);
unicode = 0066;
},
{
glyphname = g;
lastChange = "2023-05-03 16:12:38 +0000";
layers = (
{
layerId = master01;
paths = (
{
closed = 1;
nodes = (
"328.833 1023.99 OFFCURVE",
"362 1016.83 OFFCURVE",
"390 1002.5 CURVE SMOOTH",
"418 988.167 OFFCURVE",
"438.5 971.167 OFFCURVE",
"451.5 951.5 CURVE SMOOTH",
"464.5 931.833 OFFCURVE",
"474.833 912 OFFCURVE",
"482.5 892 CURVE SMOOTH",
"490.167 872 OFFCURVE",
"494 854.667 OFFCURVE",
"494 840 CURVE",
"496 819 LINE",
"496 1024 LINE",
"700 1024 LINE",
"700 -109 LINE",
"700 -113 LINE",
"698.665 -196.333 OFFCURVE",
"668.332 -267.667 OFFCURVE",
"609 -327 CURVE SMOOTH",
"549.666 -386.333 OFFCURVE",
"477.666 -416 OFFCURVE",
"393 -416 CURVE SMOOTH",
"308.333 -416 OFFCURVE",
"236 -386 OFFCURVE",
"176 -326 CURVE SMOOTH",
"116 -266 OFFCURVE",
"86 -193.667 OFFCURVE",
"86 -109 CURVE",
"291 -109 LINE",
"291 -137.667 OFFCURVE",
"300.833 -161.833 OFFCURVE",
"320.5 -181.5 CURVE SMOOTH",
"340.167 -201.167 OFFCURVE",
"364.333 -211 OFFCURVE",
"393 -211 CURVE SMOOTH",
"420.333 -211 OFFCURVE",
"444.333 -201.167 OFFCURVE",
"465 -181.5 CURVE SMOOTH",
"485.667 -161.833 OFFCURVE",
"496 -138.333 OFFCURVE",
"496 -111 CURVE SMOOTH",
"496 -109 LINE",
"496 205 LINE SMOOTH",
"495.985 199.667 OFFCURVE",
"495.652 192.167 OFFCURVE",
"495 182.5 CURVE SMOOTH",
"494.331 172.833 OFFCURVE",
"490.164 156.333 OFFCURVE",
"482.5 133 CURVE SMOOTH",
"474.833 109.667 OFFCURVE",
"464.499 89.167 OFFCURVE",
"451.5 71.5 CURVE SMOOTH",
"438.5 53.833 OFFCURVE",
"418 37.5 OFFCURVE",
"390 22.5 CURVE SMOOTH",
"362 7.5 OFFCURVE",
"328.833 0 OFFCURVE",
"290.5 0 CURVE SMOOTH",
"252.167 0 OFFCURVE",
"219.167 7.167 OFFCURVE",
"191.5 21.5 CURVE SMOOTH",
"163.833 35.833 OFFCURVE",
"143.5 52.833 OFFCURVE",
"130.5 72.5 CURVE SMOOTH",
"117.5 92.167 OFFCURVE",
"107.167 112 OFFCURVE",
"99.5 132 CURVE SMOOTH",
"91.833 152 OFFCURVE",
"88 169.333 OFFCURVE",
"88 184 CURVE",
"86 205 LINE",
"86 307 LINE",
"86 717 LINE",
"86 819 LINE SMOOTH",
"86 824.333 OFFCURVE",
"86.333 831.833 OFFCURVE",
"87 841.5 CURVE SMOOTH",
"87.667 851.167 OFFCURVE",
"91.833 867.667 OFFCURVE",
"99.5 891 CURVE SMOOTH",
"107.167 914.333 OFFCURVE",
"117.5 934.833 OFFCURVE",
"130.5 952.5 CURVE SMOOTH",
"143.5 970.166 OFFCURVE",
"163.833 986.5 OFFCURVE",
"191.5 1001.5 CURVE SMOOTH",
"219.167 1016.5 OFFCURVE",
"252.167 1024 OFFCURVE",
"290.5 1024 CURVE SMOOTH"
);
},
{
closed = 1;
nodes = (
"363 819 OFFCURVE",
"339.5 810.5 OFFCURVE",
"322.5 793.5 CURVE SMOOTH",
"305.5 776.5 OFFCURVE",
"295.666 759 OFFCURVE",
"293 741 CURVE",
"291 717 LINE",
"291 307 LINE SMOOTH",
"291 304.331 OFFCURVE",
"291.333 300.664 OFFCURVE",
"292 296 CURVE SMOOTH",
"292.667 291.332 OFFCURVE",
"294.667 283.166 OFFCURVE",
"298 271.5 CURVE SMOOTH",
"301.335 259.833 OFFCURVE",
"306.168 249.5 OFFCURVE",
"312.5 240.5 CURVE SMOOTH",
"318.834 231.5 OFFCURVE",
"329.167 223.333 OFFCURVE",
"343.5 216 CURVE SMOOTH",
"357.833 208.666 OFFCURVE",
"374.333 205 OFFCURVE",
"393 205 CURVE SMOOTH",
"423 205 OFFCURVE",
"446.5 213.5 OFFCURVE",
"463.5 230.5 CURVE SMOOTH",
"480.5 247.5 OFFCURVE",
"490.666 265 OFFCURVE",
"494 283 CURVE",
"496 307 LINE",
"496 717 LINE SMOOTH",
"495.985 719.672 OFFCURVE",
"495.652 723.338 OFFCURVE",
"495 728 CURVE SMOOTH",
"494.325 732.672 OFFCURVE",
"492.159 740.838 OFFCURVE",
"488.5 752.5 CURVE SMOOTH",
"484.833 764.171 OFFCURVE",
"480 774.504 OFFCURVE",
"474 783.5 CURVE SMOOTH",
"468 792.5 OFFCURVE",
"457.833 800.667 OFFCURVE",
"443.5 808 CURVE SMOOTH",
"429.167 815.333 OFFCURVE",
"412.333 819 OFFCURVE",
"393 819 CURVE SMOOTH"
);
}
);
userData = {
com.fontlab.hintData = {
hhints = (
{
position = -416;
width = 205;
},
{
position = 0;
width = 205;
},
{
position = 819;
width = 205;
}
);
vhints = (
{
position = 86;
width = 205;
},
{
position = 496;
width = 204;
}
);
};
};
width = 786;
}
);
unicode = 0067;
},
{
glyphname = "gamma-latin";
lastChange = "2023-05-03 15:49:19 +0000";
layers = (
{
background = {
paths = (
{
closed = 1;
nodes = (
"203 1024 LINE",
"305 512 LINE",
"408 1024 LINE",
"612 1024 LINE",
"408 0 LINE",
"408 -85 OFFCURVE",
"378 -157 OFFCURVE",
"318 -217 CURVE SMOOTH",
"257 -277 OFFCURVE",
"185 -307 OFFCURVE",
"100 -307 CURVE",
"100 -102 LINE",
"129 -102 OFFCURVE",
"153 -92 OFFCURVE",
"173 -73 CURVE SMOOTH",
"193 -53 OFFCURVE",
"203 -29 OFFCURVE",
"203 0 CURVE",
"-2 1024 LINE"
);
}
);
};
layerId = master01;
paths = (
{
closed = 1;
nodes = (
"154 244 LINE",
"130 138 OFFCURVE",
"76 18 OFFCURVE",
"74 -90 CURVE SMOOTH",
"72 -219 OFFCURVE",
"114 -410 OFFCURVE",
"304 -410 CURVE SMOOTH",
"494 -410 OFFCURVE",
"534 -216 OFFCURVE",
"534 -80 CURVE SMOOTH",
"534 7 OFFCURVE",
"479 138 OFFCURVE",
"456 244 CURVE",
"612 1024 LINE",
"408 1024 LINE",
"305 512 LINE",
"203 1024 LINE",
"-2 1024 LINE"
);
},
{
closed = 1;
nodes = (
"333 17 OFFCURVE",
"344 -59 OFFCURVE",
"344 -110 CURVE SMOOTH",
"344 -153 OFFCURVE",
"333 -205 OFFCURVE",
"303 -205 CURVE SMOOTH",
"273 -205 OFFCURVE",
"264 -153 OFFCURVE",
"264 -110 CURVE SMOOTH",
"264 -50 OFFCURVE",
"273 17 OFFCURVE",
"305 120 CURVE"
);
}
);
width = 610;
}
);
unicode = 0263;
},
{
glyphname = ghook;
lastChange = "2023-04-14 16:08:47 +0000";
layers = (
{
components = (
{
name = g;
}
);
layerId = master01;
paths = (
{
closed = 1;
nodes = (
"496 903 LINE",
"496 1127 LINE SMOOTH",
"496 1212 OFFCURVE",
"525 1284 OFFCURVE",
"585 1344 CURVE SMOOTH",
"645 1404 OFFCURVE",
"717 1434 OFFCURVE",
"802 1434 CURVE",
"802 1229 LINE",
"773 1229 OFFCURVE",
"749 1219 OFFCURVE",
"729 1200 CURVE SMOOTH",
"710 1180 OFFCURVE",
"700 1156 OFFCURVE",
"700 1127 CURVE SMOOTH",
"700 903 LINE"
);
}
);
width = 786;
}
);
unicode = 0260;
},
{
glyphname = glottalstop;
lastChange = "2023-04-14 16:09:31 +0000";
layers = (
{
layerId = master01;
paths = (
{
closed = 1;
nodes = (
"457.667 1434 OFFCURVE",
"530 1403.83 OFFCURVE",
"590 1343.5 CURVE SMOOTH",
"650 1283.17 OFFCURVE",
"680 1210.67 OFFCURVE",
"680 1126 CURVE SMOOTH",
"680 973 LINE SMOOTH",
"680 919.666 OFFCURVE",
"665.667 862.333 OFFCURVE",
"637 801 CURVE SMOOTH",
"625 775 OFFCURVE",
"601.5 736 OFFCURVE",
"566.5 684 CURVE SMOOTH",
"531.5 632 OFFCURVE",
"509.333 591.667 OFFCURVE",
"500 563 CURVE",
"493.333 539.667 OFFCURVE",
"487.833 515.5 OFFCURVE",
"483.5 490.5 CURVE SMOOTH",
"479.167 465.5 OFFCURVE",
"476.333 445.333 OFFCURVE",
"475 430 CURVE",
"475 410 LINE",
"475 0 LINE",
"270 0 LINE",
"270 461 LINE SMOOTH",
"270 514.333 OFFCURVE",
"284.333 571.667 OFFCURVE",
"313 633 CURVE SMOOTH",
"325 659 OFFCURVE",
"348.5 697.833 OFFCURVE",
"383.5 749.5 CURVE SMOOTH",
"418.5 801.168 OFFCURVE",
"441 841.335 OFFCURVE",
"451 870 CURVE",
"457.667 893.333 OFFCURVE",
"463 917.667 OFFCURVE",
"467 943 CURVE SMOOTH",
"471.005 968.333 OFFCURVE",
"473.672 988.667 OFFCURVE",
"475 1004 CURVE",
"475 1024 LINE",
"475 1126 LINE SMOOTH",
"474.999 1154.67 OFFCURVE",
"465.166 1179 OFFCURVE",
"445.5 1199 CURVE SMOOTH",
"425.833 1219 OFFCURVE",
"401.666 1229 OFFCURVE",
"373 1229 CURVE SMOOTH",
"344.333 1229 OFFCURVE",
"320 1219 OFFCURVE",
"300 1199 CURVE SMOOTH",
"280 1179 OFFCURVE",
"270 1154.67 OFFCURVE",
"270 1126 CURVE SMOOTH",
"270 1024 LINE",
"66 1024 LINE",
"66 1126 LINE SMOOTH",
"66 1210.67 OFFCURVE",
"96 1283.17 OFFCURVE",
"156 1343.5 CURVE SMOOTH",
"216 1403.84 OFFCURVE",
"288.333 1434 OFFCURVE",
"373 1434 CURVE SMOOTH"
);
}
);
width = 745;
}
);
unicode = 0294;
},
{
glyphname = glottalstopreversed;
lastChange = "2023-05-03 09:47:24 +0000";
layers = (
{
layerId = master01;
paths = (
{
closed = 1;
nodes = (
"458 1434 OFFCURVE",
"530 1404 OFFCURVE",
"590 1344 CURVE SMOOTH",
"650 1283 OFFCURVE",
"680 1211 OFFCURVE",
"680 1126 CURVE SMOOTH",
"680 1024 LINE",
"476 1024 LINE",
"476 1126 LINE SMOOTH",
"476 1155 OFFCURVE",
"466 1179 OFFCURVE",
"446 1199 CURVE SMOOTH",
"426 1219 OFFCURVE",
"402 1229 OFFCURVE",
"373 1229 CURVE SMOOTH",
"344 1229 OFFCURVE",
"320 1219 OFFCURVE",
"301 1199 CURVE SMOOTH",
"281 1179 OFFCURVE",
"271 1155 OFFCURVE",
"271 1126 CURVE SMOOTH",
"271 1024 LINE",
"271 1004 LINE",
"272 989 OFFCURVE",
"275 968 OFFCURVE",
"279 943 CURVE SMOOTH",
"283 918 OFFCURVE",
"288 893 OFFCURVE",
"295 870 CURVE",
"305 841 OFFCURVE",
"328 801 OFFCURVE",
"363 750 CURVE SMOOTH",
"398 698 OFFCURVE",
"421 659 OFFCURVE",
"433 633 CURVE SMOOTH",
"462 572 OFFCURVE",
"476 514 OFFCURVE",
"476 461 CURVE SMOOTH",
"476 0 LINE",
"271 0 LINE",
"271 410 LINE",
"271 430 LINE",
"270 445 OFFCURVE",
"267 466 OFFCURVE",
"263 491 CURVE SMOOTH",
"258 516 OFFCURVE",
"253 540 OFFCURVE",
"246 563 CURVE",
"237 592 OFFCURVE",
"215 632 OFFCURVE",
"180 684 CURVE SMOOTH",
"145 736 OFFCURVE",
"121 775 OFFCURVE",
"109 801 CURVE SMOOTH",
"80 862 OFFCURVE",
"66 920 OFFCURVE",
"66 973 CURVE SMOOTH",
"66 1126 LINE SMOOTH",
"66 1211 OFFCURVE",
"96 1283 OFFCURVE",
"156 1344 CURVE SMOOTH",
"216 1404 OFFCURVE",
"288 1434 OFFCURVE",
"373 1434 CURVE SMOOTH"
);
}
);
width = 745;
}
);
unicode = 0295;
},
{
glyphname = glottalstopsmall;
lastChange = "2023-05-03 09:48:02 +0000";
layers = (
{
layerId = master01;
paths = (
{
closed = 1;
nodes = (
"458 1024 OFFCURVE",
"530 994 OFFCURVE",
"590 934 CURVE SMOOTH",
"650 873 OFFCURVE",
"680 801 OFFCURVE",
"680 716 CURVE SMOOTH",
"680 563 LINE SMOOTH",
"680 510 OFFCURVE",
"666 452 OFFCURVE",
"637 391 CURVE SMOOTH",
"625 365 OFFCURVE",
"602 326 OFFCURVE",
"567 274 CURVE SMOOTH",
"532 222 OFFCURVE",
"509 182 OFFCURVE",
"500 153 CURVE",
"493 130 OFFCURVE",
"488 106 OFFCURVE",
"484 81 CURVE SMOOTH",
"479 56 OFFCURVE",
"476 35 OFFCURVE",
"475 20 CURVE",
"475 0 LINE",
"270 0 LINE",
"270 51 LINE SMOOTH",
"270 103 OFFCURVE",
"284 162 OFFCURVE",
"313 223 CURVE SMOOTH",
"325 249 OFFCURVE",
"349 288 OFFCURVE",
"384 340 CURVE SMOOTH",
"419 391 OFFCURVE",
"441 431 OFFCURVE",
"451 460 CURVE",
"458 483 OFFCURVE",
"463 508 OFFCURVE",
"467 533 CURVE SMOOTH",
"471 558 OFFCURVE",
"474 579 OFFCURVE",
"475 594 CURVE",
"475 614 LINE",
"475 716 LINE SMOOTH",
"475 745 OFFCURVE",
"465 769 OFFCURVE",
"446 789 CURVE SMOOTH",
"426 809 OFFCURVE",
"402 819 OFFCURVE",
"373 819 CURVE SMOOTH",
"344 819 OFFCURVE",
"320 809 OFFCURVE",
"300 789 CURVE SMOOTH",
"280 769 OFFCURVE",
"270 745 OFFCURVE",
"270 716 CURVE SMOOTH",
"270 614 LINE",
"66 614 LINE",
"66 716 LINE SMOOTH",
"66 801 OFFCURVE",
"96 873 OFFCURVE",
"156 934 CURVE SMOOTH",
"216 994 OFFCURVE",
"288 1024 OFFCURVE",
"373 1024 CURVE SMOOTH"
);
}
);
width = 745;
}
);
unicode = 0242;
},
{
glyphname = h;
lastChange = "2023-05-03 16:12:38 +0000";
layers = (
{
layerId = master01;
paths = (
{
closed = 1;
nodes = (
"291 1434 LINE",
"291 819 LINE SMOOTH",
"291 824.333 OFFCURVE",
"291.333 831.833 OFFCURVE",
"292 841.5 CURVE SMOOTH",
"292.667 851.167 OFFCURVE",
"296.667 867.667 OFFCURVE",
"304 891 CURVE SMOOTH",
"311.334 914.333 OFFCURVE",
"321.5 934.833 OFFCURVE",
"334.5 952.5 CURVE SMOOTH",
"347.5 970.166 OFFCURVE",
"368 986.5 OFFCURVE",
"396 1001.5 CURVE SMOOTH",
"424 1016.5 OFFCURVE",
"457.167 1024 OFFCURVE",
"495.5 1024 CURVE SMOOTH",
"533.833 1023.99 OFFCURVE",
"567 1016.83 OFFCURVE",
"595 1002.5 CURVE SMOOTH",
"623 988.167 OFFCURVE",
"643.5 971.167 OFFCURVE",
"656.5 951.5 CURVE SMOOTH",
"669.5 931.833 OFFCURVE",
"679.667 912 OFFCURVE",
"687 892 CURVE SMOOTH",
"694.333 872 OFFCURVE",
"698 854.667 OFFCURVE",
"698 840 CURVE",
"700 819 LINE",
"700 719 LINE",
"700 717 LINE",
"700 0 LINE",
"496 0 LINE",
"496 717 LINE",
"496 719 LINE SMOOTH",
"496 724.333 OFFCURVE",
"494.833 730.833 OFFCURVE",
"492.5 738.5 CURVE SMOOTH",
"490.167 746.167 OFFCURVE",
"486.333 757.167 OFFCURVE",
"481 771.5 CURVE SMOOTH",
"475.667 785.833 OFFCURVE",
"465.5 797.333 OFFCURVE",
"450.5 806 CURVE SMOOTH",
"435.5 814.675 OFFCURVE",
"416.333 819.009 OFFCURVE",
"393 819 CURVE SMOOTH",
"372.333 819 OFFCURVE",
"354.5 815 OFFCURVE",
"339.5 807 CURVE SMOOTH",
"324.5 798.998 OFFCURVE",
"314 788.832 OFFCURVE",
"308 776.5 CURVE SMOOTH",
"301.999 764.164 OFFCURVE",
"297.666 753.83 OFFCURVE",
"295 745.5 CURVE SMOOTH",
"292.327 737.164 OFFCURVE",
"290.993 728.997 OFFCURVE",
"291 721 CURVE SMOOTH",
"291 0 LINE",
"86 0 LINE",
"86 1434 LINE"
);
}
);
userData = {
com.fontlab.hintData = {
hhints = (
{
position = 0;
width = 21;
},
{
position = 819;
width = 205;
},
{
position = 1414;
width = 20;
}
);
vhints = (
{
position = 86;
width = 205;
},
{
position = 496;
width = 204;
}
);
};
};
width = 786;
}
);
unicode = 0068;
},
{
glyphname = hhook;
lastChange = "2023-04-14 16:08:09 +0000";
layers = (
{
layerId = master01;
paths = (
{
closed = 1;
nodes = (
"86 903 LINE",
"86 1127 LINE SMOOTH",
"86 1212 OFFCURVE",
"116 1284 OFFCURVE",
"176 1344 CURVE SMOOTH",
"236 1404 OFFCURVE",
"308 1434 OFFCURVE",
"393 1434 CURVE",
"393 1229 LINE",
"364 1229 OFFCURVE",
"340 1219 OFFCURVE",
"320 1200 CURVE SMOOTH",
"301 1180 OFFCURVE",
"291 1156 OFFCURVE",
"291 1127 CURVE SMOOTH",
"291 903 LINE"
);
},
{
closed = 1;
nodes = (
"291 1034 LINE",
"291 819 LINE SMOOTH",
"291 814 OFFCURVE",
"291 832 OFFCURVE",
"292 842 CURVE SMOOTH",
"293 851 OFFCURVE",
"297 868 OFFCURVE",
"304 891 CURVE SMOOTH",
"311 914 OFFCURVE",
"322 935 OFFCURVE",
"335 953 CURVE SMOOTH",
"348 970 OFFCURVE",
"368 987 OFFCURVE",
"396 1002 CURVE SMOOTH",
"424 1017 OFFCURVE",
"457 1024 OFFCURVE",
"496 1024 CURVE SMOOTH",
"534 1024 OFFCURVE",
"567 1017 OFFCURVE",
"595 1003 CURVE SMOOTH",
"623 988 OFFCURVE",
"644 971 OFFCURVE",
"657 952 CURVE SMOOTH",
"670 932 OFFCURVE",
"680 912 OFFCURVE",
"687 892 CURVE SMOOTH",
"694 872 OFFCURVE",
"698 855 OFFCURVE",
"698 840 CURVE",
"700 819 LINE",
"700 719 LINE",
"700 717 LINE",
"700 0 LINE",
"496 0 LINE",
"496 717 LINE",
"496 719 LINE SMOOTH",
"496 724 OFFCURVE",
"495 731 OFFCURVE",
"493 739 CURVE SMOOTH",
"490 746 OFFCURVE",
"486 757 OFFCURVE",
"481 772 CURVE SMOOTH",
"476 786 OFFCURVE",
"466 797 OFFCURVE",
"451 806 CURVE SMOOTH",
"436 815 OFFCURVE",
"416 819 OFFCURVE",
"393 819 CURVE SMOOTH",
"372 819 OFFCURVE",
"355 815 OFFCURVE",
"340 807 CURVE SMOOTH",
"325 799 OFFCURVE",
"314 789 OFFCURVE",
"308 777 CURVE SMOOTH",
"302 764 OFFCURVE",
"298 754 OFFCURVE",
"295 746 CURVE SMOOTH",
"292 737 OFFCURVE",
"291 729 OFFCURVE",
"291 721 CURVE SMOOTH",
"291 0 LINE",
"86 0 LINE",
"86 1034 LINE"
);
}
);
width = 786;
}
);
unicode = 0266;
},
{
glyphname = i;
lastChange = "2023-05-03 16:12:38 +0000";
layers = (
{
layerId = master01;
paths = (
{
closed = 1;
nodes = (
"291 1434 LINE",
"291 1229 LINE",
"86 1229 LINE",
"86 1434 LINE"
);
},
{
closed = 1;
nodes = (
"291 1024 LINE",
"291 0 LINE",
"86 0 LINE",
"86 1024 LINE"
);
}
);
userData = {
com.fontlab.hintData = {
hhints = (
{
position = 0;
width = 21;
},
{
position = 1004;
width = 20;
},
{
position = 1229;
width = 205;
}
);
vhints = (
{
position = 86;
width = 205;
}
);
};
};
width = 376;
}
);
unicode = 0069;
},
{
glyphname = idotless;
lastChange = "2023-03-27 11:18:56 +0000";
layers = (
{
layerId = master01;
paths = (
{
closed = 1;
nodes = (
"291 1024 LINE",
"291 0 LINE",
"86 0 LINE",
"86 1024 LINE"
);
}
);
width = 376;
}
);
leftMetricsKey = i;
rightMetricsKey = i;
unicode = 0131;
},
{
glyphname = iacute;
lastChange = "2023-03-27 12:15:02 +0000";
layers = (
{
components = (
{
name = acutecomb;
transform = "{1, 0, 0, 1, 46, -127}";
}
);
layerId = master01;
paths = (
{
closed = 1;
nodes = (
"356 1024 LINE",
"356 0 LINE",
"151 0 LINE",
"151 1024 LINE"
);
}
);
userData = {
com.fontlab.hintData = {
hhints = (
{
position = 0;
width = 21;
},
{
position = 1004;
width = 20;
},
{
position = 1209;
width = 236;
}
);
vhints = (
{
position = 86;
width = 205;
},
{
position = 97;
width = 364;
}
);
};
};
width = 535;
}
);
leftMetricsKey = i;
rightMetricsKey = i;
unicode = 00ED;
},
{
glyphname = icircumflex;
lastChange = "2023-03-27 10:51:45 +0000";
layers = (
{
components = (
{
name = asciicircum;
transform = "{1, 0, 0, 1, 9, -111}";
}
);
layerId = master01;
paths = (
{
closed = 1;
nodes = (
"473 1024 LINE",
"473 0 LINE",
"268 0 LINE",
"268 1024 LINE"
);
}
);
userData = {
com.fontlab.hintData = {
hhints = (
{
position = 0;
width = 21;
},
{
position = 1004;
width = 20;
},
{
position = 1224;
width = 221;
}
);
vhints = (
{
position = -75;
width = 567;
},
{
position = 104;
width = 205;
}
);
};
};
width = 738;
}
);
leftMetricsKey = i;
rightMetricsKey = i;
unicode = 00EE;
},
{
glyphname = idieresis;
lastChange = "2023-03-27 11:09:02 +0000";
layers = (
{
components = (
{
name = dieresiscomb;
transform = "{1, 0, 0, 1, 46, -98}";
}
);
layerId = master01;
paths = (
{
closed = 1;
nodes = (
"495 1024 LINE",
"495 0 LINE",
"290 0 LINE",
"290 1024 LINE"
);
}
);
userData = {
com.fontlab.hintData = {
hhints = (
{
position = 0;
width = 21;
},
{
position = 1004;
width = 20;
},
{
position = 1229;
width = 203;
}
);
vhints = (
{
position = -90;
width = 202;
},
{
position = 110;
width = 205;
},
{
position = 319;
width = 203;
}
);
};
};
width = 784;
}
);
leftMetricsKey = i;
rightMetricsKey = i;
unicode = 00EF;
},
{
glyphname = igrave;
lastChange = "2023-03-27 11:11:55 +0000";
layers = (
{
components = (
{
name = grave;
transform = "{1, 0, 0, 1, 46, -128}";
}
);
layerId = master01;
paths = (
{
closed = 1;
nodes = (
"416 1024 LINE",
"416 0 LINE",
"211 0 LINE",
"211 1024 LINE"
);
}
);
userData = {
com.fontlab.hintData = {
hhints = (
{
position = 0;
width = 21;
},
{
position = 1004;
width = 20;
},
{
position = 1206;
width = 238;
}
);
vhints = (
{
position = -61;
width = 364;
},
{
position = 101;
width = 205;
}
);
};
};
width = 535;
}
);
leftMetricsKey = i;
rightMetricsKey = i;
unicode = 00EC;
},
{
glyphname = "iota-latin";
lastChange = "2023-04-14 16:06:39 +0000";
layers = (
{
layerId = master01;
paths = (
{
closed = 1;
nodes = (
"291 307 LINE SMOOTH",
"291 278 OFFCURVE",
"301 254 OFFCURVE",
"320 234 CURVE SMOOTH",
"340 215 OFFCURVE",
"364 205 OFFCURVE",
"393 205 CURVE",
"393 0 LINE",
"308 0 OFFCURVE",
"236 30 OFFCURVE",
"176 90 CURVE SMOOTH",
"116 150 OFFCURVE",
"86 222 OFFCURVE",
"86 307 CURVE SMOOTH",
"86 1024 LINE",
"291 1024 LINE"
);
}
);
width = 478;
}
);
unicode = 0269;
},
{
glyphname = j;
lastChange = "2023-05-03 16:12:38 +0000";
layers = (
{
layerId = master01;
paths = (
{
closed = 1;
nodes = (
"262 1434 LINE",
"262 1229 LINE",
"57 1229 LINE",
"57 1434 LINE"
);
},
{
closed = 1;
nodes = (
"262 1024 LINE",
"262 0 LINE SMOOTH",
"262 -84.667 OFFCURVE",
"232 -157 OFFCURVE",
"172 -217 CURVE SMOOTH",
"112 -277 OFFCURVE",
"39.667 -307 OFFCURVE",
"-45 -307 CURVE",
"-45 -102 LINE",
"-16.333 -102 OFFCURVE",
"7.833 -92.167 OFFCURVE",
"27.5 -72.5 CURVE SMOOTH",
"47.167 -52.833 OFFCURVE",
"57 -28.667 OFFCURVE",
"57 0 CURVE SMOOTH",
"57 1024 LINE"
);
}
);
userData = {
com.fontlab.hintData = {
hhints = (
{
position = 1004;
width = 20;
},
{
position = 1229;
width = 205;
}
);
vhints = (
{
position = 57;
width = 205;
}
);
};
};
width = 348;
}
);
unicode = 006A;
},
{
glyphname = k;
lastChange = "2023-05-03 16:12:38 +0000";
layers = (
{
layerId = master01;
paths = (
{
closed = 1;
nodes = (
"291 1434 LINE",
"291 614 LINE",
"496 1024 LINE",
"700 1024 LINE",
"496 614 LINE",
"700 0 LINE",
"496 0 LINE",
"373 369 LINE",
"291 205 LINE",
"291 0 LINE",
"86 0 LINE",
"86 205 LINE",
"86 1434 LINE"
);
}
);
userData = {
com.fontlab.hintData = {
hhints = (
{
position = 0;
width = 21;
},
{
position = 1004;
width = 20;
},
{
position = 1414;
width = 20;
}
);
vhints = (
{
position = 86;
width = 205;
}
);
};
};
width = 686;
}
);
unicode = 006B;
},
{
glyphname = khook;
lastChange = "2023-04-14 16:07:13 +0000";
layers = (
{
layerId = master01;
paths = (
{
closed = 1;
nodes = (
"86 903 LINE",
"86 1127 LINE SMOOTH",
"86 1212 OFFCURVE",
"116 1284 OFFCURVE",
"176 1344 CURVE SMOOTH",
"236 1404 OFFCURVE",
"308 1434 OFFCURVE",
"393 1434 CURVE",
"393 1229 LINE",
"364 1229 OFFCURVE",
"340 1219 OFFCURVE",
"320 1200 CURVE SMOOTH",
"301 1180 OFFCURVE",
"291 1156 OFFCURVE",
"291 1127 CURVE SMOOTH",
"291 903 LINE"
);
},
{
closed = 1;
nodes = (
"291 1034 LINE",
"291 614 LINE",
"496 1024 LINE",
"700 1024 LINE",
"496 614 LINE",
"700 0 LINE",
"496 0 LINE",
"373 369 LINE",
"291 205 LINE",
"291 0 LINE",
"86 0 LINE",
"86 205 LINE",
"86 1034 LINE"
);
}
);
width = 686;
}
);
unicode = 0199;
},
{
glyphname = l;
lastChange = "2023-05-03 16:12:38 +0000";
layers = (
{
layerId = master01;
paths = (
{
closed = 1;
nodes = (
"279 1434 LINE",
"279 309 LINE",
"279 305 LINE",
"280.333 277.667 OFFCURVE",
"290.833 254.167 OFFCURVE",
"310.5 234.5 CURVE SMOOTH",
"330.167 214.833 OFFCURVE",
"354.333 205 OFFCURVE",
"383 205 CURVE",
"383 0 LINE",
"298.333 0 OFFCURVE",
"226 29.667 OFFCURVE",
"166 89 CURVE SMOOTH",
"106 148.333 OFFCURVE",
"75.333 220.333 OFFCURVE",
"74 305 CURVE",
"74 309 LINE",
"74 1434 LINE"
);
}
);
userData = {
com.fontlab.hintData = {
hhints = (
{
position = 0;
width = 205;
},
{
position = 1414;
width = 20;
}
);
vhints = (
{
position = 74;
width = 205;
}
);
};
};
width = 408;
}
);
unicode = 006C;
},
{
glyphname = lslash;
lastChange = "2023-03-27 12:31:20 +0000";
layers = (
{
layerId = master01;
paths = (
{
closed = 1;
nodes = (
"596 924 LINE",
"596 760 LINE",
"74 560 LINE",
"74 724 LINE"
);
},
{
closed = 1;
nodes = (
"432 1434 LINE",
"432 309 LINE",
"432 305 LINE",
"433 278 OFFCURVE",
"444 254 OFFCURVE",
"464 235 CURVE SMOOTH",
"483 215 OFFCURVE",
"507 205 OFFCURVE",
"536 205 CURVE",
"536 0 LINE",
"451 0 OFFCURVE",
"379 30 OFFCURVE",
"319 89 CURVE SMOOTH",
"259 148 OFFCURVE",
"228 220 OFFCURVE",
"227 305 CURVE",
"227 309 LINE",
"227 1434 LINE"
);
}
);
width = 621;
}
);
leftMetricsKey = l;
rightMetricsKey = l;
unicode = 0142;
},
{
glyphname = m;
lastChange = "2023-05-03 16:12:38 +0000";
layers = (
{
layerId = master01;
paths = (
{
closed = 1;
nodes = (
"291 1024 LINE",
"291 819 LINE SMOOTH",
"291 824.333 OFFCURVE",
"291.333 831.833 OFFCURVE",
"292 841.5 CURVE SMOOTH",
"292.667 851.167 OFFCURVE",
"296.667 867.667 OFFCURVE",
"304 891 CURVE SMOOTH",
"311.334 914.333 OFFCURVE",
"321.5 934.833 OFFCURVE",
"334.5 952.5 CURVE SMOOTH",
"347.5 970.166 OFFCURVE",
"368 986.5 OFFCURVE",
"396 1001.5 CURVE SMOOTH",
"424 1016.5 OFFCURVE",
"457.167 1024 OFFCURVE",
"495.5 1024 CURVE SMOOTH",
"533.833 1023.99 OFFCURVE",
"567 1016.83 OFFCURVE",
"595 1002.5 CURVE SMOOTH",
"623 988.167 OFFCURVE",
"643.5 971.167 OFFCURVE",
"656.5 951.5 CURVE SMOOTH",
"669.5 931.833 OFFCURVE",
"679.667 912 OFFCURVE",
"687 892 CURVE SMOOTH",
"694.333 872 OFFCURVE",
"698 854.667 OFFCURVE",
"698 840 CURVE",
"700 819 LINE SMOOTH",
"699.999 824.333 OFFCURVE",
"700.332 831.833 OFFCURVE",
"701 841.5 CURVE SMOOTH",
"701.68 851.167 OFFCURVE",
"705.847 867.667 OFFCURVE",
"713.5 891 CURVE SMOOTH",
"721.168 914.333 OFFCURVE",
"731.501 934.833 OFFCURVE",
"744.5 952.5 CURVE SMOOTH",
"757.5 970.166 OFFCURVE",
"778 986.5 OFFCURVE",
"806 1001.5 CURVE SMOOTH",
"834 1016.5 OFFCURVE",
"867.167 1024 OFFCURVE",
"905.5 1024 CURVE SMOOTH",
"943.833 1023.99 OFFCURVE",
"977 1016.83 OFFCURVE",
"1005 1002.5 CURVE SMOOTH",
"1033 988.167 OFFCURVE",
"1053.33 971.167 OFFCURVE",
"1066 951.5 CURVE SMOOTH",
"1078.67 931.833 OFFCURVE",
"1088.83 912 OFFCURVE",
"1096.5 892 CURVE SMOOTH",
"1104.17 872 OFFCURVE",
"1108 854.667 OFFCURVE",
"1108 840 CURVE",
"1110 819 LINE",
"1110 719 LINE",
"1110 0 LINE",
"905 0 LINE",
"905 717 LINE SMOOTH",
"905 719.672 OFFCURVE",
"904.667 723.338 OFFCURVE",
"904 728 CURVE SMOOTH",
"903.333 732.672 OFFCURVE",
"901.333 740.838 OFFCURVE",
"898 752.5 CURVE SMOOTH",
"894.66 764.171 OFFCURVE",
"889.827 774.504 OFFCURVE",
"883.5 783.5 CURVE SMOOTH",
"877.165 792.5 OFFCURVE",
"866.832 800.667 OFFCURVE",
"852.5 808 CURVE SMOOTH",
"838.167 815.333 OFFCURVE",
"821.667 819 OFFCURVE",
"803 819 CURVE SMOOTH",
"782.333 819 OFFCURVE",
"764.5 815 OFFCURVE",
"749.5 807 CURVE SMOOTH",
"734.5 798.998 OFFCURVE",
"724 788.832 OFFCURVE",
"718 776.5 CURVE SMOOTH",
"712 764.164 OFFCURVE",
"707.5 753.83 OFFCURVE",
"704.5 745.5 CURVE SMOOTH",
"701.5 737.164 OFFCURVE",
"700 728.997 OFFCURVE",
"700 721 CURVE SMOOTH",
"700 719 LINE",
"700 0 LINE",
"496 0 LINE",
"496 717 LINE SMOOTH",
"495.985 719.672 OFFCURVE",
"495.652 723.338 OFFCURVE",
"495 728 CURVE SMOOTH",
"494.325 732.672 OFFCURVE",
"492.159 740.838 OFFCURVE",
"488.5 752.5 CURVE SMOOTH",
"484.833 764.171 OFFCURVE",
"480 774.504 OFFCURVE",
"474 783.5 CURVE SMOOTH",
"468 792.5 OFFCURVE",
"457.833 800.667 OFFCURVE",
"443.5 808 CURVE SMOOTH",
"429.167 815.333 OFFCURVE",
"412.333 819 OFFCURVE",
"393 819 CURVE SMOOTH",
"372.333 819 OFFCURVE",
"354.5 815 OFFCURVE",
"339.5 807 CURVE SMOOTH",
"324.5 798.998 OFFCURVE",
"314 788.832 OFFCURVE",
"308 776.5 CURVE SMOOTH",
"301.999 764.164 OFFCURVE",
"297.666 753.83 OFFCURVE",
"295 745.5 CURVE SMOOTH",
"292.327 737.164 OFFCURVE",
"290.993 728.997 OFFCURVE",
"291 721 CURVE SMOOTH",
"291 0 LINE",
"86 0 LINE",
"86 1024 LINE"
);
}
);
userData = {
com.fontlab.hintData = {
hhints = (
{
position = 0;
width = 21;
},
{
position = 819;
width = 205;
}
);
vhints = (
{
position = 86;
width = 205;
},
{
position = 496;
width = 204;
},
{
position = 905;
width = 205;
}
);
};
};
width = 1196;
}
);
unicode = 006D;
},
{
glyphname = n;
lastChange = "2023-05-03 16:12:38 +0000";
layers = (
{
layerId = master01;
paths = (
{
closed = 1;
nodes = (
"291 1024 LINE",
"291 819 LINE SMOOTH",
"291 824.333 OFFCURVE",
"291.333 831.833 OFFCURVE",
"292 841.5 CURVE SMOOTH",
"292.667 851.167 OFFCURVE",
"296.667 867.667 OFFCURVE",
"304 891 CURVE SMOOTH",
"311.334 914.333 OFFCURVE",
"321.5 934.833 OFFCURVE",
"334.5 952.5 CURVE SMOOTH",
"347.5 970.166 OFFCURVE",
"368 986.5 OFFCURVE",
"396 1001.5 CURVE SMOOTH",
"424 1016.5 OFFCURVE",
"457.167 1024 OFFCURVE",
"495.5 1024 CURVE SMOOTH",
"533.833 1023.99 OFFCURVE",
"567 1016.83 OFFCURVE",
"595 1002.5 CURVE SMOOTH",
"623 988.167 OFFCURVE",
"643.5 971.167 OFFCURVE",
"656.5 951.5 CURVE SMOOTH",
"669.5 931.833 OFFCURVE",
"679.667 912 OFFCURVE",
"687 892 CURVE SMOOTH",
"694.333 872 OFFCURVE",
"698 854.667 OFFCURVE",
"698 840 CURVE",
"700 819 LINE",
"700 719 LINE",
"700 717 LINE",
"700 0 LINE",
"496 0 LINE",
"496 717 LINE",
"496 719 LINE SMOOTH",
"496 724.333 OFFCURVE",
"494.833 730.833 OFFCURVE",
"492.5 738.5 CURVE SMOOTH",
"490.167 746.167 OFFCURVE",
"486.333 757.167 OFFCURVE",
"481 771.5 CURVE SMOOTH",
"475.667 785.833 OFFCURVE",
"465.5 797.333 OFFCURVE",
"450.5 806 CURVE SMOOTH",
"435.5 814.675 OFFCURVE",
"416.333 819.009 OFFCURVE",
"393 819 CURVE SMOOTH",
"372.333 819 OFFCURVE",
"354.5 815 OFFCURVE",
"339.5 807 CURVE SMOOTH",
"324.5 798.998 OFFCURVE",
"314 788.832 OFFCURVE",
"308 776.5 CURVE SMOOTH",
"301.999 764.164 OFFCURVE",
"297.666 753.83 OFFCURVE",
"295 745.5 CURVE SMOOTH",
"292.327 737.164 OFFCURVE",
"290.993 728.997 OFFCURVE",
"291 721 CURVE SMOOTH",
"291 0 LINE",
"86 0 LINE",
"86 1024 LINE"
);
}
);
userData = {
com.fontlab.hintData = {
hhints = (
{
position = 0;
width = 21;
},
{
position = 819;
width = 205;
}
);
vhints = (
{
position = 86;
width = 205;
},
{
position = 496;
width = 204;
}
);
};
};
width = 786;
}
);
unicode = 006E;
},
{
glyphname = eng;
lastChange = "2023-03-27 12:26:56 +0000";
layers = (
{
layerId = master01;
paths = (
{
closed = 1;
nodes = (
"291 1024 LINE",
"291 819 LINE SMOOTH",
"291 814 OFFCURVE",
"291.333 831.833 OFFCURVE",
"292 841.5 CURVE SMOOTH",
"292.667 851.167 OFFCURVE",
"296.667 867.667 OFFCURVE",
"304 891 CURVE SMOOTH",
"311.334 914.333 OFFCURVE",
"321.5 934.833 OFFCURVE",
"334.5 952.5 CURVE SMOOTH",
"347.5 970.166 OFFCURVE",
"368 986.5 OFFCURVE",
"396 1001.5 CURVE SMOOTH",
"424 1016.5 OFFCURVE",
"457.167 1024 OFFCURVE",
"495.5 1024 CURVE SMOOTH",
"533.833 1023.99 OFFCURVE",
"567 1016.83 OFFCURVE",
"595 1002.5 CURVE SMOOTH",
"623 988.167 OFFCURVE",
"643.5 971.167 OFFCURVE",
"656.5 951.5 CURVE SMOOTH",
"669.5 931.833 OFFCURVE",
"679.667 912 OFFCURVE",
"687 892 CURVE SMOOTH",
"694.333 872 OFFCURVE",
"698 854.667 OFFCURVE",
"698 840 CURVE",
"700 819 LINE",
"700 719 LINE",
"700 717 LINE",
"700 0 LINE",
"496 0 LINE",
"496 717 LINE",
"496 719 LINE SMOOTH",
"496 724.333 OFFCURVE",
"494.833 730.833 OFFCURVE",
"492.5 738.5 CURVE SMOOTH",
"490.167 746.167 OFFCURVE",
"486.333 757.167 OFFCURVE",
"481 771.5 CURVE SMOOTH",
"475.667 785.833 OFFCURVE",
"465.5 797.333 OFFCURVE",
"450.5 806 CURVE SMOOTH",
"435.5 814.675 OFFCURVE",
"416.333 819.009 OFFCURVE",
"393 819 CURVE SMOOTH",
"372.333 819 OFFCURVE",
"354.5 815 OFFCURVE",
"339.5 807 CURVE SMOOTH",
"324.5 798.998 OFFCURVE",
"314 788.832 OFFCURVE",
"308 776.5 CURVE SMOOTH",
"301.999 764.164 OFFCURVE",
"297.666 753.83 OFFCURVE",
"295 745.5 CURVE SMOOTH",
"292.327 737.164 OFFCURVE",
"290.993 728.997 OFFCURVE",
"291 721 CURVE SMOOTH",
"291 0 LINE",
"86 0 LINE",
"86 1024 LINE"
);
},
{
closed = 1;
nodes = (
"701 224 LINE",
"701 0 LINE SMOOTH",
"701 -85 OFFCURVE",
"671 -157 OFFCURVE",
"611 -217 CURVE SMOOTH",
"551 -277 OFFCURVE",
"479 -307 OFFCURVE",
"394 -307 CURVE",
"394 -102 LINE",
"423 -102 OFFCURVE",
"447 -92 OFFCURVE",
"467 -73 CURVE SMOOTH",
"486 -53 OFFCURVE",
"496 -29 OFFCURVE",
"496 0 CURVE SMOOTH",
"496 224 LINE"
);
}
);
width = 787;
}
);
leftMetricsKey = n;
rightMetricsKey = j;
unicode = 014B;
},
{
glyphname = nhookleft;
lastChange = "2023-04-14 15:19:54 +0000";
layers = (
{
components = (
{
name = n;
}
);
layerId = master01;
paths = (
{
closed = 1;
nodes = (
"291 224 LINE",
"291 0 LINE SMOOTH",
"291 -85 OFFCURVE",
"261 -157 OFFCURVE",
"201 -217 CURVE SMOOTH",
"141 -277 OFFCURVE",
"69 -307 OFFCURVE",
"-16 -307 CURVE",
"-16 -102 LINE",
"13 -102 OFFCURVE",
"37 -92 OFFCURVE",
"57 -73 CURVE SMOOTH",
"76 -53 OFFCURVE",
"86 -29 OFFCURVE",
"86 0 CURVE SMOOTH",
"86 224 LINE"
);
}
);
width = 786;
}
);
unicode = 0272;
},
{
glyphname = o;
lastChange = "2023-05-03 16:12:38 +0000";
layers = (
{
layerId = master01;
paths = (
{
closed = 1;
nodes = (
"461.667 1020 OFFCURVE",
"534 990.667 OFFCURVE",
"594 932 CURVE SMOOTH",
"654 873.333 OFFCURVE",
"684.667 801.667 OFFCURVE",
"686 717 CURVE",
"686 305 LINE SMOOTH",
"686 219 OFFCURVE",
"655.667 146 OFFCURVE",
"595 86 CURVE SMOOTH",
"534.333 26 OFFCURVE",
"461.667 -4 OFFCURVE",
"377 -4 CURVE SMOOTH",
"292.333 -4 OFFCURVE",
"220.333 25.333 OFFCURVE",
"161 84 CURVE SMOOTH",
"101.667 142.667 OFFCURVE",
"70.667 213.667 OFFCURVE",
"68 297 CURVE",
"68 305 LINE",
"68 711 LINE SMOOTH",
"68 797 OFFCURVE",
"98 870 OFFCURVE",
"158 930 CURVE SMOOTH",
"218 990 OFFCURVE",
"291 1020 OFFCURVE",
"377 1020 CURVE SMOOTH"
);
},
{
closed = 1;
nodes = (
"348.333 813 OFFCURVE",
"324 803.167 OFFCURVE",
"304 783.5 CURVE SMOOTH",
"284 763.833 OFFCURVE",
"274 740.333 OFFCURVE",
"274 713 CURVE SMOOTH",
"274 305 LINE SMOOTH",
"274 276.333 OFFCURVE",
"284 252.167 OFFCURVE",
"304 232.5 CURVE SMOOTH",
"324 212.833 OFFCURVE",
"348.333 203 OFFCURVE",
"377 203 CURVE SMOOTH",
"404.334 203 OFFCURVE",
"428.167 212.5 OFFCURVE",
"448.5 231.5 CURVE SMOOTH",
"468.834 250.5 OFFCURVE",
"479 273.667 OFFCURVE",
"479 301 CURVE SMOOTH",
"479 711 LINE SMOOTH",
"478.999 739.668 OFFCURVE",
"469.166 763.835 OFFCURVE",
"449.5 783.5 CURVE SMOOTH",
"429.833 803.166 OFFCURVE",
"405.666 812.999 OFFCURVE",
"377 813 CURVE SMOOTH"
);
}
);
userData = {
com.fontlab.hintData = {
hhints = (
{
position = -4;
width = 207;
},
{
position = 813;
width = 207;
}
);
vhints = (
{
position = 68;
width = 206;
},
{
position = 479;
width = 207;
}
);
};
};
width = 753;
}
);
unicode = 006F;
},
{
glyphname = oacute;
lastChange = "2023-03-27 12:15:42 +0000";
layers = (
{
components = (
{
name = acutecomb;
transform = "{1, 0, 0, 1, 179, -127}";
}
);
layerId = master01;
paths = (
{
closed = 1;
nodes = (
"462 1020 OFFCURVE",
"534 991 OFFCURVE",
"594 932 CURVE SMOOTH",
"654 873 OFFCURVE",
"685 802 OFFCURVE",
"686 717 CURVE",
"686 305 LINE SMOOTH",
"686 219 OFFCURVE",
"656 146 OFFCURVE",
"595 86 CURVE SMOOTH",
"534 26 OFFCURVE",
"462 -4 OFFCURVE",
"377 -4 CURVE SMOOTH",
"292 -4 OFFCURVE",
"220 25 OFFCURVE",
"161 84 CURVE SMOOTH",
"102 143 OFFCURVE",
"71 214 OFFCURVE",
"68 297 CURVE",
"68 305 LINE",
"68 711 LINE SMOOTH",
"68 797 OFFCURVE",
"98 870 OFFCURVE",
"158 930 CURVE SMOOTH",
"218 990 OFFCURVE",
"291 1020 OFFCURVE",
"377 1020 CURVE SMOOTH"
);
},
{
closed = 1;
nodes = (
"348 813 OFFCURVE",
"324 803 OFFCURVE",
"304 784 CURVE SMOOTH",
"284 764 OFFCURVE",
"274 740 OFFCURVE",
"274 713 CURVE SMOOTH",
"274 305 LINE SMOOTH",
"274 276 OFFCURVE",
"284 252 OFFCURVE",
"304 233 CURVE SMOOTH",
"324 213 OFFCURVE",
"348 203 OFFCURVE",
"377 203 CURVE SMOOTH",
"404 203 OFFCURVE",
"428 213 OFFCURVE",
"449 232 CURVE SMOOTH",
"469 251 OFFCURVE",
"479 274 OFFCURVE",
"479 301 CURVE SMOOTH",
"479 711 LINE SMOOTH",
"479 740 OFFCURVE",
"469 764 OFFCURVE",
"450 784 CURVE SMOOTH",
"430 803 OFFCURVE",
"406 813 OFFCURVE",
"377 813 CURVE SMOOTH"
);
}
);
userData = {
com.fontlab.hintData = {
hhints = (
{
position = -4;
width = 207;
},
{
position = 813;
width = 207;
},
{
position = 1135;
width = 236;
}
);
vhints = (
{
position = 68;
width = 206;
},
{
position = 309;
width = 364;
},
{
position = 479;
width = 207;
}
);
};
};
width = 753;
}
);
leftMetricsKey = o;
rightMetricsKey = o;
unicode = 00F3;
},
{
glyphname = ocircumflex;
lastChange = "2023-03-27 10:53:27 +0000";
layers = (
{
components = (
{
name = asciicircum;
transform = "{1, 0, 0, 1, 12, -111}";
}
);
layerId = master01;
paths = (
{
closed = 1;
nodes = (
"461.667 1020 OFFCURVE",
"534 990.667 OFFCURVE",
"594 932 CURVE SMOOTH",
"654 873.333 OFFCURVE",
"684.667 801.667 OFFCURVE",
"686 717 CURVE",
"686 305 LINE SMOOTH",
"686 219 OFFCURVE",
"655.667 146 OFFCURVE",
"595 86 CURVE SMOOTH",
"534.333 26 OFFCURVE",
"461.667 -4 OFFCURVE",
"377 -4 CURVE SMOOTH",
"292.333 -4 OFFCURVE",
"220.333 25.333 OFFCURVE",
"161 84 CURVE SMOOTH",
"101.667 142.667 OFFCURVE",
"70.667 213.667 OFFCURVE",
"68 297 CURVE",
"68 305 LINE",
"68 711 LINE SMOOTH",
"68 797 OFFCURVE",
"98 870 OFFCURVE",
"158 930 CURVE SMOOTH",
"218 990 OFFCURVE",
"291 1020 OFFCURVE",
"377 1020 CURVE SMOOTH"
);
},
{
closed = 1;
nodes = (
"348.333 813 OFFCURVE",
"324 803.167 OFFCURVE",
"304 783.5 CURVE SMOOTH",
"284 763.833 OFFCURVE",
"274 740.333 OFFCURVE",
"274 713 CURVE SMOOTH",
"274 305 LINE SMOOTH",
"274 276.333 OFFCURVE",
"284 252.167 OFFCURVE",
"304 232.5 CURVE SMOOTH",
"324 212.833 OFFCURVE",
"348.333 203 OFFCURVE",
"377 203 CURVE SMOOTH",
"404.334 203 OFFCURVE",
"428.167 212.5 OFFCURVE",
"448.5 231.5 CURVE SMOOTH",
"468.834 250.5 OFFCURVE",
"479 273.667 OFFCURVE",
"479 301 CURVE SMOOTH",
"479 711 LINE SMOOTH",
"478.999 739.668 OFFCURVE",
"469.166 763.835 OFFCURVE",
"449.5 783.5 CURVE SMOOTH",
"429.833 803.166 OFFCURVE",
"405.666 812.999 OFFCURVE",
"377 813 CURVE SMOOTH"
);
}
);
userData = {
com.fontlab.hintData = {
hhints = (
{
position = -4;
width = 207;
},
{
position = 813;
width = 207;
},
{
position = 1160;
width = 221;
}
);
vhints = (
{
position = 68;
width = 206;
},
{
position = 85;
width = 567;
},
{
position = 479;
width = 207;
}
);
};
};
width = 753;
}
);
leftMetricsKey = o;
rightMetricsKey = o;
unicode = 00F4;
},
{
glyphname = odieresis;
lastChange = "2023-03-27 11:02:18 +0000";
layers = (
{
components = (
{
name = dieresiscomb;
transform = "{1, 0, 0, 1, 34, -98}";
}
);
layerId = master01;
paths = (
{
closed = 1;
nodes = (
"462 1020 OFFCURVE",
"534 991 OFFCURVE",
"594 932 CURVE SMOOTH",
"654 873 OFFCURVE",
"685 802 OFFCURVE",
"686 717 CURVE",
"686 305 LINE SMOOTH",
"686 219 OFFCURVE",
"656 146 OFFCURVE",
"595 86 CURVE SMOOTH",
"534 26 OFFCURVE",
"462 -4 OFFCURVE",
"377 -4 CURVE SMOOTH",
"292 -4 OFFCURVE",
"220 25 OFFCURVE",
"161 84 CURVE SMOOTH",
"102 143 OFFCURVE",
"71 214 OFFCURVE",
"68 297 CURVE",
"68 305 LINE",
"68 711 LINE SMOOTH",
"68 797 OFFCURVE",
"98 870 OFFCURVE",
"158 930 CURVE SMOOTH",
"218 990 OFFCURVE",
"291 1020 OFFCURVE",
"377 1020 CURVE SMOOTH"
);
},
{
closed = 1;
nodes = (
"348 813 OFFCURVE",
"324 803 OFFCURVE",
"304 784 CURVE SMOOTH",
"284 764 OFFCURVE",
"274 740 OFFCURVE",
"274 713 CURVE SMOOTH",
"274 305 LINE SMOOTH",
"274 276 OFFCURVE",
"284 252 OFFCURVE",
"304 233 CURVE SMOOTH",
"324 213 OFFCURVE",
"348 203 OFFCURVE",
"377 203 CURVE SMOOTH",
"404 203 OFFCURVE",
"428 213 OFFCURVE",
"449 232 CURVE SMOOTH",
"469 251 OFFCURVE",
"479 274 OFFCURVE",
"479 301 CURVE SMOOTH",
"479 711 LINE SMOOTH",
"479 740 OFFCURVE",
"469 764 OFFCURVE",
"450 784 CURVE SMOOTH",
"430 803 OFFCURVE",
"406 813 OFFCURVE",
"377 813 CURVE SMOOTH"
);
}
);
userData = {
com.fontlab.hintData = {
hhints = (
{
position = -4;
width = 207;
},
{
position = 813;
width = 207;
},
{
position = 1229;
width = 203;
}
);
vhints = (
{
position = 82;
width = 202;
},
{
position = 84;
width = 206;
},
{
position = 491;
width = 203;
},
{
position = 495;
width = 207;
}
);
};
};
width = 754;
}
);
leftMetricsKey = o;
rightMetricsKey = o;
unicode = 00F6;
},
{
glyphname = ograve;
lastChange = "2023-03-27 11:12:03 +0000";
layers = (
{
components = (
{
name = grave;
transform = "{1, 0, 0, 1, 108, -128}";
}
);
layerId = master01;
paths = (
{
closed = 1;
nodes = (
"461.667 1020 OFFCURVE",
"534 990.667 OFFCURVE",
"594 932 CURVE SMOOTH",
"654 873.333 OFFCURVE",
"684.667 801.667 OFFCURVE",
"686 717 CURVE",
"686 305 LINE SMOOTH",
"686 219 OFFCURVE",
"655.667 146 OFFCURVE",
"595 86 CURVE SMOOTH",
"534.333 26 OFFCURVE",
"461.667 -4 OFFCURVE",
"377 -4 CURVE SMOOTH",
"292.333 -4 OFFCURVE",
"220.333 25.333 OFFCURVE",
"161 84 CURVE SMOOTH",
"101.667 142.667 OFFCURVE",
"70.667 213.667 OFFCURVE",
"68 297 CURVE",
"68 305 LINE",
"68 711 LINE SMOOTH",
"68 797 OFFCURVE",
"98 870 OFFCURVE",
"158 930 CURVE SMOOTH",
"218 990 OFFCURVE",
"291 1020 OFFCURVE",
"377 1020 CURVE SMOOTH"
);
},
{
closed = 1;
nodes = (
"348.333 813 OFFCURVE",
"324 803.167 OFFCURVE",
"304 783.5 CURVE SMOOTH",
"284 763.833 OFFCURVE",
"274 740.333 OFFCURVE",
"274 713 CURVE SMOOTH",
"274 305 LINE SMOOTH",
"274 276.333 OFFCURVE",
"284 252.167 OFFCURVE",
"304 232.5 CURVE SMOOTH",
"324 212.833 OFFCURVE",
"348.333 203 OFFCURVE",
"377 203 CURVE SMOOTH",
"404.334 203 OFFCURVE",
"428.167 212.5 OFFCURVE",
"448.5 231.5 CURVE SMOOTH",
"468.834 250.5 OFFCURVE",
"479 273.667 OFFCURVE",
"479 301 CURVE SMOOTH",
"479 711 LINE SMOOTH",
"478.999 739.668 OFFCURVE",
"469.166 763.835 OFFCURVE",
"449.5 783.5 CURVE SMOOTH",
"429.833 803.166 OFFCURVE",
"405.666 812.999 OFFCURVE",
"377 813 CURVE SMOOTH"
);
}
);
userData = {
com.fontlab.hintData = {
hhints = (
{
position = -4;
width = 207;
},
{
position = 813;
width = 207;
},
{
position = 1138;
width = 238;
}
);
vhints = (
{
position = 68;
width = 206;
},
{
position = 114;
width = 364;
},
{
position = 479;
width = 207;
}
);
};
};
width = 753;
}
);
leftMetricsKey = o;
rightMetricsKey = o;
unicode = 00F2;
},
{
glyphname = oopen;
lastChange = "2023-04-14 16:05:40 +0000";
layers = (
{
layerId = master01;
paths = (
{
closed = 1;
nodes = (
"404 205 OFFCURVE",
"428 215 OFFCURVE",
"447 235 CURVE SMOOTH",
"467 254 OFFCURVE",
"477 278 OFFCURVE",
"477 307 CURVE SMOOTH",
"477 717 LINE SMOOTH",
"477 746 OFFCURVE",
"467 770 OFFCURVE",
"447 790 CURVE SMOOTH",
"428 809 OFFCURVE",
"404 819 OFFCURVE",
"375 819 CURVE SMOOTH",
"346 819 OFFCURVE",
"322 809 OFFCURVE",
"302 790 CURVE SMOOTH",
"282 770 OFFCURVE",
"272 746 OFFCURVE",
"272 717 CURVE",
"68 717 LINE",
"68 802 OFFCURVE",
"98 874 OFFCURVE",
"158 934 CURVE SMOOTH",
"218 994 OFFCURVE",
"290 1024 OFFCURVE",
"375 1024 CURVE SMOOTH",
"460 1024 OFFCURVE",
"532 994 OFFCURVE",
"592 934 CURVE SMOOTH",
"652 874 OFFCURVE",
"682 802 OFFCURVE",
"682 717 CURVE SMOOTH",
"682 307 LINE SMOOTH",
"682 222 OFFCURVE",
"652 150 OFFCURVE",
"592 90 CURVE SMOOTH",
"532 30 OFFCURVE",
"460 0 OFFCURVE",
"375 0 CURVE SMOOTH",
"290 0 OFFCURVE",
"218 30 OFFCURVE",
"158 90 CURVE SMOOTH",
"98 150 OFFCURVE",
"68 222 OFFCURVE",
"68 307 CURVE",
"272 307 LINE",
"272 278 OFFCURVE",
"282 254 OFFCURVE",
"302 235 CURVE SMOOTH",
"322 215 OFFCURVE",
"346 205 OFFCURVE",
"375 205 CURVE SMOOTH"
);
}
);
width = 749;
}
);
leftMetricsKey = o;
rightMetricsKey = o;
unicode = 0254;
},
{
glyphname = oslash;
lastChange = "2023-03-27 11:41:55 +0000";
layers = (
{
components = (
{
name = o;
}
);
layerId = master01;
paths = (
{
closed = 1;
nodes = (
"686 1124 LINE",
"238 -100 LINE",
"68 -100 LINE",
"516 1124 LINE"
);
}
);
width = 753;
}
);
leftMetricsKey = o;
rightMetricsKey = o;
unicode = 00F8;
},
{
glyphname = oe;
lastChange = "2023-05-03 16:12:59 +0000";
layers = (
{
layerId = master01;
paths = (
{
closed = 1;
nodes = (
"868.667 1028 OFFCURVE",
"941.167 998 OFFCURVE",
"1001.5 938 CURVE SMOOTH",
"1061.84 878 OFFCURVE",
"1092 805.667 OFFCURVE",
"1092 721 CURVE SMOOTH",
"1092 618 LINE",
"1092 414 LINE",
"887 414 LINE",
"682 414 LINE",
"682 311 LINE SMOOTH",
"682 303 LINE SMOOTH",
"684.669 277 OFFCURVE",
"695.502 254.833 OFFCURVE",
"714.5 236.5 CURVE SMOOTH",
"733.5 218.167 OFFCURVE",
"756.667 209 OFFCURVE",
"784 209 CURVE SMOOTH",
"812.668 209 OFFCURVE",
"837.001 218.833 OFFCURVE",
"857 238.5 CURVE SMOOTH",
"877 258.167 OFFCURVE",
"887 282.333 OFFCURVE",
"887 311 CURVE",
"1092 311 LINE",
"1092 226.333 OFFCURVE",
"1061.83 154 OFFCURVE",
"1001.5 94 CURVE SMOOTH",
"941.167 34 OFFCURVE",
"868.667 4 OFFCURVE",
"784 4 CURVE SMOOTH",
"706 4 OFFCURVE",
"638 30 OFFCURVE",
"580 82 CURVE",
"521.333 30 OFFCURVE",
"453 4 OFFCURVE",
"375 4 CURVE SMOOTH",
"291.667 4 OFFCURVE",
"220 33 OFFCURVE",
"160 91 CURVE SMOOTH",
"100 149 OFFCURVE",
"69.333 219.667 OFFCURVE",
"68 303 CURVE",
"68 311 LINE",
"68 715 LINE SMOOTH",
"68 801 OFFCURVE",
"98 874.667 OFFCURVE",
"158 936 CURVE SMOOTH",
"218 997.333 OFFCURVE",
"290.333 1028 OFFCURVE",
"375 1028 CURVE SMOOTH",
"447.667 1028 OFFCURVE",
"515.333 1001.33 OFFCURVE",
"578 948 CURVE",
"636 1001.33 OFFCURVE",
"704.667 1028 OFFCURVE",
"784 1028 CURVE SMOOTH"
);
},
{
closed = 1;
nodes = (
"402.333 209 OFFCURVE",
"425.833 218.167 OFFCURVE",
"445.5 236.5 CURVE SMOOTH",
"465.167 254.834 OFFCURVE",
"475.667 277.667 OFFCURVE",
"477 305 CURVE SMOOTH",
"477 311 LINE SMOOTH",
"477 721 LINE",
"477 723 LINE SMOOTH",
"475.667 749 OFFCURVE",
"465.167 771.167 OFFCURVE",
"445.5 789.5 CURVE SMOOTH",
"425.833 807.833 OFFCURVE",
"402.333 817 OFFCURVE",
"375 817 CURVE SMOOTH",
"347.667 817 OFFCURVE",
"323.667 807.5 OFFCURVE",
"303 788.5 CURVE SMOOTH",
"282.333 769.5 OFFCURVE",
"272 745.667 OFFCURVE",
"272 717 CURVE SMOOTH",
"272 311 LINE SMOOTH",
"272 282.333 OFFCURVE",
"282 258.167 OFFCURVE",
"302 238.5 CURVE SMOOTH",
"322 218.833 OFFCURVE",
"346.333 209 OFFCURVE",
"375 209 CURVE SMOOTH"
);
},
{
closed = 1;
nodes = (
"887 721 LINE SMOOTH",
"887 749.668 OFFCURVE",
"877 773.835 OFFCURVE",
"857 793.5 CURVE SMOOTH",
"837 813.169 OFFCURVE",
"812.667 823.002 OFFCURVE",
"784 823 CURVE SMOOTH",
"756.667 822.996 OFFCURVE",
"733.167 813.829 OFFCURVE",
"713.5 795.5 CURVE SMOOTH",
"693.833 777.165 OFFCURVE",
"683.333 754.332 OFFCURVE",
"682 727 CURVE SMOOTH",
"682 721 LINE SMOOTH",
"682 618 LINE",
"887 618 LINE"
);
}
);
userData = {
com.fontlab.hintData = {
hhints = (
{
position = 4;
width = 205;
},
{
position = 414;
width = 204;
},
{
position = 817;
width = 211;
}
);
vhints = (
{
position = 68;
width = 204;
},
{
position = 477;
width = 205;
},
{
position = 887;
width = 205;
}
);
};
};
width = 1157;
}
);
unicode = 0153;
},
{
glyphname = p;
lastChange = "2023-05-03 16:12:38 +0000";
layers = (
{
layerId = master01;
paths = (
{
closed = 1;
nodes = (
"291 1024 LINE",
"291 819 LINE SMOOTH",
"291 824.333 OFFCURVE",
"291.333 831.833 OFFCURVE",
"292 841.5 CURVE SMOOTH",
"292.667 851.167 OFFCURVE",
"296.667 867.667 OFFCURVE",
"304 891 CURVE SMOOTH",
"311.334 914.333 OFFCURVE",
"321.5 934.833 OFFCURVE",
"334.5 952.5 CURVE SMOOTH",
"347.5 970.166 OFFCURVE",
"368 986.5 OFFCURVE",
"396 1001.5 CURVE SMOOTH",
"424 1016.5 OFFCURVE",
"457.167 1024 OFFCURVE",
"495.5 1024 CURVE SMOOTH",
"533.833 1023.99 OFFCURVE",
"567 1016.83 OFFCURVE",
"595 1002.5 CURVE SMOOTH",
"623 988.167 OFFCURVE",
"643.5 971.167 OFFCURVE",
"656.5 951.5 CURVE SMOOTH",
"669.5 931.833 OFFCURVE",
"679.667 912 OFFCURVE",
"687 892 CURVE SMOOTH",
"694.333 872 OFFCURVE",
"698 854.667 OFFCURVE",
"698 840 CURVE",
"700 819 LINE",
"700 719 LINE",
"700 307 LINE",
"700 205 LINE SMOOTH",
"700 199.667 OFFCURVE",
"699.667 192.167 OFFCURVE",
"699 182.5 CURVE SMOOTH",
"698.333 172.833 OFFCURVE",
"694.333 156.333 OFFCURVE",
"687 133 CURVE SMOOTH",
"679.664 109.667 OFFCURVE",
"669.498 89.167 OFFCURVE",
"656.5 71.5 CURVE SMOOTH",
"643.5 53.833 OFFCURVE",
"623 37.5 OFFCURVE",
"595 22.5 CURVE SMOOTH",
"567 7.5 OFFCURVE",
"533.833 0 OFFCURVE",
"495.5 0 CURVE SMOOTH",
"457.167 0 OFFCURVE",
"424 7.167 OFFCURVE",
"396 21.5 CURVE SMOOTH",
"368 35.833 OFFCURVE",
"347.5 52.833 OFFCURVE",
"334.5 72.5 CURVE SMOOTH",
"321.5 92.167 OFFCURVE",
"311.333 112 OFFCURVE",
"304 132 CURVE SMOOTH",
"296.667 152 OFFCURVE",
"293 169.333 OFFCURVE",
"293 184 CURVE",
"291 205 LINE",
"291 -410 LINE",
"86 -410 LINE",
"86 1024 LINE"
);
},
{
closed = 1;
nodes = (
"372.333 819 OFFCURVE",
"354.5 815 OFFCURVE",
"339.5 807 CURVE SMOOTH",
"324.5 798.998 OFFCURVE",
"314 788.832 OFFCURVE",
"308 776.5 CURVE SMOOTH",
"301.999 764.164 OFFCURVE",
"297.666 753.83 OFFCURVE",
"295 745.5 CURVE SMOOTH",
"292.327 737.164 OFFCURVE",
"290.993 728.997 OFFCURVE",
"291 721 CURVE SMOOTH",
"291 303 LINE SMOOTH",
"291 295 OFFCURVE",
"292.333 286.833 OFFCURVE",
"295 278.5 CURVE SMOOTH",
"297.667 270.167 OFFCURVE",
"302 259.833 OFFCURVE",
"308 247.5 CURVE SMOOTH",
"314 235.167 OFFCURVE",
"324.5 225 OFFCURVE",
"339.5 217 CURVE SMOOTH",
"354.5 209 OFFCURVE",
"372.333 205 OFFCURVE",
"393 205 CURVE SMOOTH",
"413.667 205 OFFCURVE",
"431.167 208.667 OFFCURVE",
"445.5 216 CURVE SMOOTH",
"459.833 223.333 OFFCURVE",
"470.333 233.167 OFFCURVE",
"477 245.5 CURVE SMOOTH",
"483.667 257.833 OFFCURVE",
"488.5 268.5 OFFCURVE",
"491.5 277.5 CURVE SMOOTH",
"494.5 286.5 OFFCURVE",
"496 294.333 OFFCURVE",
"496 301 CURVE SMOOTH",
"496 717 LINE SMOOTH",
"495.985 719.672 OFFCURVE",
"495.652 723.338 OFFCURVE",
"495 728 CURVE SMOOTH",
"494.325 732.672 OFFCURVE",
"492.159 740.838 OFFCURVE",
"488.5 752.5 CURVE SMOOTH",
"484.833 764.171 OFFCURVE",
"480 774.504 OFFCURVE",
"474 783.5 CURVE SMOOTH",
"468 792.5 OFFCURVE",
"457.833 800.667 OFFCURVE",
"443.5 808 CURVE SMOOTH",
"429.167 815.333 OFFCURVE",
"412.333 819 OFFCURVE",
"393 819 CURVE SMOOTH"
);
}
);
userData = {
com.fontlab.hintData = {
hhints = (
{
position = -410;
width = 21;
},
{
position = 0;
width = 205;
},
{
position = 819;
width = 205;
}
);
vhints = (
{
position = 86;
width = 205;
},
{
position = 496;
width = 204;
}
);
};
};
width = 786;
}
);
unicode = 0070;
},
{
glyphname = phook;
lastChange = "2023-04-14 16:04:45 +0000";
layers = (
{
components = (
{
name = p;
}
);
layerId = master01;
paths = (
{
closed = 1;
nodes = (
"86 903 LINE",
"86 1127 LINE SMOOTH",
"86 1212 OFFCURVE",
"116 1284 OFFCURVE",
"176 1344 CURVE SMOOTH",
"236 1404 OFFCURVE",
"308 1434 OFFCURVE",
"393 1434 CURVE",
"393 1229 LINE",
"364 1229 OFFCURVE",
"340 1219 OFFCURVE",
"320 1200 CURVE SMOOTH",
"301 1180 OFFCURVE",
"291 1156 OFFCURVE",
"291 1127 CURVE SMOOTH",
"291 903 LINE"
);
}
);
width = 786;
}
);
unicode = 01A5;
},
{
glyphname = thorn;
lastChange = "2023-03-17 15:49:37 +0000";
layers = (
{
layerId = master01;
paths = (
{
closed = 1;
nodes = (
"291 1638 LINE",
"291 819 LINE SMOOTH",
"291 814 OFFCURVE",
"291.333 831.833 OFFCURVE",
"292 841.5 CURVE SMOOTH",
"292.667 851.167 OFFCURVE",
"296.667 867.667 OFFCURVE",
"304 891 CURVE SMOOTH",
"311.334 914.333 OFFCURVE",
"321.5 934.833 OFFCURVE",
"334.5 952.5 CURVE SMOOTH",
"347.5 970.166 OFFCURVE",
"368 986.5 OFFCURVE",
"396 1001.5 CURVE SMOOTH",
"424 1016.5 OFFCURVE",
"457.167 1024 OFFCURVE",
"495.5 1024 CURVE SMOOTH",
"533.833 1023.99 OFFCURVE",
"567 1016.83 OFFCURVE",
"595 1002.5 CURVE SMOOTH",
"623 988.167 OFFCURVE",
"643.5 971.167 OFFCURVE",
"656.5 951.5 CURVE SMOOTH",
"669.5 931.833 OFFCURVE",
"679.667 912 OFFCURVE",
"687 892 CURVE SMOOTH",
"694.333 872 OFFCURVE",
"698 854.667 OFFCURVE",
"698 840 CURVE",
"700 819 LINE",
"700 719 LINE",
"700 307 LINE",
"700 205 LINE SMOOTH",
"700 199.667 OFFCURVE",
"699.667 192.167 OFFCURVE",
"699 182.5 CURVE SMOOTH",
"698.333 172.833 OFFCURVE",
"694.333 156.333 OFFCURVE",
"687 133 CURVE SMOOTH",
"679.664 109.667 OFFCURVE",
"669.498 89.167 OFFCURVE",
"656.5 71.5 CURVE SMOOTH",
"643.5 53.833 OFFCURVE",
"623 37.5 OFFCURVE",
"595 22.5 CURVE SMOOTH",
"567 7.5 OFFCURVE",
"533.833 0 OFFCURVE",
"495.5 0 CURVE SMOOTH",
"457.167 0 OFFCURVE",
"424 7.167 OFFCURVE",
"396 21.5 CURVE SMOOTH",
"368 35.833 OFFCURVE",
"347.5 52.833 OFFCURVE",
"334.5 72.5 CURVE SMOOTH",
"321.5 92.167 OFFCURVE",
"311.333 112 OFFCURVE",
"304 132 CURVE SMOOTH",
"296.667 152 OFFCURVE",
"293 169.333 OFFCURVE",
"293 184 CURVE",
"291 205 LINE",
"291 -410 LINE",
"86 -410 LINE",
"86 1638 LINE"
);
},
{
closed = 1;
nodes = (
"372.333 819 OFFCURVE",
"354.5 815 OFFCURVE",
"339.5 807 CURVE SMOOTH",
"324.5 798.998 OFFCURVE",
"314 788.832 OFFCURVE",
"308 776.5 CURVE SMOOTH",
"301.999 764.164 OFFCURVE",
"297.666 753.83 OFFCURVE",
"295 745.5 CURVE SMOOTH",
"292.327 737.164 OFFCURVE",
"290.993 728.997 OFFCURVE",
"291 721 CURVE SMOOTH",
"291 303 LINE SMOOTH",
"291 295 OFFCURVE",
"292.333 286.833 OFFCURVE",
"295 278.5 CURVE SMOOTH",
"297.667 270.167 OFFCURVE",
"302 259.833 OFFCURVE",
"308 247.5 CURVE SMOOTH",
"314 235.167 OFFCURVE",
"324.5 225 OFFCURVE",
"339.5 217 CURVE SMOOTH",
"354.5 209 OFFCURVE",
"372.333 205 OFFCURVE",
"393 205 CURVE SMOOTH",
"413.667 205 OFFCURVE",
"431.167 208.667 OFFCURVE",
"445.5 216 CURVE SMOOTH",
"459.833 223.333 OFFCURVE",
"470.333 233.167 OFFCURVE",
"477 245.5 CURVE SMOOTH",
"483.667 257.833 OFFCURVE",
"488.5 268.5 OFFCURVE",
"491.5 277.5 CURVE SMOOTH",
"494.5 286.5 OFFCURVE",
"496 294.333 OFFCURVE",
"496 301 CURVE SMOOTH",
"496 717 LINE SMOOTH",
"496 720 OFFCURVE",
"495.652 723.338 OFFCURVE",
"495 728 CURVE SMOOTH",
"494.325 732.672 OFFCURVE",
"492.159 740.838 OFFCURVE",
"488.5 752.5 CURVE SMOOTH",
"484.833 764.171 OFFCURVE",
"480 774.504 OFFCURVE",
"474 783.5 CURVE SMOOTH",
"468 792.5 OFFCURVE",
"457.833 800.667 OFFCURVE",
"443.5 808 CURVE SMOOTH",
"429.167 815.333 OFFCURVE",
"412.333 819 OFFCURVE",
"393 819 CURVE SMOOTH"
);
}
);
width = 786;
}
);
leftMetricsKey = p;
rightMetricsKey = p;
unicode = 00FE;
},
{
glyphname = q;
lastChange = "2023-05-03 16:12:38 +0000";
layers = (
{
layerId = master01;
paths = (
{
closed = 1;
nodes = (
"328.833 1023.99 OFFCURVE",
"362 1016.83 OFFCURVE",
"390 1002.5 CURVE SMOOTH",
"418 988.167 OFFCURVE",
"438.5 971.167 OFFCURVE",
"451.5 951.5 CURVE SMOOTH",
"464.5 931.833 OFFCURVE",
"474.833 912 OFFCURVE",
"482.5 892 CURVE SMOOTH",
"490.167 872 OFFCURVE",
"494 854.667 OFFCURVE",
"494 840 CURVE",
"496 819 LINE",
"496 1024 LINE",
"700 1024 LINE",
"700 -410 LINE",
"496 -410 LINE",
"496 205 LINE SMOOTH",
"495.985 199.667 OFFCURVE",
"495.652 192.167 OFFCURVE",
"495 182.5 CURVE SMOOTH",
"494.331 172.833 OFFCURVE",
"490.164 156.333 OFFCURVE",
"482.5 133 CURVE SMOOTH",
"474.833 109.667 OFFCURVE",
"464.499 89.167 OFFCURVE",
"451.5 71.5 CURVE SMOOTH",
"438.5 53.833 OFFCURVE",
"418 37.5 OFFCURVE",
"390 22.5 CURVE SMOOTH",
"362 7.5 OFFCURVE",
"328.833 0 OFFCURVE",
"290.5 0 CURVE SMOOTH",
"252.167 0 OFFCURVE",
"219.167 7.167 OFFCURVE",
"191.5 21.5 CURVE SMOOTH",
"163.833 35.833 OFFCURVE",
"143.5 52.833 OFFCURVE",
"130.5 72.5 CURVE SMOOTH",
"117.5 92.167 OFFCURVE",
"107.167 112 OFFCURVE",
"99.5 132 CURVE SMOOTH",
"91.833 152 OFFCURVE",
"88 169.333 OFFCURVE",
"88 184 CURVE",
"86 205 LINE",
"86 301 LINE",
"86 717 LINE",
"86 819 LINE SMOOTH",
"86 824.333 OFFCURVE",
"86.333 831.833 OFFCURVE",
"87 841.5 CURVE SMOOTH",
"87.667 851.167 OFFCURVE",
"91.833 867.667 OFFCURVE",
"99.5 891 CURVE SMOOTH",
"107.167 914.333 OFFCURVE",
"117.5 934.833 OFFCURVE",
"130.5 952.5 CURVE SMOOTH",
"143.5 970.166 OFFCURVE",
"163.833 986.5 OFFCURVE",
"191.5 1001.5 CURVE SMOOTH",
"219.167 1016.5 OFFCURVE",
"252.167 1024 OFFCURVE",
"290.5 1024 CURVE SMOOTH"
);
},
{
closed = 1;
nodes = (
"369.667 819 OFFCURVE",
"350.5 814.667 OFFCURVE",
"335.5 806 CURVE SMOOTH",
"320.5 797.333 OFFCURVE",
"310.333 785.833 OFFCURVE",
"305 771.5 CURVE SMOOTH",
"299.667 757.167 OFFCURVE",
"296 746.167 OFFCURVE",
"294 738.5 CURVE SMOOTH",
"292 730.833 OFFCURVE",
"291 724.333 OFFCURVE",
"291 719 CURVE SMOOTH",
"291 307 LINE SMOOTH",
"291 304.331 OFFCURVE",
"291.333 300.664 OFFCURVE",
"292 296 CURVE SMOOTH",
"292.667 291.332 OFFCURVE",
"294.667 283.166 OFFCURVE",
"298 271.5 CURVE SMOOTH",
"301.335 259.833 OFFCURVE",
"306.168 249.5 OFFCURVE",
"312.5 240.5 CURVE SMOOTH",
"318.834 231.5 OFFCURVE",
"329.167 223.333 OFFCURVE",
"343.5 216 CURVE SMOOTH",
"357.833 208.666 OFFCURVE",
"374.333 205 OFFCURVE",
"393 205 CURVE SMOOTH",
"413.667 205 OFFCURVE",
"431.5 209 OFFCURVE",
"446.5 217 CURVE SMOOTH",
"461.5 225 OFFCURVE",
"472 235.167 OFFCURVE",
"478 247.5 CURVE SMOOTH",
"484 259.834 OFFCURVE",
"488.5 270.167 OFFCURVE",
"491.5 278.5 CURVE SMOOTH",
"494.5 286.834 OFFCURVE",
"496 295.001 OFFCURVE",
"496 303 CURVE SMOOTH",
"496 721 LINE SMOOTH",
"496 729 OFFCURVE",
"494.5 737.167 OFFCURVE",
"491.5 745.5 CURVE SMOOTH",
"488.5 753.833 OFFCURVE",
"484 764.167 OFFCURVE",
"478 776.5 CURVE SMOOTH",
"472 788.833 OFFCURVE",
"461.5 799 OFFCURVE",
"446.5 807 CURVE SMOOTH",
"431.499 815 OFFCURVE",
"413.666 819 OFFCURVE",
"393 819 CURVE SMOOTH"
);
}
);
userData = {
com.fontlab.hintData = {
hhints = (
{
position = -410;
width = 21;
},
{
position = 0;
width = 205;
},
{
position = 819;
width = 205;
}
);
vhints = (
{
position = 86;
width = 205;
},
{
position = 496;
width = 204;
}
);
};
};
width = 786;
}
);
unicode = 0071;
},
{
glyphname = qhooktail;
lastChange = "2023-04-14 15:58:04 +0000";
layers = (
{
layerId = master01;
paths = (
{
closed = 1;
nodes = (
"700 -103 LINE SMOOTH",
"700 -132 OFFCURVE",
"710 -156 OFFCURVE",
"729 -176 CURVE SMOOTH",
"749 -195 OFFCURVE",
"773 -205 OFFCURVE",
"802 -205 CURVE",
"802 -410 LINE",
"717 -410 OFFCURVE",
"645 -380 OFFCURVE",
"585 -320 CURVE SMOOTH",
"525 -260 OFFCURVE",
"496 -188 OFFCURVE",
"496 -103 CURVE SMOOTH",
"496 121 LINE",
"700 121 LINE"
);
},
{
closed = 1;
nodes = (
"329 1024 OFFCURVE",
"362 1017 OFFCURVE",
"390 1003 CURVE SMOOTH",
"418 988 OFFCURVE",
"439 971 OFFCURVE",
"452 952 CURVE SMOOTH",
"465 932 OFFCURVE",
"475 912 OFFCURVE",
"483 892 CURVE SMOOTH",
"490 872 OFFCURVE",
"494 855 OFFCURVE",
"494 840 CURVE",
"496 819 LINE",
"496 1024 LINE",
"700 1024 LINE",
"700 89 LINE",
"496 89 LINE",
"496 205 LINE SMOOTH",
"496 210 OFFCURVE",
"496 192 OFFCURVE",
"495 183 CURVE SMOOTH",
"494 173 OFFCURVE",
"490 156 OFFCURVE",
"483 133 CURVE SMOOTH",
"475 110 OFFCURVE",
"464 89 OFFCURVE",
"452 72 CURVE SMOOTH",
"439 54 OFFCURVE",
"418 38 OFFCURVE",
"390 23 CURVE SMOOTH",
"362 8 OFFCURVE",
"329 0 OFFCURVE",
"291 0 CURVE SMOOTH",
"252 0 OFFCURVE",
"219 7 OFFCURVE",
"192 22 CURVE SMOOTH",
"164 36 OFFCURVE",
"144 53 OFFCURVE",
"131 73 CURVE SMOOTH",
"118 92 OFFCURVE",
"107 112 OFFCURVE",
"100 132 CURVE SMOOTH",
"92 152 OFFCURVE",
"88 169 OFFCURVE",
"88 184 CURVE",
"86 205 LINE",
"86 301 LINE",
"86 717 LINE",
"86 819 LINE SMOOTH",
"86 824 OFFCURVE",
"86 832 OFFCURVE",
"87 842 CURVE SMOOTH",
"88 851 OFFCURVE",
"92 868 OFFCURVE",
"100 891 CURVE SMOOTH",
"107 914 OFFCURVE",
"118 935 OFFCURVE",
"131 953 CURVE SMOOTH",
"144 970 OFFCURVE",
"164 987 OFFCURVE",
"192 1002 CURVE SMOOTH",
"219 1017 OFFCURVE",
"252 1024 OFFCURVE",
"291 1024 CURVE SMOOTH"
);
},
{
closed = 1;
nodes = (
"370 819 OFFCURVE",
"351 815 OFFCURVE",
"336 806 CURVE SMOOTH",
"321 797 OFFCURVE",
"310 786 OFFCURVE",
"305 772 CURVE SMOOTH",
"300 757 OFFCURVE",
"296 746 OFFCURVE",
"294 739 CURVE SMOOTH",
"292 731 OFFCURVE",
"291 724 OFFCURVE",
"291 719 CURVE SMOOTH",
"291 307 LINE SMOOTH",
"291 304 OFFCURVE",
"291 301 OFFCURVE",
"292 296 CURVE SMOOTH",
"293 291 OFFCURVE",
"295 283 OFFCURVE",
"298 272 CURVE SMOOTH",
"301 260 OFFCURVE",
"306 250 OFFCURVE",
"313 241 CURVE SMOOTH",
"319 232 OFFCURVE",
"329 223 OFFCURVE",
"344 216 CURVE SMOOTH",
"358 209 OFFCURVE",
"374 205 OFFCURVE",
"393 205 CURVE SMOOTH",
"414 205 OFFCURVE",
"432 209 OFFCURVE",
"447 217 CURVE SMOOTH",
"462 225 OFFCURVE",
"472 235 OFFCURVE",
"478 248 CURVE SMOOTH",
"484 260 OFFCURVE",
"489 270 OFFCURVE",
"492 279 CURVE SMOOTH",
"495 287 OFFCURVE",
"496 295 OFFCURVE",
"496 303 CURVE SMOOTH",
"496 721 LINE SMOOTH",
"496 729 OFFCURVE",
"495 737 OFFCURVE",
"492 746 CURVE SMOOTH",
"489 754 OFFCURVE",
"484 764 OFFCURVE",
"478 777 CURVE SMOOTH",
"472 789 OFFCURVE",
"462 799 OFFCURVE",
"447 807 CURVE SMOOTH",
"431 815 OFFCURVE",
"414 819 OFFCURVE",
"393 819 CURVE SMOOTH"
);
}
);
width = 786;
}
);
unicode = 024B;
},
{
glyphname = r;
lastChange = "2023-05-03 16:12:38 +0000";
layers = (
{
layerId = master01;
paths = (
{
closed = 1;
nodes = (
"291 1024 LINE",
"291 819 LINE SMOOTH",
"291 824.333 OFFCURVE",
"291.333 831.833 OFFCURVE",
"292 841.5 CURVE SMOOTH",
"292.667 851.167 OFFCURVE",
"296.667 867.667 OFFCURVE",
"304 891 CURVE SMOOTH",
"311.334 914.333 OFFCURVE",
"321.5 934.833 OFFCURVE",
"334.5 952.5 CURVE SMOOTH",
"347.5 970.166 OFFCURVE",
"368 986.5 OFFCURVE",
"396 1001.5 CURVE SMOOTH",
"424 1016.5 OFFCURVE",
"457.167 1024 OFFCURVE",
"495.5 1024 CURVE SMOOTH",
"533.833 1023.99 OFFCURVE",
"567 1016.83 OFFCURVE",
"595 1002.5 CURVE SMOOTH",
"623 988.167 OFFCURVE",
"643.5 971.167 OFFCURVE",
"656.5 951.5 CURVE SMOOTH",
"669.5 931.833 OFFCURVE",
"679.667 912 OFFCURVE",
"687 892 CURVE SMOOTH",
"694.333 872 OFFCURVE",
"698 854.667 OFFCURVE",
"698 840 CURVE",
"700 819 LINE",
"700 717 LINE",
"496 717 LINE",
"495.985 719.672 OFFCURVE",
"495.652 723.338 OFFCURVE",
"495 728 CURVE SMOOTH",
"494.325 732.672 OFFCURVE",
"492.159 740.838 OFFCURVE",
"488.5 752.5 CURVE SMOOTH",
"484.833 764.171 OFFCURVE",
"480 774.504 OFFCURVE",
"474 783.5 CURVE SMOOTH",
"468 792.5 OFFCURVE",
"457.833 800.667 OFFCURVE",
"443.5 808 CURVE SMOOTH",
"429.167 815.333 OFFCURVE",
"412.333 819 OFFCURVE",
"393 819 CURVE SMOOTH",
"372.333 819 OFFCURVE",
"354.5 815 OFFCURVE",
"339.5 807 CURVE SMOOTH",
"324.5 798.998 OFFCURVE",
"314 788.832 OFFCURVE",
"308 776.5 CURVE SMOOTH",
"301.999 764.164 OFFCURVE",
"297.666 753.83 OFFCURVE",
"295 745.5 CURVE SMOOTH",
"292.327 737.164 OFFCURVE",
"290.993 728.997 OFFCURVE",
"291 721 CURVE SMOOTH",
"291 0 LINE",
"86 0 LINE",
"86 1024 LINE"
);
}
);
userData = {
com.fontlab.hintData = {
hhints = (
{
position = 0;
width = 21;
},
{
position = 819;
width = 205;
}
);
vhints = (
{
position = 86;
width = 205;
},
{
position = 496;
width = 204;
}
);
};
};
width = 720;
}
);
unicode = 0072;
},
{
glyphname = rfishhook;
lastChange = "2023-04-14 15:59:26 +0000";
layers = (
{
layerId = master01;
paths = (
{
closed = 1;
nodes = (
"86 0 LINE",
"86 717 LINE SMOOTH",
"86 802 OFFCURVE",
"116 874 OFFCURVE",
"176 934 CURVE SMOOTH",
"236 994 OFFCURVE",
"318 1024 OFFCURVE",
"423 1024 CURVE",
"423 819 LINE",
"364 819 OFFCURVE",
"340 809 OFFCURVE",
"320 790 CURVE SMOOTH",
"301 770 OFFCURVE",
"291 746 OFFCURVE",
"291 717 CURVE SMOOTH",
"291 0 LINE"
);
}
);
width = 443;
}
);
unicode = 027E;
},
{
glyphname = rhook;
lastChange = "2023-04-14 16:02:38 +0000";
layers = (
{
components = (
{
name = r;
}
);
layerId = master01;
paths = (
{
closed = 1;
nodes = (
"291 0 LINE SMOOTH",
"291 -29 OFFCURVE",
"301 -53 OFFCURVE",
"320 -73 CURVE SMOOTH",
"340 -92 OFFCURVE",
"364 -102 OFFCURVE",
"393 -102 CURVE",
"393 -307 LINE",
"308 -307 OFFCURVE",
"236 -277 OFFCURVE",
"176 -217 CURVE SMOOTH",
"116 -157 OFFCURVE",
"86 -85 OFFCURVE",
"86 0 CURVE SMOOTH",
"86 224 LINE",
"291 224 LINE"
);
}
);
width = 720;
}
);
unicode = 027D;
},
{
glyphname = s;
lastChange = "2023-05-03 16:12:38 +0000";
layers = (
{
layerId = master01;
paths = (
{
closed = 1;
nodes = (
"449.667 1024 OFFCURVE",
"522 994 OFFCURVE",
"582 934 CURVE SMOOTH",
"642 874 OFFCURVE",
"672 801.667 OFFCURVE",
"672 717 CURVE",
"467 717 LINE",
"466.999 745.668 OFFCURVE",
"457.166 769.835 OFFCURVE",
"437.5 789.5 CURVE SMOOTH",
"417.833 809.169 OFFCURVE",
"393.666 819.002 OFFCURVE",
"365 819 CURVE SMOOTH",
"336.333 819 OFFCURVE",
"312 809.167 OFFCURVE",
"292 789.5 CURVE SMOOTH",
"272 769.833 OFFCURVE",
"262 745.667 OFFCURVE",
"262 717 CURVE",
"260.667 688.333 OFFCURVE",
"270.333 664 OFFCURVE",
"291 644 CURVE SMOOTH",
"311.667 624 OFFCURVE",
"335.333 614 OFFCURVE",
"362 614 CURVE SMOOTH",
"445.333 612.667 OFFCURVE",
"516.5 582 OFFCURVE",
"575.5 522 CURVE SMOOTH",
"634.5 462 OFFCURVE",
"664 390.333 OFFCURVE",
"664 307 CURVE SMOOTH",
"663.999 222.333 OFFCURVE",
"633.833 150 OFFCURVE",
"573.5 90 CURVE SMOOTH",
"513.167 30 OFFCURVE",
"440.667 0 OFFCURVE",
"356 0 CURVE SMOOTH",
"271.333 0 OFFCURVE",
"199 30 OFFCURVE",
"139 90 CURVE SMOOTH",
"79 150 OFFCURVE",
"49 222.333 OFFCURVE",
"49 307 CURVE",
"254 307 LINE",
"254 278.333 OFFCURVE",
"263.833 254.167 OFFCURVE",
"283.5 234.5 CURVE SMOOTH",
"303.167 214.833 OFFCURVE",
"327.333 205 OFFCURVE",
"356 205 CURVE SMOOTH",
"384.667 205 OFFCURVE",
"409 214.833 OFFCURVE",
"429 234.5 CURVE SMOOTH",
"449 254.167 OFFCURVE",
"459 278.333 OFFCURVE",
"459 307 CURVE SMOOTH",
"459 335.667 OFFCURVE",
"448.667 360 OFFCURVE",
"428 380 CURVE SMOOTH",
"407.333 400 OFFCURVE",
"383.333 410 OFFCURVE",
"356 410 CURVE SMOOTH",
"272.667 411.334 OFFCURVE",
"201.667 442 OFFCURVE",
"143 502 CURVE SMOOTH",
"84.333 562 OFFCURVE",
"55 633.667 OFFCURVE",
"55 717 CURVE",
"56.333 801.667 OFFCURVE",
"87.167 874 OFFCURVE",
"147.5 934 CURVE SMOOTH",
"207.833 994 OFFCURVE",
"280.333 1024 OFFCURVE",
"365 1024 CURVE SMOOTH"
);
}
);
userData = {
com.fontlab.hintData = {
hhints = (
{
position = 0;
width = 205;
},
{
position = 410;
width = 204;
},
{
position = 819;
width = 205;
}
);
vhints = (
{
position = 55;
width = 207;
},
{
position = 459;
width = 205;
}
);
};
};
width = 720;
}
);
unicode = 0073;
},
{
glyphname = saltillo;
lastChange = "2023-05-03 16:09:01 +0000";
layers = (
{
layerId = master01;
paths = (
{
closed = 1;
nodes = (
"272 1434 LINE",
"272 1024 LINE",
"109 1024 LINE",
"109 1434 LINE"
);
}
);
width = 380;
}
);
unicode = A78C;
},
{
glyphname = germandbls;
lastChange = "2023-05-03 16:11:32 +0000";
layers = (
{
layerId = master01;
paths = (
{
closed = 1;
nodes = (
"20 1130 LINE SMOOTH",
"21 1213 OFFCURVE",
"52 1285 OFFCURVE",
"111 1345 CURVE SMOOTH",
"170 1404 OFFCURVE",
"242 1434 OFFCURVE",
"327 1434 CURVE SMOOTH",
"412 1434 OFFCURVE",
"484 1404 OFFCURVE",
"544 1344 CURVE SMOOTH",
"604 1283 OFFCURVE",
"634 1211 OFFCURVE",
"634 1126 CURVE SMOOTH",
"634 922 LINE SMOOTH",
"634 844 OFFCURVE",
"608 776 OFFCURVE",
"556 717 CURVE",
"608 658 OFFCURVE",
"634 590 OFFCURVE",
"634 512 CURVE SMOOTH",
"634 307 LINE SMOOTH",
"634 222 OFFCURVE",
"604 150 OFFCURVE",
"544 90 CURVE SMOOTH",
"484 30 OFFCURVE",
"412 0 OFFCURVE",
"327 0 CURVE",
"327 205 LINE",
"356 205 OFFCURVE",
"380 215 OFFCURVE",
"400 235 CURVE SMOOTH",
"419 254 OFFCURVE",
"429 278 OFFCURVE",
"429 307 CURVE SMOOTH",
"429 512 LINE SMOOTH",
"429 541 OFFCURVE",
"419 565 OFFCURVE",
"400 585 CURVE SMOOTH",
"380 604 OFFCURVE",
"356 614 OFFCURVE",
"327 614 CURVE",
"327 819 LINE",
"356 819 OFFCURVE",
"380 829 OFFCURVE",
"400 849 CURVE SMOOTH",
"419 869 OFFCURVE",
"429 893 OFFCURVE",
"429 922 CURVE SMOOTH",
"429 1126 LINE SMOOTH",
"429 1155 OFFCURVE",
"419 1179 OFFCURVE",
"400 1199 CURVE SMOOTH",
"380 1219 OFFCURVE",
"356 1229 OFFCURVE",
"327 1229 CURVE SMOOTH",
"298 1229 OFFCURVE",
"274 1219 OFFCURVE",
"255 1199 CURVE SMOOTH",
"235 1179 OFFCURVE",
"225 1155 OFFCURVE",
"225 1126 CURVE SMOOTH",
"225 0 LINE",
"20 0 LINE"
);
}
);
width = 693;
}
);
unicode = 00DF;
},
{
glyphname = t;
lastChange = "2023-05-03 16:12:38 +0000";
layers = (
{
layerId = master01;
paths = (
{
closed = 1;
nodes = (
"317 1329 LINE",
"317 1022 LINE",
"420 1022 LINE",
"420 817 LINE",
"317 817 LINE",
"317 305 LINE SMOOTH",
"317 277.667 OFFCURVE",
"327 253.833 OFFCURVE",
"347 233.5 CURVE SMOOTH",
"367 213.167 OFFCURVE",
"391.333 203 OFFCURVE",
"420 203 CURVE",
"420 -2 LINE",
"335.333 -2 OFFCURVE",
"263 28 OFFCURVE",
"203 88 CURVE SMOOTH",
"143 148 OFFCURVE",
"113 220.333 OFFCURVE",
"113 305 CURVE SMOOTH",
"113 817 LINE",
"10 817 LINE",
"10 1022 LINE",
"113 1022 LINE",
"113 1329 LINE"
);
}
);
userData = {
com.fontlab.hintData = {
hhints = (
{
position = 817;
width = 205;
}
);
vhints = (
{
position = 113;
width = 204;
}
);
};
};
width = 432;
}
);
unicode = 0074;
},
{
glyphname = tcedilla;
lastChange = "2023-03-27 12:42:58 +0000";
layers = (
{
components = (
{
name = t;
}
);
layerId = master01;
paths = (
{
closed = 1;
nodes = (
"217 -240 LINE",
"56 -240 LINE",
"315 123 LINE",
"420 -2 LINE"
);
}
);
width = 432;
}
);
leftMetricsKey = t;
rightMetricsKey = t;
unicode = 0163;
},
{
glyphname = thook;
lastChange = "2023-04-14 15:56:23 +0000";
layers = (
{
components = (
{
name = t;
}
);
layerId = master01;
paths = (
{
closed = 1;
nodes = (
"113 1105 LINE",
"113 1329 LINE SMOOTH",
"113 1414 OFFCURVE",
"142 1486 OFFCURVE",
"202 1546 CURVE SMOOTH",
"262 1606 OFFCURVE",
"334 1636 OFFCURVE",
"419 1636 CURVE",
"419 1431 LINE",
"390 1431 OFFCURVE",
"366 1421 OFFCURVE",
"346 1402 CURVE SMOOTH",
"327 1382 OFFCURVE",
"317 1358 OFFCURVE",
"317 1329 CURVE SMOOTH",
"317 1105 LINE"
);
}
);
width = 432;
}
);
unicode = 01AD;
},
{
glyphname = tretroflexhook;
lastChange = "2023-05-03 14:36:30 +0000";
layers = (
{
layerId = master01;
paths = (
{
closed = 1;
nodes = (
"317 1329 LINE",
"317 1022 LINE",
"420 1022 LINE",
"420 817 LINE",
"317 817 LINE",
"317 -103 LINE SMOOTH",
"317 -130 OFFCURVE",
"327 -154 OFFCURVE",
"347 -174 CURVE SMOOTH",
"367 -195 OFFCURVE",
"391 -205 OFFCURVE",
"420 -205 CURVE",
"420 -410 LINE",
"335 -410 OFFCURVE",
"263 -380 OFFCURVE",
"203 -320 CURVE SMOOTH",
"143 -260 OFFCURVE",
"113 -188 OFFCURVE",
"113 -103 CURVE SMOOTH",
"113 817 LINE",
"10 817 LINE",
"10 1022 LINE",
"113 1022 LINE",
"113 1329 LINE"
);
}
);
width = 432;
}
);
unicode = 0288;
},
{
glyphname = u;
lastChange = "2023-05-03 16:12:38 +0000";
layers = (
{
layerId = master01;
paths = (
{
closed = 1;
nodes = (
"291 1024 LINE",
"291 307 LINE SMOOTH",
"291 304.331 OFFCURVE",
"291.333 300.664 OFFCURVE",
"292 296 CURVE SMOOTH",
"292.667 291.332 OFFCURVE",
"294.667 283.166 OFFCURVE",
"298 271.5 CURVE SMOOTH",
"301.335 259.833 OFFCURVE",
"306.168 249.5 OFFCURVE",
"312.5 240.5 CURVE SMOOTH",
"318.834 231.5 OFFCURVE",
"329.167 223.333 OFFCURVE",
"343.5 216 CURVE SMOOTH",
"357.833 208.666 OFFCURVE",
"374.333 205 OFFCURVE",
"393 205 CURVE SMOOTH",
"413.667 205 OFFCURVE",
"431.5 209 OFFCURVE",
"446.5 217 CURVE SMOOTH",
"461.5 225 OFFCURVE",
"472 235.167 OFFCURVE",
"478 247.5 CURVE SMOOTH",
"484 259.834 OFFCURVE",
"488.5 270.167 OFFCURVE",
"491.5 278.5 CURVE SMOOTH",
"494.5 286.834 OFFCURVE",
"496 295.001 OFFCURVE",
"496 303 CURVE SMOOTH",
"496 1024 LINE",
"700 1024 LINE",
"700 0 LINE",
"496 0 LINE",
"496 205 LINE SMOOTH",
"495.985 199.667 OFFCURVE",
"495.652 192.167 OFFCURVE",
"495 182.5 CURVE SMOOTH",
"494.331 172.833 OFFCURVE",
"490.164 156.333 OFFCURVE",
"482.5 133 CURVE SMOOTH",
"474.833 109.667 OFFCURVE",
"464.499 89.167 OFFCURVE",
"451.5 71.5 CURVE SMOOTH",
"438.5 53.833 OFFCURVE",
"418 37.5 OFFCURVE",
"390 22.5 CURVE SMOOTH",
"362 7.5 OFFCURVE",
"328.833 0 OFFCURVE",
"290.5 0 CURVE SMOOTH",
"252.167 0 OFFCURVE",
"219.167 7.167 OFFCURVE",
"191.5 21.5 CURVE SMOOTH",
"163.833 35.833 OFFCURVE",
"143.5 52.833 OFFCURVE",
"130.5 72.5 CURVE SMOOTH",
"117.5 92.167 OFFCURVE",
"107.167 112 OFFCURVE",
"99.5 132 CURVE SMOOTH",
"91.833 152 OFFCURVE",
"88 169.333 OFFCURVE",
"88 184 CURVE",
"86 205 LINE",
"86 305 LINE",
"86 1024 LINE"
);
}
);
userData = {
com.fontlab.hintData = {
hhints = (
{
position = 0;
width = 205;
},
{
position = 1004;
width = 20;
}
);
vhints = (
{
position = 86;
width = 205;
},
{
position = 496;
width = 204;
}
);
};
};
width = 786;
}
);
unicode = 0075;
},
{
glyphname = ubar;
lastChange = "2023-03-27 13:16:55 +0000";
layers = (
{
components = (
{
name = u;
transform = "{1, 0, 0, 1, 94, 0}";
}
);
layerId = master01;
paths = (
{
closed = 1;
nodes = (
"897 708 LINE",
"897 544 LINE",
"86 544 LINE",
"86 708 LINE"
);
}
);
width = 983;
}
);
leftMetricsKey = u;
rightMetricsKey = u;
unicode = 0289;
},
{
glyphname = "upsilon-latin";
lastChange = "2023-05-03 14:26:59 +0000";
layers = (
{
layerId = master01;
paths = (
{
closed = 1;
nodes = (
"291 1024 LINE",
"291 820 LINE",
"251 654 OFFCURVE",
"227 487 OFFCURVE",
"254 353 CURVE SMOOTH",
"273 257 OFFCURVE",
"323 205 OFFCURVE",
"393 205 CURVE SMOOTH",
"463 205 OFFCURVE",
"513 259 OFFCURVE",
"532 353 CURVE SMOOTH",
"559 487 OFFCURVE",
"536 654 OFFCURVE",
"496 820 CURVE",
"496 1024 LINE",
"700 1024 LINE",
"700 820 LINE",
"616 820 LINE",
"651 694 OFFCURVE",
"700 487 OFFCURVE",
"700 353 CURVE SMOOTH",
"701 73 OFFCURVE",
"531 0 OFFCURVE",
"393 0 CURVE SMOOTH",
"254 0 OFFCURVE",
"86 83 OFFCURVE",
"86 353 CURVE SMOOTH",
"86 506 OFFCURVE",
"136 694 OFFCURVE",
"171 820 CURVE",
"86 820 LINE",
"86 1024 LINE"
);
}
);
width = 786;
}
);
unicode = 028A;
},
{
glyphname = v;
lastChange = "2023-05-03 16:12:38 +0000";
layers = (
{
layerId = master01;
paths = (
{
closed = 1;
nodes = (
"203 1024 LINE",
"305 512 LINE",
"408 1024 LINE",
"612 1024 LINE",
"408 0 LINE",
"203 0 LINE",
"-2 1024 LINE"
);
}
);
userData = {
com.fontlab.hintData = {
hhints = (
{
position = 0;
width = 21;
},
{
position = 1004;
width = 20;
}
);
vhints = (
{
position = -2;
width = 614;
}
);
};
};
width = 610;
}
);
unicode = 0076;
},
{
glyphname = vhook;
lastChange = "2023-05-03 14:44:06 +0000";
layers = (
{
layerId = master01;
paths = (
{
closed = 1;
nodes = (
"291 1024 LINE",
"291 353 LINE SMOOTH",
"291 255 OFFCURVE",
"343 205 OFFCURVE",
"413 205 CURVE SMOOTH",
"483 205 OFFCURVE",
"525 259 OFFCURVE",
"543 353 CURVE SMOOTH",
"568 487 OFFCURVE",
"568 679 OFFCURVE",
"496 785 CURVE",
"496 1024 LINE",
"588 994 OFFCURVE",
"655 940 OFFCURVE",
"705 836 CURVE SMOOTH",
"758 726 OFFCURVE",
"775 488 OFFCURVE",
"750 353 CURVE SMOOTH",
"700 81 OFFCURVE",
"531 0 OFFCURVE",
"393 0 CURVE SMOOTH",
"254 0 OFFCURVE",
"86 83 OFFCURVE",
"86 353 CURVE",
"86 820 LINE",
"86 1024 LINE"
);
}
);
width = 847;
}
);
unicode = 028B;
},
{
glyphname = w;
lastChange = "2023-05-03 16:12:38 +0000";
layers = (
{
layerId = master01;
paths = (
{
closed = 1;
nodes = (
"207 1024 LINE",
"309 512 LINE",
"412 1024 LINE",
"616 1024 LINE",
"719 512 LINE",
"821 1024 LINE",
"1026 1024 LINE",
"821 0 LINE",
"616 0 LINE",
"514 512 LINE",
"412 0 LINE",
"207 0 LINE",
"2 1024 LINE"
);
}
);
userData = {
com.fontlab.hintData = {
hhints = (
{
position = 0;
width = 21;
},
{
position = 1004;
width = 20;
}
);
};
};
width = 1028;
}
);
unicode = 0077;
},
{
glyphname = whook;
lastChange = "2023-05-03 14:47:11 +0000";
layers = (
{
background = {
paths = (
{
closed = 1;
nodes = (
"847 903 LINE",
"847 1127 LINE SMOOTH",
"847 1212 OFFCURVE",
"877 1284 OFFCURVE",
"937 1344 CURVE SMOOTH",
"997 1404 OFFCURVE",
"1069 1434 OFFCURVE",
"1154 1434 CURVE",
"1154 1229 LINE",
"1125 1229 OFFCURVE",
"1101 1219 OFFCURVE",
"1081 1200 CURVE SMOOTH",
"1062 1180 OFFCURVE",
"1052 1156 OFFCURVE",
"1052 1127 CURVE SMOOTH",
"1052 903 LINE"
);
}
);
};
layerId = master01;
paths = (
{
closed = 1;
nodes = (
"207 1024 LINE",
"309 512 LINE",
"412 1024 LINE",
"616 1024 LINE",
"719 512 LINE",
"847 1156 LINE",
"1026 1024 LINE",
"821 0 LINE",
"616 0 LINE",
"514 512 LINE",
"412 0 LINE",
"207 0 LINE",
"2 1024 LINE"
);
},
{
closed = 1;
nodes = (
"847 1156 LINE",
"858 1210 OFFCURVE",
"877 1284 OFFCURVE",
"937 1344 CURVE SMOOTH",
"997 1404 OFFCURVE",
"1069 1434 OFFCURVE",
"1154 1434 CURVE",
"1154 1229 LINE",
"1125 1229 OFFCURVE",
"1101 1219 OFFCURVE",
"1081 1200 CURVE SMOOTH",
"1062 1180 OFFCURVE",
"1054 1156 OFFCURVE",
"1048 1127 CURVE SMOOTH",
"1026 1024 LINE"
);
}
);
width = 1200;
}
);
unicode = 2C73;
},
{
glyphname = x;
lastChange = "2023-05-03 16:12:38 +0000";
layers = (
{
layerId = master01;
paths = (
{
closed = 1;
nodes = (
"182 1024 LINE",
"285 768 LINE",
"387 1024 LINE",
"592 1024 LINE",
"387 512 LINE",
"592 0 LINE",
"387 0 LINE",
"285 256 LINE",
"182 0 LINE",
"-23 0 LINE",
"182 512 LINE",
"-23 1024 LINE"
);
}
);
userData = {
com.fontlab.hintData = {
hhints = (
{
position = 0;
width = 21;
},
{
position = 1004;
width = 20;
}
);
vhints = (
{
position = -23;
width = 615;
}
);
};
};
width = 569;
}
);
unicode = 0078;
},
{
glyphname = y;
lastChange = "2023-05-03 16:12:38 +0000";
layers = (
{
layerId = master01;
paths = (
{
closed = 1;
nodes = (
"203 1024 LINE",
"305 512 LINE",
"408 1024 LINE",
"612 1024 LINE",
"408 0 LINE",
"408 -84.667 OFFCURVE",
"377.833 -157 OFFCURVE",
"317.5 -217 CURVE SMOOTH",
"257.167 -277 OFFCURVE",
"184.667 -307 OFFCURVE",
"100 -307 CURVE",
"100 -102 LINE",
"128.667 -102 OFFCURVE",
"153 -92.167 OFFCURVE",
"173 -72.5 CURVE SMOOTH",
"193 -52.833 OFFCURVE",
"203 -28.667 OFFCURVE",
"203 0 CURVE",
"-2 1024 LINE"
);
}
);
userData = {
com.fontlab.hintData = {
hhints = (
{
position = 1004;
width = 20;
}
);
};
};
width = 610;
}
);
unicode = 0079;
},
{
glyphname = yhook;
lastChange = "2023-05-03 14:48:17 +0000";
layers = (
{
layerId = master01;
paths = (
{
closed = 1;
nodes = (
"433 1156 LINE",
"444 1210 OFFCURVE",
"463 1284 OFFCURVE",
"523 1344 CURVE SMOOTH",
"583 1404 OFFCURVE",
"655 1434 OFFCURVE",
"740 1434 CURVE",
"740 1229 LINE",
"711 1229 OFFCURVE",
"687 1219 OFFCURVE",
"667 1200 CURVE SMOOTH",
"648 1180 OFFCURVE",
"640 1156 OFFCURVE",
"634 1127 CURVE SMOOTH",
"612 1024 LINE"
);
},
{
closed = 1;
nodes = (
"203 1024 LINE",
"305 512 LINE",
"433 1156 LINE",
"612 1024 LINE",
"408 0 LINE",
"408 -84.667 OFFCURVE",
"377.833 -157 OFFCURVE",
"317.5 -217 CURVE SMOOTH",
"257.167 -277 OFFCURVE",
"184.667 -307 OFFCURVE",
"100 -307 CURVE",
"100 -102 LINE",
"128.667 -102 OFFCURVE",
"153 -92.167 OFFCURVE",
"173 -72.5 CURVE SMOOTH",
"193 -52.833 OFFCURVE",
"203 -28.667 OFFCURVE",
"203 0 CURVE",
"-2 1024 LINE"
);
}
);
width = 738;
}
);
unicode = 01B4;
},
{
glyphname = z;
lastChange = "2023-05-03 16:12:38 +0000";
layers = (
{
layerId = master01;
paths = (
{
closed = 1;
nodes = (
"649 1024 LINE",
"649 819 LINE",
"240 205 LINE",
"649 205 LINE",
"649 0 LINE",
"35 0 LINE",
"35 205 LINE",
"444 819 LINE",
"35 819 LINE",
"35 1024 LINE"
);
}
);
userData = {
com.fontlab.hintData = {
hhints = (
{
position = 0;
width = 205;
},
{
position = 819;
width = 205;
}
);
vhints = (
{
position = 35;
width = 614;
}
);
};
};
width = 684;
}
);
unicode = 007A;
},
{
glyphname = zero;
layers = (
{
layerId = master01;
paths = (
{
closed = 1;
nodes = (
"461.667 1434 OFFCURVE",
"534 1403.83 OFFCURVE",
"594 1343.5 CURVE SMOOTH",
"654 1283.17 OFFCURVE",
"684 1210.67 OFFCURVE",
"684 1126 CURVE SMOOTH",
"684 307 LINE SMOOTH",
"684 222.333 OFFCURVE",
"654 150 OFFCURVE",
"594 90 CURVE SMOOTH",
"534 30 OFFCURVE",
"461.667 0 OFFCURVE",
"377 0 CURVE SMOOTH",
"292.333 0 OFFCURVE",
"220 30 OFFCURVE",
"160 90 CURVE SMOOTH",
"100 150 OFFCURVE",
"70 222.333 OFFCURVE",
"70 307 CURVE SMOOTH",
"70 1126 LINE SMOOTH",
"70 1210.67 OFFCURVE",
"100 1283.17 OFFCURVE",
"160 1343.5 CURVE SMOOTH",
"220 1403.84 OFFCURVE",
"292.333 1434 OFFCURVE",
"377 1434 CURVE SMOOTH"
);
},
{
closed = 1;
nodes = (
"348.333 1229 OFFCURVE",
"324 1219 OFFCURVE",
"304 1199 CURVE SMOOTH",
"284 1179 OFFCURVE",
"274 1154.67 OFFCURVE",
"274 1126 CURVE SMOOTH",
"274 307 LINE SMOOTH",
"274 278.333 OFFCURVE",
"284 254.167 OFFCURVE",
"304 234.5 CURVE SMOOTH",
"324 214.833 OFFCURVE",
"348.333 205 OFFCURVE",
"377 205 CURVE SMOOTH",
"405.667 205 OFFCURVE",
"429.833 214.833 OFFCURVE",
"449.5 234.5 CURVE SMOOTH",
"469.167 254.167 OFFCURVE",
"479 278.333 OFFCURVE",
"479 307 CURVE SMOOTH",
"479 1126 LINE SMOOTH",
"478.999 1154.67 OFFCURVE",
"469.166 1179 OFFCURVE",
"449.5 1199 CURVE SMOOTH",
"429.833 1219 OFFCURVE",
"405.666 1229 OFFCURVE",
"377 1229 CURVE SMOOTH"
);
}
);
userData = {
com.fontlab.hintData = {
hhints = (
{
position = 0;
width = 205;
},
{
position = 1229;
width = 205;
}
);
vhints = (
{
position = 70;
width = 204;
},
{
position = 479;
width = 205;
}
);
};
};
width = 753;
}
);
unicode = 0030;
},
{
glyphname = one;
layers = (
{
layerId = master01;
paths = (
{
closed = 1;
nodes = (
"518 1434 LINE",
"518 0 LINE",
"313 0 LINE",
"313 1229 LINE",
"109 1024 LINE",
"109 1229 LINE",
"313 1434 LINE"
);
}
);
userData = {
com.fontlab.hintData = {
hhints = (
{
position = 0;
width = 21;
},
{
position = 1024;
width = 21;
},
{
position = 1414;
width = 20;
}
);
vhints = (
{
position = 313;
width = 205;
}
);
};
};
width = 753;
}
);
unicode = 0031;
},
{
glyphname = two;
layers = (
{
layerId = master01;
paths = (
{
closed = 1;
nodes = (
"461.667 1434 OFFCURVE",
"534 1403.83 OFFCURVE",
"594 1343.5 CURVE SMOOTH",
"654 1283.17 OFFCURVE",
"684 1210.67 OFFCURVE",
"684 1126 CURVE SMOOTH",
"684 1080.67 OFFCURVE",
"675 1038.33 OFFCURVE",
"657 999 CURVE SMOOTH",
"299 205 LINE",
"684 205 LINE",
"684 0 LINE",
"70 0 LINE",
"70 205 LINE",
"455 1047 LINE",
"471.667 1086.33 OFFCURVE",
"479.667 1112.67 OFFCURVE",
"479 1126 CURVE",
"478.999 1154.67 OFFCURVE",
"469.166 1179 OFFCURVE",
"449.5 1199 CURVE SMOOTH",
"429.833 1219 OFFCURVE",
"405.666 1229 OFFCURVE",
"377 1229 CURVE SMOOTH",
"348.333 1229 OFFCURVE",
"324 1219 OFFCURVE",
"304 1199 CURVE SMOOTH",
"284 1179 OFFCURVE",
"274 1154.67 OFFCURVE",
"274 1126 CURVE",
"70 1126 LINE",
"70 1210.67 OFFCURVE",
"100 1283.17 OFFCURVE",
"160 1343.5 CURVE SMOOTH",
"220 1403.84 OFFCURVE",
"292.333 1434 OFFCURVE",
"377 1434 CURVE SMOOTH"
);
}
);
userData = {
com.fontlab.hintData = {
hhints = (
{
position = 0;
width = 205;
},
{
position = 1229;
width = 205;
}
);
vhints = (
{
position = 479;
width = 205;
}
);
};
};
width = 753;
}
);
unicode = 0032;
},
{
glyphname = three;
layers = (
{
layerId = master01;
paths = (
{
closed = 1;
nodes = (
"461.667 1434 OFFCURVE",
"534 1403.83 OFFCURVE",
"594 1343.5 CURVE SMOOTH",
"654 1283.17 OFFCURVE",
"684 1210.67 OFFCURVE",
"684 1126 CURVE SMOOTH",
"684 922 LINE SMOOTH",
"684 844 OFFCURVE",
"658 775.667 OFFCURVE",
"606 717 CURVE",
"658 658.333 OFFCURVE",
"684 590 OFFCURVE",
"684 512 CURVE SMOOTH",
"684 307 LINE SMOOTH",
"684 222.333 OFFCURVE",
"654 150 OFFCURVE",
"594 90 CURVE SMOOTH",
"534 30 OFFCURVE",
"461.667 0 OFFCURVE",
"377 0 CURVE SMOOTH",
"292.333 0 OFFCURVE",
"220 30 OFFCURVE",
"160 90 CURVE SMOOTH",
"100 150 OFFCURVE",
"70 222.333 OFFCURVE",
"70 307 CURVE SMOOTH",
"70 410 LINE",
"274 410 LINE",
"274 307 LINE SMOOTH",
"274 278.333 OFFCURVE",
"284 254.167 OFFCURVE",
"304 234.5 CURVE SMOOTH",
"324 214.833 OFFCURVE",
"348.333 205 OFFCURVE",
"377 205 CURVE SMOOTH",
"405.667 205 OFFCURVE",
"429.833 214.833 OFFCURVE",
"449.5 234.5 CURVE SMOOTH",
"469.167 254.167 OFFCURVE",
"479 278.333 OFFCURVE",
"479 307 CURVE SMOOTH",
"479 512 LINE SMOOTH",
"478.999 540.668 OFFCURVE",
"469.166 564.835 OFFCURVE",
"449.5 584.5 CURVE SMOOTH",
"429.833 604.17 OFFCURVE",
"405.666 614.003 OFFCURVE",
"377 614 CURVE",
"377 819 LINE",
"405.667 819 OFFCURVE",
"429.833 829 OFFCURVE",
"449.5 849 CURVE SMOOTH",
"469.167 869.001 OFFCURVE",
"479 893.334 OFFCURVE",
"479 922 CURVE SMOOTH",
"479 1126 LINE SMOOTH",
"478.999 1154.67 OFFCURVE",
"469.166 1179 OFFCURVE",
"449.5 1199 CURVE SMOOTH",
"429.833 1219 OFFCURVE",
"405.666 1229 OFFCURVE",
"377 1229 CURVE SMOOTH",
"348.333 1229 OFFCURVE",
"324 1219 OFFCURVE",
"304 1199 CURVE SMOOTH",
"284 1179 OFFCURVE",
"274 1154.67 OFFCURVE",
"274 1126 CURVE SMOOTH",
"274 1024 LINE",
"70 1024 LINE",
"70 1126 LINE SMOOTH",
"70 1210.67 OFFCURVE",
"100 1283.17 OFFCURVE",
"160 1343.5 CURVE SMOOTH",
"220 1403.84 OFFCURVE",
"292.333 1434 OFFCURVE",
"377 1434 CURVE SMOOTH"
);
}
);
userData = {
com.fontlab.hintData = {
hhints = (
{
position = 0;
width = 205;
},
{
position = 1024;
width = 21;
},
{
position = 1229;
width = 205;
}
);
vhints = (
{
position = 70;
width = 204;
},
{
position = 479;
width = 205;
}
);
};
};
width = 753;
}
);
unicode = 0033;
},
{
glyphname = four;
layers = (
{
layerId = master01;
paths = (
{
closed = 1;
nodes = (
"428 1434 LINE",
"223 410 LINE",
"377 410 LINE",
"377 717 LINE",
"582 717 LINE",
"582 410 LINE",
"633 410 LINE",
"633 205 LINE",
"582 205 LINE",
"582 0 LINE",
"377 0 LINE",
"377 205 LINE",
"18 205 LINE",
"18 410 LINE",
"223 1434 LINE"
);
}
);
userData = {
com.fontlab.hintData = {
hhints = (
{
position = 0;
width = 21;
},
{
position = 205;
width = 205;
},
{
position = 1414;
width = 20;
}
);
vhints = (
{
position = 377;
width = 205;
}
);
};
};
width = 651;
}
);
unicode = 0034;
},
